<svg width="36px" height="28px" viewBox="0 0 36 28" version="1.1" xmlns="http://www.w3.org/2000/svg" xmlns:xlink="http://www.w3.org/1999/xlink"><g id="Page-1" stroke="none" stroke-width="1" fill="none" fill-rule="evenodd"><g id="quote" fill="rgba(0,0,0,0.3)" fill-rule="nonzero"><path d="M22.295394,24.863758 C17.200505,19.145204 20.710131,9.190578 24.951762,5.3424212 C28.566689,2.0628338 34.556731,-0.6186226 35.121428,0.3183024 C36.019154,1.8077781 32.48577,2.865211 29.829231,5.2558366 C26.512946,8.842074 25.399362,10.454202 29.988064,12.477295 C34.906646,14.697086 35.001109,16.868305 35.159152,19.630467 C35.55703,26.584322 27.269122,29.837485 22.295394,24.863758 Z" id="path1873"/><path d="M3.1231491,24.764559 C-1.97173941,19.046005 1.5378861,9.091379 5.7795171,5.2432227 C9.394445,1.9636353 15.384487,-0.7178211 15.949184,0.2191039 C16.84691,1.7085796 13.313526,2.7660125 10.656987,5.1566381 C7.3407014,8.742875 6.2271171,10.355003 10.81582,12.378096 C15.734402,14.597887 15.828865,16.769106 15.986908,19.531268 C16.384786,26.485123 8.096878,29.738286 3.1231491,24.764559 Z" id="path1875"/></g></g></svg>