<svg height="200" width="200" viewBox="0 0 316 301" fill="none" xmlns="http://www.w3.org/2000/svg"><g clip-path="url(#clip0)"><path d="M6.417 202.636C6.51432 202.438 6.51432 202.24 6.61333 202.042C6.71234 201.745 6.71234 201.546 6.71234 201.348C6.71234 201.051 6.61333 200.853 6.61333 200.655C6.51432 200.457 6.51432 200.259 6.417 200.061L6.11998 199.467C6.02097 199.269 5.92196 199.168 5.72563 198.97C5.58155 198.815 5.41531 198.681 5.23227 198.574L4.6399 198.277C4.44189 198.178 4.24388 198.079 4.04754 198.079C3.75052 197.98 3.65151 197.98 3.35617 197.98C3.06083 197.98 2.86281 198.079 2.6648 198.079C2.46846 198.18 2.27045 198.18 2.07243 198.277C1.8761 198.378 1.67808 198.475 1.48007 198.574C1.28373 198.772 1.08572 198.871 0.986714 198.97C0.831537 199.115 0.698654 199.283 0.592364 199.467L0.295343 200.061C0.198014 200.259 0.099007 200.457 0.099007 200.655C0 200.952 0 201.151 0 201.348C0 201.645 0.099007 201.844 0.099007 202.042C0.099007 202.24 0.198014 202.438 0.39435 202.636L0.691371 203.23C0.790378 203.428 0.887707 203.527 1.08572 203.725C1.18473 203.826 1.38274 204.022 1.57908 204.123L2.17144 204.42C2.36946 204.519 2.56579 204.618 2.76381 204.618C3.15816 204.717 3.65319 204.717 4.04754 204.618C4.24388 204.517 4.44189 204.517 4.6399 204.42C4.83624 204.319 5.03425 204.222 5.23227 204.123C5.4286 204.022 5.52761 203.923 5.72563 203.725C5.82463 203.626 6.02097 203.428 6.11998 203.23L6.417 202.636V202.636ZM6.31631 169.08C6.417 168.882 6.417 168.684 6.61333 168.486C6.71234 168.189 6.71234 167.99 6.71234 167.792C6.71234 167.495 6.61333 167.297 6.61333 167.099C6.51432 166.901 6.51432 166.703 6.417 166.505L6.11998 165.911C6.02097 165.713 5.92196 165.612 5.72563 165.414C5.58155 165.259 5.41531 165.125 5.23227 165.018L4.6399 164.721C4.44189 164.622 4.24388 164.523 4.04754 164.523C3.75052 164.424 3.65151 164.424 3.35617 164.424C3.06083 164.424 2.86281 164.523 2.6648 164.523C2.46846 164.624 2.27045 164.624 2.07243 164.721C1.8761 164.822 1.67808 164.919 1.48007 165.018C1.28373 165.119 1.18473 165.216 0.986714 165.414C0.831537 165.559 0.698654 165.727 0.592364 165.911L0.295343 166.505C0.198014 166.703 0.099007 166.901 0.099007 167.099C0 167.396 0 167.595 0 167.792C0 168.09 0.099007 168.288 0.099007 168.486C0.198014 168.684 0.198014 168.882 0.295343 169.08L0.592364 169.674C0.691371 169.872 0.790378 169.971 0.986714 170.169C1.0874 170.27 1.28373 170.466 1.48007 170.567L2.07243 170.864C2.27045 170.963 2.46846 171.062 2.6648 171.062C3.06083 171.161 3.55418 171.161 3.94853 171.062C4.14655 170.961 4.34288 170.961 4.5409 170.864L5.13326 170.567C5.3296 170.466 5.4286 170.367 5.62662 170.169C5.72562 170.07 5.92196 169.872 6.02097 169.674L6.31799 169.08H6.31631ZM6.31799 135.524C6.417 135.326 6.417 135.128 6.61333 134.93C6.71234 134.633 6.71234 134.434 6.71234 134.236C6.71234 133.939 6.61333 133.741 6.61333 133.543C6.51432 133.345 6.51432 133.147 6.417 132.949L6.11998 132.355C6.02097 132.157 5.92196 132.056 5.72563 131.858C5.58155 131.703 5.41531 131.569 5.23227 131.462L4.6399 131.165C4.44189 131.066 4.24388 130.967 4.04754 130.967C3.75052 130.868 3.65151 130.868 3.35617 130.868C3.06083 130.868 2.86281 130.967 2.6648 130.967C2.46846 131.068 2.27045 131.068 2.07243 131.165C1.8761 131.266 1.67808 131.363 1.48007 131.462C1.28373 131.563 1.18473 131.66 0.986714 131.858C0.831537 132.003 0.698654 132.171 0.592364 132.355L0.295343 132.949C0.198014 133.147 0.099007 133.345 0.099007 133.543C0 133.84 0 134.039 0 134.236C0 134.534 0.099007 134.732 0.099007 134.93C0.198014 135.128 0.198014 135.326 0.295343 135.524L0.592364 136.118C0.691371 136.316 0.790378 136.415 0.986714 136.613C1.0874 136.714 1.28373 136.91 1.48007 137.011L2.07243 137.308C2.27045 137.407 2.46846 137.506 2.6648 137.506C3.06083 137.605 3.55418 137.605 3.94853 137.506C4.14655 137.405 4.34288 137.405 4.5409 137.308L5.13326 137.011C5.3296 136.91 5.4286 136.811 5.62662 136.613C5.72562 136.514 5.92196 136.316 6.02097 136.118L6.31799 135.524V135.524ZM6.31799 103.646C6.417 103.448 6.417 103.149 6.61333 103.05C6.71234 102.755 6.71234 102.555 6.71234 102.357C6.71234 102.06 6.61333 101.862 6.61333 101.665C6.51432 101.467 6.51432 101.269 6.417 101.069L6.11998 100.477C6.02097 100.279 5.92196 100.178 5.72563 99.98C5.62494 99.8793 5.4286 99.683 5.23227 99.584L4.6399 99.2871C4.44189 99.1864 4.24388 99.0874 4.04754 99.0874C3.75052 98.9901 3.65151 98.9901 3.35617 98.9901C3.06083 98.9901 2.86281 99.0874 2.6648 99.0874C2.46846 99.1881 2.27045 99.1881 2.07243 99.2887L1.48007 99.584C1.28373 99.683 1.18473 99.782 0.986714 99.98C0.831299 100.125 0.698387 100.292 0.592364 100.477L0.295343 101.069C0.198014 101.269 0.099007 101.467 0.099007 101.665C0 101.96 0 102.159 0 102.357C0 102.654 0.099007 102.852 0.099007 103.05C0.198014 103.25 0.198014 103.448 0.295343 103.644L0.592364 104.24C0.691371 104.438 0.790378 104.537 0.986714 104.735C1.0874 104.834 1.28373 105.032 1.48007 105.131L2.07243 105.429C2.27045 105.527 2.46846 105.626 2.6648 105.626C3.06083 105.726 3.55418 105.726 3.94853 105.626C4.14655 105.527 4.34288 105.527 4.5409 105.429L5.13326 105.131C5.3296 105.032 5.4286 104.935 5.62662 104.735C5.72562 104.634 5.92196 104.438 6.02097 104.24C6.12165 104.042 6.21898 103.844 6.31799 103.644V103.646ZM308.967 200.061C308.967 200.259 308.867 200.457 308.867 200.655C308.768 200.952 308.768 201.15 308.768 201.348C308.768 201.645 308.868 201.844 308.868 202.042C308.868 202.24 308.969 202.438 309.07 202.636C309.167 202.834 309.269 203.032 309.368 203.23C309.469 203.428 309.57 203.527 309.769 203.725C309.87 203.826 310.071 204.022 310.271 204.123L310.87 204.42C311.072 204.519 311.273 204.618 311.473 204.618C311.872 204.717 312.374 204.717 312.775 204.618C312.976 204.517 313.174 204.517 313.376 204.42L313.976 204.123C314.178 204.022 314.278 203.923 314.478 203.725C314.579 203.626 314.78 203.428 314.878 203.23L315.18 202.636C315.28 202.438 315.379 202.24 315.379 202.042C315.48 201.745 315.48 201.546 315.48 201.348C315.48 201.051 315.379 200.853 315.379 200.655C315.279 200.457 315.279 200.259 315.178 200.061L314.878 199.467C314.779 199.269 314.676 199.168 314.478 198.97C314.377 198.871 314.176 198.673 313.976 198.574L313.376 198.277C313.174 198.178 312.975 198.079 312.775 198.079C312.474 197.98 312.275 197.98 312.073 197.98C311.773 197.98 311.573 198.079 311.372 198.079C311.171 198.18 310.971 198.18 310.771 198.277L310.169 198.574C309.969 198.675 309.868 198.772 309.669 198.97C309.568 199.071 309.367 199.269 309.269 199.467L308.967 200.061ZM315.086 169.08C315.086 168.882 315.186 168.684 315.383 168.486C315.48 168.189 315.48 167.99 315.48 167.792C315.48 167.495 315.383 167.297 315.383 167.099C315.282 166.901 315.282 166.703 315.185 166.505L314.889 165.911C314.789 165.713 314.691 165.612 314.493 165.414C314.35 165.258 314.183 165.125 314 165.018L313.407 164.721C313.209 164.622 313.011 164.523 312.815 164.523C312.518 164.424 312.322 164.424 312.124 164.424C311.828 164.424 311.63 164.523 311.432 164.523C311.236 164.624 311.038 164.624 310.84 164.721C310.644 164.822 310.446 164.919 310.248 165.018C310.05 165.119 309.952 165.216 309.754 165.414C309.655 165.515 309.459 165.713 309.36 165.911L309.063 166.505C308.966 166.703 308.867 166.901 308.867 167.099C308.768 167.396 308.768 167.594 308.768 167.792C308.768 168.09 308.867 168.288 308.867 168.486C308.867 168.684 308.966 168.882 309.063 169.08L309.36 169.674C309.459 169.872 309.556 169.971 309.754 170.169C309.855 170.27 310.05 170.466 310.248 170.567L310.84 170.864C311.038 170.963 311.236 171.062 311.432 171.062C311.828 171.161 312.322 171.161 312.716 171.062C312.914 170.961 313.112 170.961 313.308 170.864C313.505 170.763 313.705 170.666 313.901 170.567C314.099 170.466 314.198 170.367 314.394 170.169C314.493 170.07 314.691 169.872 314.79 169.674L315.086 169.08V169.08ZM315.086 135.524C315.086 135.326 315.186 135.128 315.383 134.93C315.48 134.633 315.48 134.434 315.48 134.236C315.48 133.939 315.383 133.741 315.383 133.543C315.282 133.345 315.282 133.147 315.185 132.949L314.889 132.355C314.789 132.157 314.691 132.056 314.493 131.858C314.35 131.702 314.183 131.569 314 131.462L313.407 131.165C313.209 131.066 313.011 130.967 312.815 130.967C312.518 130.868 312.322 130.868 312.124 130.868C311.828 130.868 311.63 130.967 311.432 130.967C311.236 131.068 311.038 131.068 310.84 131.165C310.644 131.266 310.446 131.363 310.248 131.462C310.05 131.563 309.952 131.66 309.754 131.858C309.655 131.959 309.459 132.157 309.36 132.355L309.063 132.949C308.966 133.147 308.867 133.345 308.867 133.543C308.768 133.84 308.768 134.038 308.768 134.236C308.768 134.534 308.867 134.732 308.867 134.93C308.867 135.128 308.966 135.326 309.063 135.524L309.36 136.118C309.459 136.316 309.556 136.415 309.754 136.613C309.855 136.714 310.05 136.91 310.248 137.011L310.84 137.308C311.038 137.407 311.236 137.506 311.432 137.506C311.828 137.605 312.322 137.605 312.716 137.506C312.914 137.405 313.112 137.405 313.308 137.308C313.505 137.207 313.705 137.11 313.901 137.011C314.099 136.91 314.198 136.811 314.394 136.613C314.493 136.514 314.691 136.316 314.79 136.118L315.086 135.524ZM315.086 103.646C315.086 103.448 315.186 103.149 315.383 103.05C315.48 102.755 315.48 102.555 315.48 102.357C315.48 102.06 315.383 101.862 315.383 101.665C315.282 101.467 315.282 101.269 315.185 101.069L314.889 100.477C314.789 100.279 314.691 100.178 314.493 99.98C314.35 99.8239 314.183 99.6904 314 99.584L313.407 99.2871C313.209 99.1864 313.011 99.0874 312.815 99.0874C312.592 99.0135 312.358 98.9805 312.124 98.9901C311.828 98.9901 311.63 99.0874 311.432 99.0874C311.236 99.1881 311.038 99.1881 310.84 99.2887L310.248 99.584C310.05 99.683 309.952 99.782 309.754 99.98C309.599 100.125 309.466 100.292 309.36 100.477L309.063 101.069C308.966 101.269 308.867 101.467 308.867 101.665C308.768 101.961 308.768 102.159 308.768 102.357C308.768 102.654 308.867 102.852 308.867 103.05C308.867 103.25 308.966 103.448 309.063 103.644L309.36 104.24C309.459 104.438 309.556 104.537 309.754 104.735C309.855 104.834 310.05 105.032 310.248 105.131L310.84 105.429C311.038 105.527 311.236 105.626 311.432 105.626C311.828 105.726 312.322 105.726 312.716 105.626C312.914 105.527 313.112 105.527 313.308 105.429L313.901 105.131C314.099 105.032 314.198 104.935 314.394 104.735C314.493 104.634 314.691 104.438 314.79 104.24L315.086 103.644V103.646ZM105.719 6.71119C106.609 6.71119 107.463 6.35766 108.093 5.72836C108.722 5.09907 109.076 4.24556 109.076 3.3556C109.076 2.46564 108.722 1.61213 108.093 0.982832C107.463 0.353535 106.609 0 105.719 0C104.829 0 103.976 0.353535 103.346 0.982832C102.717 1.61213 102.363 2.46564 102.363 3.3556C102.363 4.24556 102.717 5.09907 103.346 5.72836C103.976 6.35766 104.829 6.71119 105.719 6.71119ZM143.921 4.65589C144.02 4.45791 144.02 4.25993 144.216 4.06027C144.315 3.76498 144.315 3.56532 144.315 3.36734C144.315 3.07037 144.216 2.87239 144.216 2.67441C144.117 2.47643 144.117 2.27845 144.02 2.08047L143.723 1.48653C143.624 1.28855 143.525 1.18788 143.329 0.989901C143.185 0.834363 143.018 0.700938 142.835 0.593941L142.243 0.298648C142.045 0.19798 141.847 0.0989901 141.65 0.0989901C141.353 0 141.157 0 140.959 0C140.664 0 140.466 0.0989901 140.268 0.0989901C140.071 0.199658 139.873 0.199658 139.675 0.298648L139.083 0.593941C138.887 0.694608 138.788 0.793599 138.59 0.989901C138.435 1.13535 138.302 1.30266 138.195 1.48653L137.898 2.08047C137.801 2.27845 137.702 2.47643 137.702 2.67441C137.603 2.97138 137.603 3.16936 137.603 3.36734C137.603 3.66431 137.702 3.86229 137.702 4.06027C137.702 4.26161 137.801 4.45791 137.898 4.65589L138.195 5.24983C138.294 5.44781 138.393 5.5468 138.59 5.74646C138.69 5.84377 138.887 6.04175 139.083 6.14074L139.675 6.43771C139.873 6.53838 140.071 6.63569 140.268 6.63569C140.664 6.73636 141.157 6.73636 141.551 6.63569C141.749 6.5367 141.946 6.5367 142.144 6.43771L142.736 6.14074C142.933 6.04175 143.032 5.94276 143.23 5.74646C143.329 5.64579 143.525 5.44781 143.624 5.24983L143.921 4.65589V4.65589ZM177.483 4.65589C177.583 4.45791 177.583 4.25993 177.78 4.06027C177.877 3.76498 177.877 3.56532 177.877 3.36734C177.877 3.07037 177.78 2.87239 177.78 2.67441C177.679 2.47643 177.679 2.27845 177.582 2.08047C177.482 1.88316 177.383 1.68518 177.286 1.48653C177.186 1.28855 177.088 1.18788 176.89 0.989901C176.747 0.833923 176.58 0.700443 176.397 0.593941L175.805 0.298648C175.607 0.19798 175.409 0.0989901 175.212 0.0989901C174.915 0 174.717 0 174.521 0C174.224 0 174.027 0.0989901 173.829 0.0989901C173.633 0.199658 173.435 0.199658 173.237 0.298648L172.645 0.593941C172.447 0.694608 172.349 0.793599 172.151 0.989901C171.996 1.13524 171.862 1.30255 171.755 1.48653L171.46 2.08047C171.363 2.27845 171.262 2.47643 171.262 2.67441C171.165 2.97138 171.165 3.16936 171.165 3.36734C171.165 3.66431 171.262 3.86229 171.262 4.06027C171.363 4.26161 171.363 4.45791 171.46 4.65589L171.755 5.24983C171.856 5.44781 171.953 5.5468 172.151 5.74646C172.25 5.84377 172.447 6.04175 172.645 6.14074L173.237 6.43771C173.435 6.53838 173.633 6.63569 173.829 6.63569C174.224 6.73636 174.719 6.73636 175.113 6.63569C175.311 6.5367 175.508 6.5367 175.706 6.43771C175.902 6.33872 176.102 6.24141 176.298 6.14074C176.494 6.04175 176.595 5.94276 176.791 5.74646C176.89 5.64579 177.088 5.44781 177.186 5.24983L177.483 4.65589ZM209.761 6.71119C210.651 6.71119 211.504 6.35766 212.134 5.72836C212.763 5.09907 213.117 4.24556 213.117 3.3556C213.117 2.46564 212.763 1.61213 212.134 0.982832C211.504 0.353535 210.651 0 209.761 0C208.87 0 208.017 0.353535 207.387 0.982832C206.758 1.61213 206.404 2.46564 206.404 3.3556C206.404 4.24556 206.758 5.09907 207.387 5.72836C208.017 6.35766 208.87 6.71119 209.761 6.71119ZM72.1576 234.892C73.0478 234.892 73.9014 234.538 74.5308 233.909C75.1602 233.28 75.5138 232.426 75.5138 231.536C75.5138 230.646 75.1602 229.793 74.5308 229.163C73.9014 228.534 73.0478 228.181 72.1576 228.181C71.2675 228.181 70.4139 228.534 69.7845 229.163C69.1551 229.793 68.8015 230.646 68.8015 231.536C68.8015 232.426 69.1551 233.28 69.7845 233.909C70.4139 234.538 71.2675 234.892 72.1576 234.892ZM36.9179 234.892C37.808 234.892 38.6616 234.538 39.291 233.909C39.9204 233.28 40.274 232.426 40.274 231.536C40.274 230.646 39.9204 229.793 39.291 229.163C38.6616 228.534 37.808 228.181 36.9179 228.181C36.0278 228.181 35.1741 228.534 34.5447 229.163C33.9153 229.793 33.5617 230.646 33.5617 231.536C33.5617 232.426 33.9153 233.28 34.5447 233.909C35.1741 234.538 36.0278 234.892 36.9179 234.892V234.892ZM105.719 234.892C106.609 234.892 107.463 234.538 108.093 233.909C108.722 233.28 109.076 232.426 109.076 231.536C109.076 230.646 108.722 229.793 108.093 229.163C107.463 228.534 106.609 228.181 105.719 228.181C104.829 228.181 103.976 228.534 103.346 229.163C102.717 229.793 102.363 230.646 102.363 231.536C102.363 232.426 102.717 233.28 103.346 233.909C103.976 234.538 104.829 234.892 105.719 234.892ZM143.921 232.836C144.02 232.638 144.02 232.441 144.216 232.243C144.315 231.946 144.315 231.845 144.315 231.548C144.315 231.251 144.216 231.053 144.216 230.855C144.117 230.657 144.117 230.459 144.02 230.261L143.723 229.667C143.624 229.469 143.525 229.368 143.329 229.17C143.185 229.015 143.018 228.882 142.835 228.775L142.243 228.478C142.045 228.379 141.847 228.28 141.65 228.28C141.353 228.181 141.157 228.181 140.959 228.181C140.664 228.181 140.466 228.28 140.268 228.28C140.071 228.38 139.873 228.38 139.675 228.478C139.479 228.578 139.281 228.676 139.083 228.775C138.887 228.875 138.788 228.972 138.59 229.17C138.434 229.316 138.302 229.483 138.195 229.667L137.898 230.261C137.801 230.459 137.702 230.657 137.702 230.855C137.603 231.152 137.603 231.251 137.603 231.548C137.603 231.845 137.702 232.045 137.702 232.243C137.702 232.441 137.801 232.638 137.898 232.836L138.195 233.43C138.294 233.628 138.393 233.727 138.59 233.925C138.69 234.026 138.887 234.222 139.083 234.323L139.675 234.62C139.873 234.719 140.071 234.818 140.268 234.818C140.664 234.917 141.157 234.917 141.551 234.818C141.749 234.717 141.946 234.717 142.144 234.62L142.736 234.323C142.933 234.222 143.032 234.123 143.23 233.925C143.329 233.826 143.525 233.628 143.624 233.43L143.921 232.836V232.836ZM105.719 204.691C106.609 204.691 107.463 204.338 108.093 203.709C108.722 203.079 109.076 202.226 109.076 201.336C109.076 200.446 108.722 199.592 108.093 198.963C107.463 198.334 106.609 197.98 105.719 197.98C104.829 197.98 103.976 198.334 103.346 198.963C102.717 199.592 102.363 200.446 102.363 201.336C102.363 202.226 102.717 203.079 103.346 203.709C103.976 204.338 104.829 204.691 105.719 204.691ZM36.9179 204.691C37.808 204.691 38.6616 204.338 39.291 203.709C39.9204 203.079 40.274 202.226 40.274 201.336C40.274 200.446 39.9204 199.592 39.291 198.963C38.6616 198.334 37.808 197.98 36.9179 197.98C36.0278 197.98 35.1741 198.334 34.5447 198.963C33.9153 199.592 33.5617 200.446 33.5617 201.336C33.5617 202.226 33.9153 203.079 34.5447 203.709C35.1741 204.338 36.0278 204.691 36.9179 204.691V204.691ZM72.1576 204.691C73.0478 204.691 73.9014 204.338 74.5308 203.709C75.1602 203.079 75.5138 202.226 75.5138 201.336C75.5138 200.446 75.1602 199.592 74.5308 198.963C73.9014 198.334 73.0478 197.98 72.1576 197.98C71.2675 197.98 70.4139 198.334 69.7845 198.963C69.1551 199.592 68.8015 200.446 68.8015 201.336C68.8015 202.226 69.1551 203.079 69.7845 203.709C70.4139 204.338 71.2675 204.691 72.1576 204.691ZM143.921 202.636C144.02 202.438 144.02 202.24 144.216 202.042C144.315 201.745 144.315 201.546 144.315 201.348C144.315 201.051 144.216 200.853 144.216 200.655C144.117 200.457 144.117 200.259 144.02 200.061L143.723 199.467C143.624 199.269 143.525 199.168 143.329 198.97C143.185 198.815 143.018 198.681 142.835 198.574L142.243 198.277C142.045 198.178 141.847 198.079 141.65 198.079C141.353 197.98 141.157 197.98 140.959 197.98C140.664 197.98 140.466 198.079 140.268 198.079C140.071 198.18 139.873 198.18 139.675 198.277C139.479 198.378 139.281 198.475 139.083 198.574C138.887 198.675 138.788 198.772 138.59 198.97C138.434 199.115 138.302 199.283 138.195 199.467L137.898 200.061C137.801 200.259 137.702 200.457 137.702 200.655C137.603 200.952 137.603 201.151 137.603 201.348C137.603 201.645 137.702 201.844 137.702 202.042C137.702 202.24 137.801 202.438 137.898 202.636L138.195 203.23C138.294 203.428 138.393 203.527 138.59 203.725C138.69 203.826 138.887 204.022 139.083 204.123L139.675 204.42C139.873 204.519 140.071 204.618 140.268 204.618C140.664 204.717 141.157 204.717 141.551 204.618C141.749 204.517 141.946 204.517 142.144 204.42L142.736 204.123C142.933 204.022 143.032 203.923 143.23 203.725C143.329 203.626 143.525 203.428 143.624 203.23L143.921 202.636V202.636ZM105.719 171.135C106.609 171.135 107.463 170.782 108.093 170.153C108.722 169.523 109.076 168.67 109.076 167.78C109.076 166.89 108.722 166.036 108.093 165.407C107.463 164.778 106.609 164.424 105.719 164.424C104.829 164.424 103.976 164.778 103.346 165.407C102.717 166.036 102.363 166.89 102.363 167.78C102.363 168.67 102.717 169.523 103.346 170.153C103.976 170.782 104.829 171.135 105.719 171.135ZM72.1576 171.135C73.0478 171.135 73.9014 170.782 74.5308 170.153C75.1602 169.523 75.5138 168.67 75.5138 167.78C75.5138 166.89 75.1602 166.036 74.5308 165.407C73.9014 164.778 73.0478 164.424 72.1576 164.424C71.2675 164.424 70.4139 164.778 69.7845 165.407C69.1551 166.036 68.8015 166.89 68.8015 167.78C68.8015 168.67 69.1551 169.523 69.7845 170.153C70.4139 170.782 71.2675 171.135 72.1576 171.135ZM36.9179 171.135C37.808 171.135 38.6616 170.782 39.291 170.153C39.9204 169.523 40.274 168.67 40.274 167.78C40.274 166.89 39.9204 166.036 39.291 165.407C38.6616 164.778 37.808 164.424 36.9179 164.424C36.0278 164.424 35.1741 164.778 34.5447 165.407C33.9153 166.036 33.5617 166.89 33.5617 167.78C33.5617 168.67 33.9153 169.523 34.5447 170.153C35.1741 170.782 36.0278 171.135 36.9179 171.135V171.135ZM143.921 169.08C144.02 168.882 144.02 168.684 144.216 168.486C144.315 168.189 144.315 167.99 144.315 167.792C144.315 167.495 144.216 167.297 144.216 167.099C144.117 166.901 144.117 166.703 144.02 166.505L143.723 165.911C143.624 165.713 143.525 165.612 143.329 165.414C143.185 165.259 143.018 165.125 142.835 165.018L142.243 164.721C142.045 164.622 141.847 164.523 141.65 164.523C141.353 164.424 141.157 164.424 140.959 164.424C140.664 164.424 140.466 164.523 140.268 164.523C140.071 164.624 139.873 164.624 139.675 164.721C139.479 164.822 139.281 164.919 139.083 165.018C138.887 165.119 138.788 165.216 138.59 165.414C138.434 165.559 138.302 165.727 138.195 165.911L137.898 166.505C137.801 166.703 137.702 166.901 137.702 167.099C137.603 167.396 137.603 167.595 137.603 167.792C137.603 168.09 137.702 168.288 137.702 168.486C137.702 168.684 137.801 168.882 137.898 169.08L138.195 169.674C138.294 169.872 138.393 169.971 138.59 170.169C138.69 170.27 138.887 170.466 139.083 170.567L139.675 170.864C139.873 170.963 140.071 171.062 140.268 171.062C140.664 171.161 141.157 171.161 141.551 171.062C141.749 170.961 141.946 170.961 142.144 170.864L142.736 170.567C142.933 170.466 143.032 170.367 143.23 170.169C143.329 170.07 143.525 169.872 143.624 169.674L143.921 169.08V169.08ZM177.483 232.836C177.583 232.638 177.583 232.441 177.78 232.243C177.877 231.946 177.877 231.845 177.877 231.548C177.877 231.251 177.78 231.053 177.78 230.855C177.679 230.657 177.679 230.459 177.582 230.261C177.482 230.064 177.383 229.866 177.286 229.667C177.186 229.469 177.088 229.368 176.89 229.17C176.747 229.014 176.58 228.881 176.397 228.775L175.805 228.478C175.607 228.379 175.409 228.28 175.212 228.28C174.915 228.181 174.717 228.181 174.521 228.181C174.224 228.181 174.027 228.28 173.829 228.28C173.633 228.38 173.435 228.38 173.237 228.478L172.645 228.775C172.447 228.875 172.349 228.972 172.151 229.17C171.996 229.316 171.862 229.483 171.755 229.667L171.46 230.261C171.363 230.459 171.262 230.657 171.262 230.855C171.165 231.152 171.165 231.251 171.165 231.548C171.165 231.845 171.262 232.045 171.262 232.243C171.363 232.441 171.363 232.638 171.46 232.836L171.755 233.43C171.856 233.628 171.953 233.727 172.151 233.925C172.295 234.082 172.461 234.216 172.645 234.323L173.237 234.62C173.435 234.719 173.633 234.818 173.829 234.818C174.224 234.917 174.719 234.917 175.113 234.818C175.311 234.717 175.508 234.717 175.706 234.62L176.298 234.323C176.494 234.222 176.595 234.123 176.791 233.925C176.89 233.826 177.088 233.628 177.186 233.43L177.483 232.836ZM209.761 234.892C210.651 234.892 211.504 234.538 212.134 233.909C212.763 233.28 213.117 232.426 213.117 231.536C213.117 230.646 212.763 229.793 212.134 229.163C211.504 228.534 210.651 228.181 209.761 228.181C208.87 228.181 208.017 228.534 207.387 229.163C206.758 229.793 206.404 230.646 206.404 231.536C206.404 232.426 206.758 233.28 207.387 233.909C208.017 234.538 208.87 234.892 209.761 234.892ZM278.562 234.892C280.438 234.892 281.918 233.412 281.918 231.536C281.918 229.66 280.438 228.181 278.562 228.181C276.686 228.181 275.206 229.66 275.206 231.536C275.206 233.412 276.686 234.892 278.562 234.892ZM243.322 234.892C244.212 234.892 245.066 234.538 245.695 233.909C246.325 233.28 246.678 232.426 246.678 231.536C246.678 230.646 246.325 229.793 245.695 229.163C245.066 228.534 244.212 228.181 243.322 228.181C242.432 228.181 241.579 228.534 240.949 229.163C240.32 229.793 239.966 230.646 239.966 231.536C239.966 232.426 240.32 233.28 240.949 233.909C241.579 234.538 242.432 234.892 243.322 234.892ZM177.483 202.636C177.583 202.438 177.583 202.24 177.78 202.042C177.877 201.745 177.877 201.546 177.877 201.348C177.877 201.051 177.78 200.853 177.78 200.655C177.679 200.457 177.679 200.259 177.582 200.061C177.482 199.863 177.383 199.665 177.286 199.467C177.186 199.269 177.088 199.168 176.89 198.97C176.747 198.814 176.58 198.681 176.397 198.574L175.805 198.277C175.607 198.178 175.409 198.079 175.212 198.079C174.915 197.98 174.717 197.98 174.521 197.98C174.224 197.98 174.027 198.079 173.829 198.079C173.633 198.18 173.435 198.18 173.237 198.277L172.645 198.574C172.447 198.675 172.349 198.772 172.151 198.97C171.996 199.115 171.862 199.283 171.755 199.467L171.46 200.061C171.363 200.259 171.262 200.457 171.262 200.655C171.165 200.952 171.165 201.15 171.165 201.348C171.165 201.645 171.262 201.844 171.262 202.042C171.363 202.24 171.363 202.438 171.46 202.636L171.755 203.23C171.856 203.428 171.953 203.527 172.151 203.725C172.295 203.882 172.461 204.016 172.645 204.123L173.237 204.42C173.435 204.519 173.633 204.618 173.829 204.618C174.224 204.717 174.719 204.717 175.113 204.618C175.311 204.517 175.508 204.517 175.706 204.42L176.298 204.123C176.494 204.022 176.595 203.923 176.791 203.725C176.89 203.626 177.088 203.428 177.186 203.23L177.483 202.636ZM278.562 204.691C280.438 204.691 281.918 203.212 281.918 201.336C281.918 199.46 280.438 197.98 278.562 197.98C276.686 197.98 275.206 199.46 275.206 201.336C275.206 203.212 276.686 204.691 278.562 204.691ZM209.761 204.691C210.651 204.691 211.504 204.338 212.134 203.709C212.763 203.079 213.117 202.226 213.117 201.336C213.117 200.446 212.763 199.592 212.134 198.963C211.504 198.334 210.651 197.98 209.761 197.98C208.87 197.98 208.017 198.334 207.387 198.963C206.758 199.592 206.404 200.446 206.404 201.336C206.404 202.226 206.758 203.079 207.387 203.709C208.017 204.338 208.87 204.691 209.761 204.691ZM243.322 204.691C244.212 204.691 245.066 204.338 245.695 203.709C246.325 203.079 246.678 202.226 246.678 201.336C246.678 200.446 246.325 199.592 245.695 198.963C245.066 198.334 244.212 197.98 243.322 197.98C242.432 197.98 241.579 198.334 240.949 198.963C240.32 199.592 239.966 200.446 239.966 201.336C239.966 202.226 240.32 203.079 240.949 203.709C241.579 204.338 242.432 204.691 243.322 204.691ZM177.483 169.08C177.583 168.882 177.583 168.684 177.78 168.486C177.877 168.189 177.877 167.99 177.877 167.792C177.877 167.495 177.78 167.297 177.78 167.099C177.679 166.901 177.679 166.703 177.582 166.505C177.482 166.307 177.383 166.109 177.286 165.911C177.186 165.713 177.088 165.612 176.89 165.414C176.747 165.258 176.58 165.125 176.397 165.018L175.805 164.721C175.607 164.622 175.409 164.523 175.212 164.523C174.915 164.424 174.717 164.424 174.521 164.424C174.224 164.424 174.027 164.523 173.829 164.523C173.633 164.624 173.435 164.624 173.237 164.721L172.645 165.018C172.447 165.119 172.349 165.216 172.151 165.414C171.996 165.559 171.862 165.727 171.755 165.911L171.46 166.505C171.363 166.703 171.262 166.901 171.262 167.099C171.165 167.396 171.165 167.594 171.165 167.792C171.165 168.09 171.262 168.288 171.262 168.486C171.363 168.684 171.363 168.882 171.46 169.08L171.755 169.674C171.856 169.872 171.953 169.971 172.151 170.169C172.295 170.326 172.461 170.46 172.645 170.567L173.237 170.864C173.435 170.963 173.633 171.062 173.829 171.062C174.224 171.161 174.719 171.161 175.113 171.062C175.311 170.961 175.508 170.961 175.706 170.864L176.298 170.567C176.494 170.466 176.595 170.367 176.791 170.169C176.89 170.07 177.088 169.872 177.186 169.674L177.483 169.08V169.08ZM209.761 171.135C210.651 171.135 211.504 170.782 212.134 170.153C212.763 169.523 213.117 168.67 213.117 167.78C213.117 166.89 212.763 166.036 212.134 165.407C211.504 164.778 210.651 164.424 209.761 164.424C208.87 164.424 208.017 164.778 207.387 165.407C206.758 166.036 206.404 166.89 206.404 167.78C206.404 168.67 206.758 169.523 207.387 170.153C208.017 170.782 208.87 171.135 209.761 171.135ZM243.322 171.135C244.212 171.135 245.066 170.782 245.695 170.153C246.325 169.523 246.678 168.67 246.678 167.78C246.678 166.89 246.325 166.036 245.695 165.407C245.066 164.778 244.212 164.424 243.322 164.424C242.432 164.424 241.579 164.778 240.949 165.407C240.32 166.036 239.966 166.89 239.966 167.78C239.966 168.67 240.32 169.523 240.949 170.153C241.579 170.782 242.432 171.135 243.322 171.135ZM278.562 171.135C280.438 171.135 281.918 169.656 281.918 167.78C281.918 165.904 280.438 164.424 278.562 164.424C276.686 164.424 275.206 165.904 275.206 167.78C275.206 169.656 276.686 171.135 278.562 171.135ZM36.9179 137.579C38.794 137.579 40.274 136.1 40.274 134.224C40.274 132.348 38.794 130.868 36.9179 130.868C35.0418 130.868 33.5617 132.348 33.5617 134.224C33.5617 136.1 35.0418 137.579 36.9179 137.579ZM72.1576 137.579C73.9347 137.579 75.4148 136.1 75.5138 134.224C75.5138 132.348 74.0337 130.868 72.1576 130.868C70.2815 130.868 68.8015 132.348 68.8015 134.224C68.8015 136.1 70.2815 137.579 72.1576 137.579ZM105.719 137.579C107.595 137.579 109.076 136.1 109.076 134.224C109.076 132.348 107.595 130.868 105.719 130.868C103.843 130.868 102.363 132.348 102.363 134.224C102.363 136.1 103.843 137.579 105.719 137.579ZM143.921 135.524C144.02 135.326 144.02 135.128 144.216 134.93C144.315 134.633 144.315 134.434 144.315 134.236C144.315 133.939 144.216 133.741 144.216 133.543C144.117 133.345 144.117 133.147 144.02 132.949L143.723 132.355C143.624 132.157 143.525 132.056 143.329 131.858C143.185 131.703 143.018 131.569 142.835 131.462L142.243 131.165C142.045 131.066 141.847 130.967 141.65 130.967C141.353 130.868 141.157 130.868 140.959 130.868C140.664 130.868 140.466 130.967 140.268 130.967C140.071 131.068 139.873 131.068 139.675 131.165C139.479 131.266 139.281 131.363 139.083 131.462C138.887 131.563 138.788 131.66 138.59 131.858C138.434 132.003 138.302 132.171 138.195 132.355L137.898 132.949C137.801 133.147 137.702 133.345 137.702 133.543C137.603 133.84 137.603 134.039 137.603 134.236C137.603 134.534 137.702 134.732 137.702 134.93C137.702 135.128 137.801 135.326 137.898 135.524L138.195 136.118C138.294 136.316 138.393 136.415 138.59 136.613C138.69 136.714 138.887 136.91 139.083 137.011L139.675 137.308C139.873 137.407 140.071 137.506 140.268 137.506C140.664 137.605 141.157 137.605 141.551 137.506C141.749 137.405 141.946 137.405 142.144 137.308L142.736 137.011C142.933 136.91 143.032 136.811 143.23 136.613C143.329 136.514 143.525 136.316 143.624 136.118L143.921 135.524V135.524ZM36.9179 105.701C37.808 105.701 38.6616 105.348 39.291 104.718C39.9204 104.089 40.274 103.236 40.274 102.346C40.274 101.456 39.9204 100.602 39.291 99.9729C38.6616 99.3436 37.808 98.9901 36.9179 98.9901C36.0278 98.9901 35.1741 99.3436 34.5447 99.9729C33.9153 100.602 33.5617 101.456 33.5617 102.346C33.5617 103.236 33.9153 104.089 34.5447 104.718C35.1741 105.348 36.0278 105.701 36.9179 105.701V105.701ZM105.719 105.701C106.609 105.701 107.463 105.348 108.093 104.718C108.722 104.089 109.076 103.236 109.076 102.346C109.076 101.456 108.722 100.602 108.093 99.9729C107.463 99.3436 106.609 98.9901 105.719 98.9901C104.829 98.9901 103.976 99.3436 103.346 99.9729C102.717 100.602 102.363 101.456 102.363 102.346C102.363 103.236 102.717 104.089 103.346 104.718C103.976 105.348 104.829 105.701 105.719 105.701ZM72.1576 105.701C73.0478 105.701 73.9014 105.348 74.5308 104.718C75.1602 104.089 75.5138 103.236 75.5138 102.346C75.5138 101.456 75.1602 100.602 74.5308 99.9729C73.9014 99.3436 73.0478 98.9901 72.1576 98.9901C71.2675 98.9901 70.4139 99.3436 69.7845 99.9729C69.1551 100.602 68.8015 101.456 68.8015 102.346C68.8015 103.236 69.1551 104.089 69.7845 104.718C70.4139 105.348 71.2675 105.701 72.1576 105.701ZM143.921 103.644C144.02 103.448 144.02 103.149 144.216 103.05C144.315 102.755 144.315 102.555 144.315 102.357C144.315 102.06 144.216 101.862 144.216 101.665C144.117 101.467 144.117 101.269 144.02 101.069L143.723 100.477C143.624 100.279 143.525 100.178 143.329 99.98C143.228 99.8793 143.032 99.683 142.835 99.584L142.243 99.2871C142.045 99.1864 141.847 99.0874 141.65 99.0874C141.353 98.9901 141.157 98.9901 140.959 98.9901C140.664 98.9901 140.466 99.0874 140.268 99.0874C140.071 99.1881 139.873 99.1881 139.675 99.2887L139.083 99.584C138.887 99.683 138.788 99.782 138.59 99.98C138.434 100.125 138.301 100.292 138.195 100.477L137.898 101.069C137.801 101.269 137.702 101.467 137.702 101.665C137.603 101.961 137.603 102.159 137.603 102.357C137.603 102.654 137.702 102.852 137.702 103.05C137.702 103.25 137.801 103.448 137.898 103.644L138.195 104.24C138.294 104.438 138.393 104.537 138.59 104.735C138.69 104.834 138.887 105.032 139.083 105.131L139.675 105.429C139.873 105.527 140.071 105.626 140.268 105.626C140.664 105.726 141.157 105.726 141.551 105.626C141.749 105.527 141.946 105.527 142.144 105.429L142.736 105.131C142.933 105.032 143.032 104.935 143.23 104.735C143.329 104.634 143.525 104.438 143.624 104.24C143.725 104.042 143.822 103.844 143.921 103.644V103.644ZM105.719 73.8231C106.609 73.8231 107.463 73.4696 108.093 72.8403C108.722 72.211 109.076 71.3575 109.076 70.4675C109.076 69.5776 108.722 68.7241 108.093 68.0948C107.463 67.4655 106.609 67.1119 105.719 67.1119C104.829 67.1119 103.976 67.4655 103.346 68.0948C102.717 68.7241 102.363 69.5776 102.363 70.4675C102.363 71.3575 102.717 72.211 103.346 72.8403C103.976 73.4696 104.829 73.8231 105.719 73.8231ZM36.9179 73.8231C37.808 73.8231 38.6616 73.4696 39.291 72.8403C39.9204 72.211 40.274 71.3575 40.274 70.4675C40.274 69.5776 39.9204 68.7241 39.291 68.0948C38.6616 67.4655 37.808 67.1119 36.9179 67.1119C36.0278 67.1119 35.1741 67.4655 34.5447 68.0948C33.9153 68.7241 33.5617 69.5776 33.5617 70.4675C33.5617 71.3575 33.9153 72.211 34.5447 72.8403C35.1741 73.4696 36.0278 73.8231 36.9179 73.8231V73.8231ZM72.1576 73.8231C73.0478 73.8231 73.9014 73.4696 74.5308 72.8403C75.1602 72.211 75.5138 71.3575 75.5138 70.4675C75.5138 69.5776 75.1602 68.7241 74.5308 68.0948C73.9014 67.4655 73.0478 67.1119 72.1576 67.1119C71.2675 67.1119 70.4139 67.4655 69.7845 68.0948C69.1551 68.7241 68.8015 69.5776 68.8015 70.4675C68.8015 71.3575 69.1551 72.211 69.7845 72.8403C70.4139 73.4696 71.2675 73.8231 72.1576 73.8231ZM143.921 71.7661C144.02 71.5698 144.02 71.3719 144.216 71.1722C144.315 70.8769 144.315 70.6773 144.315 70.4793C144.315 70.1823 144.216 69.9843 144.216 69.7863C144.117 69.5884 144.117 69.3904 144.02 69.1907L143.723 68.5985C143.624 68.4005 143.525 68.2998 143.329 68.1018C143.228 68.0012 143.032 67.8049 142.835 67.7059L142.243 67.4089C142.045 67.3082 141.847 67.2092 141.65 67.2092C141.353 67.1119 141.157 67.1119 140.959 67.1119C140.664 67.1119 140.466 67.2092 140.268 67.2092C140.071 67.3099 139.873 67.3099 139.675 67.4106L139.083 67.7059C138.887 67.8049 138.788 67.9039 138.59 68.1018C138.434 68.2469 138.301 68.4142 138.195 68.5985L137.898 69.1907C137.801 69.3904 137.702 69.5884 137.702 69.7863C137.603 70.0833 137.603 70.2813 137.603 70.4793C137.603 70.7762 137.702 70.9742 137.702 71.1722C137.702 71.3719 137.801 71.5698 137.898 71.7661L138.195 72.3618C138.294 72.5597 138.393 72.6587 138.59 72.8567C138.69 72.9557 138.887 73.1537 139.083 73.2527L139.675 73.5513C139.873 73.6486 140.071 73.7476 140.268 73.7476C140.664 73.8483 141.157 73.8483 141.551 73.7476C141.749 73.6486 141.946 73.6486 142.144 73.5513L142.736 73.2527C142.933 73.1537 143.032 73.0564 143.23 72.8567C143.329 72.756 143.525 72.5597 143.624 72.3618C143.725 72.1638 143.822 71.9658 143.921 71.7661V71.7661ZM177.483 135.522C177.583 135.326 177.583 135.128 177.78 134.93C177.877 134.633 177.877 134.434 177.877 134.236C177.877 133.939 177.78 133.741 177.78 133.543C177.679 133.345 177.679 133.147 177.582 132.949C177.482 132.751 177.383 132.553 177.286 132.355C177.186 132.157 177.088 132.056 176.89 131.858C176.747 131.702 176.58 131.569 176.397 131.462L175.805 131.165C175.607 131.066 175.409 130.967 175.212 130.967C174.915 130.868 174.717 130.868 174.521 130.868C174.224 130.868 174.027 130.967 173.829 130.967C173.633 131.068 173.435 131.068 173.237 131.165L172.645 131.462C172.447 131.563 172.349 131.66 172.151 131.858C171.996 132.003 171.862 132.171 171.755 132.355L171.46 132.949C171.363 133.147 171.262 133.345 171.262 133.543C171.165 133.84 171.165 134.038 171.165 134.236C171.165 134.534 171.262 134.732 171.262 134.93C171.363 135.128 171.363 135.326 171.46 135.524L171.755 136.118C171.856 136.316 171.953 136.415 172.151 136.613C172.295 136.77 172.461 136.904 172.645 137.011L173.237 137.308C173.435 137.407 173.633 137.506 173.829 137.506C174.224 137.605 174.719 137.605 175.113 137.506C175.311 137.405 175.508 137.405 175.706 137.308C175.902 137.207 176.102 137.11 176.298 137.011C176.494 136.91 176.595 136.811 176.791 136.613C176.89 136.514 177.088 136.316 177.186 136.118L177.483 135.524V135.522ZM278.562 137.579C280.438 137.579 281.918 136.1 281.918 134.224C281.918 132.348 280.438 130.868 278.562 130.868C276.686 130.868 275.206 132.348 275.206 134.224C275.206 136.1 276.686 137.579 278.562 137.579ZM243.322 137.579C245.099 137.579 246.579 136.1 246.678 134.224C246.678 132.348 245.198 130.868 243.322 130.868C241.446 130.868 239.966 132.348 239.966 134.224C239.966 136.1 241.446 137.579 243.322 137.579ZM209.761 137.579C211.637 137.579 213.117 136.1 213.117 134.224C213.117 132.348 211.637 130.868 209.761 130.868C207.884 130.868 206.404 132.348 206.404 134.224C206.404 136.1 207.884 137.579 209.761 137.579ZM177.483 103.644C177.583 103.448 177.583 103.149 177.78 103.05C177.877 102.755 177.877 102.555 177.877 102.357C177.877 102.06 177.78 101.862 177.78 101.665C177.679 101.467 177.679 101.269 177.582 101.069C177.481 100.871 177.384 100.673 177.286 100.477C177.186 100.279 177.088 100.178 176.89 99.98C176.747 99.8239 176.58 99.6904 176.397 99.584L175.805 99.2871C175.607 99.1864 175.409 99.0874 175.212 99.0874C174.915 98.9901 174.717 98.9901 174.521 98.9901C174.224 98.9901 174.027 99.0874 173.829 99.0874C173.633 99.1881 173.435 99.1881 173.237 99.2887L172.645 99.584C172.447 99.683 172.349 99.782 172.151 99.98C171.995 100.125 171.862 100.292 171.755 100.477L171.46 101.069C171.363 101.269 171.262 101.467 171.262 101.665C171.165 101.961 171.165 102.159 171.165 102.357C171.165 102.654 171.262 102.852 171.262 103.05C171.363 103.25 171.363 103.448 171.46 103.644L171.755 104.24C171.856 104.438 171.953 104.537 172.151 104.735C172.25 104.834 172.447 105.032 172.645 105.131L173.237 105.429C173.435 105.527 173.633 105.626 173.829 105.626C174.224 105.726 174.719 105.726 175.113 105.626C175.311 105.527 175.508 105.527 175.706 105.429L176.298 105.131C176.494 105.032 176.595 104.935 176.791 104.735C176.89 104.634 177.088 104.438 177.186 104.24C177.286 104.042 177.384 103.844 177.483 103.644V103.644ZM278.562 105.701C280.438 105.701 281.918 104.221 281.918 102.346C281.918 100.47 280.438 98.9901 278.562 98.9901C276.686 98.9901 275.206 100.47 275.206 102.346C275.206 104.221 276.686 105.701 278.562 105.701ZM243.322 105.701C244.212 105.701 245.066 105.348 245.695 104.718C246.325 104.089 246.678 103.236 246.678 102.346C246.678 101.456 246.325 100.602 245.695 99.9729C245.066 99.3436 244.212 98.9901 243.322 98.9901C242.432 98.9901 241.579 99.3436 240.949 99.9729C240.32 100.602 239.966 101.456 239.966 102.346C239.966 103.236 240.32 104.089 240.949 104.718C241.579 105.348 242.432 105.701 243.322 105.701ZM209.761 105.701C210.651 105.701 211.504 105.348 212.134 104.718C212.763 104.089 213.117 103.236 213.117 102.346C213.117 101.456 212.763 100.602 212.134 99.9729C211.504 99.3436 210.651 98.9901 209.761 98.9901C208.87 98.9901 208.017 99.3436 207.387 99.9729C206.758 100.602 206.404 101.456 206.404 102.346C206.404 103.236 206.758 104.089 207.387 104.718C208.017 105.348 208.87 105.701 209.761 105.701ZM177.483 71.7661C177.583 71.5698 177.583 71.3719 177.78 71.1722C177.877 70.8769 177.877 70.6773 177.877 70.4793C177.877 70.1823 177.78 69.9843 177.78 69.7863C177.679 69.5884 177.679 69.3904 177.582 69.1907C177.481 68.9927 177.384 68.7948 177.286 68.5985C177.186 68.4005 177.088 68.2998 176.89 68.1018C176.747 67.9457 176.58 67.8122 176.397 67.7059L175.805 67.4089C175.607 67.3082 175.409 67.2092 175.212 67.2092C174.915 67.1119 174.717 67.1119 174.521 67.1119C174.224 67.1119 174.027 67.2092 173.829 67.2092C173.633 67.3099 173.435 67.3099 173.237 67.4106L172.645 67.7059C172.447 67.8049 172.349 67.9039 172.151 68.1018C171.995 68.2467 171.862 68.4141 171.755 68.5985L171.46 69.1907C171.363 69.3904 171.262 69.5884 171.262 69.7863C171.165 70.0833 171.165 70.2813 171.165 70.4793C171.165 70.7762 171.262 70.9742 171.262 71.1722C171.363 71.3719 171.363 71.5698 171.46 71.7661L171.755 72.3618C171.856 72.5597 171.953 72.6587 172.151 72.8567C172.25 72.9557 172.447 73.1537 172.645 73.2527L173.237 73.5513C173.435 73.6486 173.633 73.7476 173.829 73.7476C174.224 73.8483 174.719 73.8483 175.113 73.7476C175.311 73.6486 175.508 73.6486 175.706 73.5513L176.298 73.2527C176.494 73.1537 176.595 73.0564 176.791 72.8567C176.89 72.756 177.088 72.5597 177.186 72.3618C177.286 72.1638 177.384 71.9658 177.483 71.7661V71.7661ZM278.562 73.8231C280.438 73.8231 281.918 72.3433 281.918 70.4675C281.918 68.5917 280.438 67.1119 278.562 67.1119C276.686 67.1119 275.206 68.5917 275.206 70.4675C275.206 72.3433 276.686 73.8231 278.562 73.8231ZM243.322 73.8231C244.212 73.8231 245.066 73.4696 245.695 72.8403C246.325 72.211 246.678 71.3575 246.678 70.4675C246.678 69.5776 246.325 68.7241 245.695 68.0948C245.066 67.4655 244.212 67.1119 243.322 67.1119C242.432 67.1119 241.579 67.4655 240.949 68.0948C240.32 68.7241 239.966 69.5776 239.966 70.4675C239.966 71.3575 240.32 72.211 240.949 72.8403C241.579 73.4696 242.432 73.8231 243.322 73.8231ZM209.761 73.8231C210.651 73.8231 211.504 73.4696 212.134 72.8403C212.763 72.211 213.117 71.3575 213.117 70.4675C213.117 69.5776 212.763 68.7241 212.134 68.0948C211.504 67.4655 210.651 67.1119 209.761 67.1119C208.87 67.1119 208.017 67.4655 207.387 68.0948C206.758 68.7241 206.404 69.5776 206.404 70.4675C206.404 71.3575 206.758 72.211 207.387 72.8403C208.017 73.4696 208.87 73.8231 209.761 73.8231ZM105.719 266.77C106.609 266.77 107.463 266.416 108.093 265.787C108.722 265.158 109.076 264.304 109.076 263.414C109.076 262.524 108.722 261.671 108.093 261.042C107.463 260.412 106.609 260.059 105.719 260.059C104.829 260.059 103.976 260.412 103.346 261.042C102.717 261.671 102.363 262.524 102.363 263.414C102.363 264.304 102.717 265.158 103.346 265.787C103.976 266.416 104.829 266.77 105.719 266.77ZM72.1576 266.77C73.0478 266.77 73.9014 266.416 74.5308 265.787C75.1602 265.158 75.5138 264.304 75.5138 263.414C75.5138 262.524 75.1602 261.671 74.5308 261.042C73.9014 260.412 73.0478 260.059 72.1576 260.059C71.2675 260.059 70.4139 260.412 69.7845 261.042C69.1551 261.671 68.8015 262.524 68.8015 263.414C68.8015 264.304 69.1551 265.158 69.7845 265.787C70.4139 266.416 71.2675 266.77 72.1576 266.77ZM143.921 264.715C144.02 264.517 144.02 264.319 144.216 264.121C144.315 263.824 144.315 263.723 144.315 263.426C144.315 263.129 144.216 262.931 144.216 262.733C144.117 262.535 144.117 262.337 144.02 262.139L143.723 261.545C143.624 261.347 143.525 261.247 143.329 261.049C143.185 260.893 143.018 260.76 142.835 260.653L142.243 260.356C142.045 260.257 141.847 260.158 141.65 260.158C141.353 260.059 141.157 260.059 140.959 260.059C140.664 260.059 140.466 260.158 140.268 260.158C140.071 260.258 139.873 260.258 139.675 260.356C139.479 260.456 139.281 260.554 139.083 260.653C138.887 260.753 138.788 260.851 138.59 261.049C138.434 261.194 138.302 261.361 138.195 261.545L137.898 262.139C137.801 262.337 137.702 262.535 137.702 262.733C137.603 263.03 137.603 263.129 137.603 263.426C137.603 263.723 137.702 263.923 137.702 264.121C137.702 264.319 137.801 264.517 137.898 264.715L138.195 265.309C138.294 265.507 138.393 265.606 138.59 265.804C138.69 265.904 138.887 266.1 139.083 266.201L139.675 266.498C139.873 266.597 140.071 266.696 140.268 266.696C140.664 266.795 141.157 266.795 141.551 266.696C141.749 266.595 141.946 266.595 142.144 266.498L142.736 266.201C142.933 266.1 143.032 266.001 143.23 265.804C143.329 265.705 143.525 265.507 143.624 265.309L143.921 264.715V264.715ZM105.719 300.326C106.609 300.326 107.463 299.972 108.093 299.343C108.722 298.714 109.076 297.86 109.076 296.97C109.076 296.08 108.722 295.227 108.093 294.598C107.463 293.968 106.609 293.615 105.719 293.615C104.829 293.615 103.976 293.968 103.346 294.598C102.717 295.227 102.363 296.08 102.363 296.97C102.363 297.86 102.717 298.714 103.346 299.343C103.976 299.972 104.829 300.326 105.719 300.326ZM143.921 298.271C144.02 298.073 144.02 297.875 144.216 297.677C144.315 297.38 144.315 297.18 144.315 296.982C144.315 296.685 144.216 296.487 144.216 296.289C144.117 296.091 144.117 295.893 144.02 295.695L143.723 295.101C143.624 294.903 143.525 294.803 143.329 294.605C143.185 294.449 143.018 294.316 142.835 294.209L142.243 293.912C142.045 293.813 141.847 293.714 141.65 293.714C141.353 293.615 141.157 293.615 140.959 293.615C140.664 293.615 140.466 293.714 140.268 293.714C140.071 293.814 139.873 293.814 139.675 293.912C139.479 294.012 139.281 294.11 139.083 294.209C138.887 294.309 138.788 294.407 138.59 294.605C138.434 294.75 138.302 294.917 138.195 295.101L137.898 295.695C137.801 295.893 137.702 296.091 137.702 296.289C137.603 296.586 137.603 296.786 137.603 296.982C137.603 297.281 137.702 297.479 137.702 297.677C137.702 297.875 137.801 298.073 137.898 298.271L138.195 298.865C138.294 299.063 138.393 299.161 138.59 299.359C138.69 299.46 138.887 299.656 139.083 299.757L139.675 300.054C139.873 300.153 140.071 300.252 140.268 300.252C140.664 300.351 141.157 300.351 141.551 300.252C141.749 300.151 141.946 300.151 142.144 300.054L142.736 299.757C142.933 299.656 143.032 299.557 143.23 299.359C143.329 299.26 143.525 299.063 143.624 298.865L143.921 298.271V298.271ZM105.719 40.2672C106.609 40.2672 107.463 39.9136 108.093 39.2843C108.722 38.655 109.076 37.8015 109.076 36.9116C109.076 36.0216 108.722 35.1681 108.093 34.5388C107.463 33.9095 106.609 33.556 105.719 33.556C104.829 33.556 103.976 33.9095 103.346 34.5388C102.717 35.1681 102.363 36.0216 102.363 36.9116C102.363 37.8015 102.717 38.655 103.346 39.2843C103.976 39.9136 104.829 40.2672 105.719 40.2672ZM72.1576 40.2672C73.0478 40.2672 73.9014 39.9136 74.5308 39.2843C75.1602 38.655 75.5138 37.8015 75.5138 36.9116C75.5138 36.0216 75.1602 35.1681 74.5308 34.5388C73.9014 33.9095 73.0478 33.556 72.1576 33.556C71.2675 33.556 70.4139 33.9095 69.7845 34.5388C69.1551 35.1681 68.8015 36.0216 68.8015 36.9116C68.8015 37.8015 69.1551 38.655 69.7845 39.2843C70.4139 39.9136 71.2675 40.2672 72.1576 40.2672ZM143.921 38.2102C144.02 38.0139 144.02 37.8159 144.216 37.6162C144.315 37.3209 144.315 37.2203 144.315 36.9233C144.315 36.6263 144.216 36.4284 144.216 36.2304C144.117 36.0324 144.117 35.8344 144.02 35.6348L143.723 35.0425C143.624 34.8445 143.525 34.7438 143.329 34.5459C143.228 34.4452 143.032 34.2489 142.835 34.1499L142.243 33.8529C142.045 33.7523 141.847 33.6533 141.65 33.6533C141.353 33.556 141.157 33.556 140.959 33.556C140.664 33.556 140.466 33.6533 140.268 33.6533C140.071 33.7539 139.873 33.7539 139.675 33.8546L139.083 34.1499C138.887 34.2489 138.788 34.3479 138.59 34.5459C138.434 34.6909 138.301 34.8583 138.195 35.0425L137.898 35.6348C137.801 35.8344 137.702 36.0324 137.702 36.2304C137.603 36.5273 137.603 36.6263 137.603 36.9233C137.603 37.2203 137.702 37.4183 137.702 37.6162C137.702 37.8159 137.801 38.0139 137.898 38.2102L138.195 38.8058C138.294 39.0038 138.393 39.1028 138.59 39.3007C138.69 39.3997 138.887 39.5977 139.083 39.6967L139.675 39.9954C139.873 40.0927 140.071 40.1917 140.268 40.1917C140.664 40.2923 141.157 40.2923 141.551 40.1917C141.749 40.0927 141.946 40.0927 142.144 39.9954L142.736 39.6967C142.933 39.5977 143.032 39.5004 143.23 39.3007C143.329 39.2001 143.525 39.0038 143.624 38.8058C143.725 38.6078 143.822 38.4098 143.921 38.2102V38.2102ZM177.483 38.2102C177.583 38.0139 177.583 37.8159 177.78 37.6162C177.877 37.3209 177.877 37.2203 177.877 36.9233C177.877 36.6263 177.78 36.4284 177.78 36.2304C177.679 36.0324 177.679 35.8344 177.582 35.6348C177.481 35.4368 177.384 35.2388 177.286 35.0425C177.186 34.8445 177.088 34.7438 176.89 34.5459C176.747 34.3898 176.58 34.2563 176.397 34.1499L175.805 33.8529C175.607 33.7523 175.409 33.6533 175.212 33.6533C174.915 33.556 174.717 33.556 174.521 33.556C174.224 33.556 174.027 33.6533 173.829 33.6533C173.633 33.7539 173.435 33.7539 173.237 33.8546L172.645 34.1499C172.447 34.2489 172.349 34.3479 172.151 34.5459C171.995 34.6908 171.862 34.8582 171.755 35.0425L171.46 35.6348C171.363 35.8344 171.262 36.0324 171.262 36.2304C171.165 36.5273 171.165 36.6263 171.165 36.9233C171.165 37.2203 171.262 37.4183 171.262 37.6162C171.363 37.8159 171.363 38.0139 171.46 38.2102L171.755 38.8058C171.856 39.0038 171.953 39.1028 172.151 39.3007C172.25 39.3997 172.447 39.5977 172.645 39.6967L173.237 39.9954C173.435 40.0927 173.633 40.1917 173.829 40.1917C174.224 40.2923 174.719 40.2923 175.113 40.1917C175.311 40.0927 175.508 40.0927 175.706 39.9954L176.298 39.6967C176.494 39.5977 176.595 39.5004 176.791 39.3007C176.89 39.2001 177.088 39.0038 177.186 38.8058C177.286 38.6078 177.384 38.4098 177.483 38.2102ZM243.322 40.2672C244.212 40.2672 245.066 39.9136 245.695 39.2843C246.325 38.655 246.678 37.8015 246.678 36.9116C246.678 36.0216 246.325 35.1681 245.695 34.5388C245.066 33.9095 244.212 33.556 243.322 33.556C242.432 33.556 241.579 33.9095 240.949 34.5388C240.32 35.1681 239.966 36.0216 239.966 36.9116C239.966 37.8015 240.32 38.655 240.949 39.2843C241.579 39.9136 242.432 40.2672 243.322 40.2672ZM209.761 40.2672C210.651 40.2672 211.504 39.9136 212.134 39.2843C212.763 38.655 213.117 37.8015 213.117 36.9116C213.117 36.0216 212.763 35.1681 212.134 34.5388C211.504 33.9095 210.651 33.556 209.761 33.556C208.87 33.556 208.017 33.9095 207.387 34.5388C206.758 35.1681 206.404 36.0216 206.404 36.9116C206.404 37.8015 206.758 38.655 207.387 39.2843C208.017 39.9136 208.87 40.2672 209.761 40.2672Z" fill="#28355E"/></g><defs><clipPath id="clip0"><rect width="315.48" height="300.326" fill="white"/></clipPath></defs></svg>