<svg width="684" height="481" viewBox="0 0 684 481" fill="none" xmlns="http://www.w3.org/2000/svg">
<g clip-path="url(#clip0)">
<path opacity="0.5" d="M314.496 126.625L316.229 115.23L586.233 156.199L584.499 167.593L314.496 126.625Z" fill="#F5F5F5"/>
<g opacity="0.5" filter="url(#filter0_d)">
<path d="M286.563 323.44C285.471 323.274 284.72 322.254 284.886 321.162L314.188 128.598C314.354 127.507 315.373 126.756 316.465 126.922L582.514 167.29C583.606 167.456 584.358 168.476 584.191 169.568L554.889 362.132C554.723 363.223 553.704 363.974 552.612 363.808L286.563 323.44Z" fill="white"/>
</g>
<path d="M324.745 122.35C324.979 120.812 323.92 119.375 322.379 119.141C320.838 118.907 319.4 119.965 319.166 121.503C318.931 123.042 319.991 124.478 321.531 124.712C323.072 124.946 324.511 123.888 324.745 122.35Z" fill="#FF5252"/>
<path d="M332.415 123.51C332.649 121.972 331.59 120.535 330.049 120.302C328.509 120.068 327.07 121.126 326.836 122.664C326.602 124.202 327.661 125.639 329.202 125.873C330.742 126.106 332.181 125.049 332.415 123.51Z" fill="#FFFF00"/>
<path d="M340.085 124.677C340.319 123.138 339.26 121.702 337.72 121.468C336.179 121.234 334.74 122.292 334.506 123.83C334.272 125.369 335.331 126.805 336.872 127.039C338.412 127.273 339.851 126.215 340.085 124.677Z" fill="#69F0AE"/>
<path opacity="0.5" d="M312.395 217.123L323.23 145.92L565.666 182.705L554.831 253.908L312.395 217.123Z" fill="url(#paint0_linear)"/>
<path opacity="0.5" d="M325.663 149.2L562.87 185.192L552.83 251.173L315.623 215.182L325.663 149.2Z" fill="#006DF6"/>
<path d="M347.468 264.689L349.563 250.922L365.726 253.374L363.631 267.142L347.468 264.689Z" fill="url(#paint1_linear)"/>
<path d="M350.148 251.981L365.359 254.289L363.625 265.684L348.414 263.376L350.148 251.981Z" fill="#006DF6"/>
<path d="M347.178 271.444L362.389 273.752L360.655 285.146L345.444 282.838L347.178 271.444Z" fill="#FF5252"/>
<path d="M344.22 290.908L359.431 293.215L357.697 304.61L342.486 302.302L344.22 290.908Z" fill="#FF9800"/>
<path opacity="0.5" d="M390.189 260.485L512.83 279.094L511.82 285.737L389.178 267.128L390.189 260.485ZM387.225 279.948L509.867 298.558L508.856 305.2L386.215 286.592L387.225 279.948ZM384.267 299.412L506.909 318.021L505.898 324.664L383.257 306.054L384.267 299.412Z" fill="#006DF6"/>
<path opacity="0.8" d="M79.3206 155.474L363.088 92.1353L365.565 103.202L81.7978 166.54L79.3206 155.474Z" fill="#F5F5F5"/>
<g opacity="0.8" filter="url(#filter1_d)">
<path d="M81.7954 166.547L365.563 103.208L408.293 294.099L124.526 357.438L81.7954 166.547Z" fill="white"/>
</g>
<path opacity="0.8" d="M88.0919 162.164C89.7096 161.803 90.7501 160.3 90.4157 158.806C90.0814 157.312 88.4989 156.394 86.8811 156.755C85.2634 157.117 84.2229 158.62 84.5573 160.114C84.8916 161.607 86.4741 162.525 88.0919 162.164Z" fill="#FF5252"/>
<path opacity="0.8" d="M96.1556 160.37C97.7734 160.009 98.8138 158.505 98.4795 157.012C98.1451 155.518 96.5626 154.6 94.9449 154.961C93.3271 155.322 92.2867 156.826 92.621 158.319C92.9553 159.813 94.5378 160.731 96.1556 160.37Z" fill="#FFFF00"/>
<path opacity="0.8" d="M104.213 158.571C105.831 158.21 106.871 156.706 106.537 155.213C106.203 153.719 104.62 152.801 103.002 153.162C101.385 153.523 100.344 155.027 100.679 156.52C101.013 158.014 102.595 158.932 104.213 158.571Z" fill="#69F0AE"/>
<path opacity="0.8" d="M97.6038 180.93L352.396 124.059L367.878 193.224L113.086 250.096L97.6038 180.93Z" fill="url(#paint2_linear)"/>
<path opacity="0.8" d="M101.223 183.025L350.519 127.381L364.865 191.471L115.569 247.116L101.223 183.025Z" fill="#006DF6"/>
<path opacity="0.8" d="M162.543 267.132L179.529 263.34L182.522 276.709L165.536 280.501L162.543 267.132Z" fill="url(#paint3_linear)"/>
<path opacity="0.8" d="M164.767 268.733L180.822 265.134L183.321 276.247L167.265 279.846L164.767 268.733Z" fill="#006DF6"/>
<path opacity="0.8" d="M167.731 286.791L183.719 283.222L186.197 294.289L170.208 297.857L167.731 286.791Z" fill="#006DF6"/>
<path d="M173.34 306.682L189.396 303.083L191.894 314.195L175.838 317.794L173.34 306.682Z" fill="#FF9800"/>
<path opacity="0.4" d="M206.477 260.711L335.369 231.941L336.814 238.397L207.922 267.166L206.477 260.711ZM210.708 279.618L339.599 250.849L341.045 257.305L212.153 286.074L210.708 279.618ZM214.939 298.52L343.831 269.751L345.276 276.206L216.384 304.976L214.939 298.52Z" fill="#006DF6"/>
<path d="M171.737 97.7135H501.497V111.627H171.737V97.7135Z" fill="#F5F5F5"/>
<g filter="url(#filter2_d)">
<path d="M171.737 113.627C171.737 112.522 172.632 111.627 173.737 111.627H499.497C500.602 111.627 501.497 112.522 501.497 113.627V349.636C501.497 350.741 500.602 351.636 499.497 351.636H173.737C172.632 351.636 171.737 350.741 171.737 349.636V113.627Z" fill="white"/>
</g>
<path d="M179.789 108.073C181.671 108.073 183.197 106.55 183.197 104.67C183.197 102.791 181.671 101.267 179.789 101.267C177.907 101.267 176.381 102.791 176.381 104.67C176.381 106.55 177.907 108.073 179.789 108.073Z" fill="#FF5252"/>
<path d="M189.154 108.073C191.036 108.073 192.561 106.55 192.561 104.67C192.561 102.791 191.036 101.267 189.154 101.267C187.271 101.267 185.746 102.791 185.746 104.67C185.746 106.55 187.271 108.073 189.154 108.073Z" fill="#FFFF00"/>
<path d="M198.518 108.073C200.4 108.073 201.926 106.55 201.926 104.67C201.926 102.791 200.4 101.267 198.518 101.267C196.636 101.267 195.11 102.791 195.11 104.67C195.11 106.55 196.636 108.073 198.518 108.073Z" fill="#69F0AE"/>
<path d="M185.67 133.077H481.758V220.037H185.67V133.077Z" fill="url(#paint4_linear)"/>
<path d="M189.154 136.556H478.855V217.138H189.154V136.556Z" fill="#006DF6"/>
<path d="M236.179 253.661H255.918V270.474H236.179V253.661Z" fill="url(#paint5_linear)"/>
<path d="M237.05 254.821H255.628V268.735H237.05V254.821Z" fill="#006DF6"/>
<path d="M237.05 278.59H255.628V292.504H237.05V278.59Z" fill="#006DF6"/>
<path d="M237.05 302.359H255.628V316.273H237.05V302.359Z" fill="#006DF6"/>
<path opacity="0.4" d="M286.398 257.72H436.184V265.836H286.398V257.72ZM286.398 281.489H436.184V289.605H286.398V281.489ZM286.398 305.258H436.184V313.374H286.398V305.258Z" fill="#006DF6"/>
<path d="M284.366 298.301H392.351V387H284.366V298.301Z" fill="url(#paint6_linear)"/>
<path d="M309.284 284.196C309.284 276.188 312.47 268.507 318.141 262.845C323.812 257.182 331.503 254.001 339.523 254.001C347.542 254.001 355.234 257.182 360.905 262.845C366.575 268.507 369.761 276.188 369.761 284.196V303.519H378.226V284.196C378.289 279.081 377.334 274.004 375.417 269.26C373.5 264.516 370.659 260.2 367.059 256.56C363.459 252.921 359.171 250.032 354.444 248.059C349.717 246.087 344.646 245.072 339.523 245.072C334.4 245.072 329.328 246.087 324.601 248.059C319.874 250.032 315.586 252.921 311.986 256.56C308.386 260.2 305.545 264.516 303.628 269.26C301.711 274.004 300.757 279.081 300.819 284.196V303.519H309.284V284.196Z" fill="url(#paint7_linear)"/>
<path d="M310.491 283.808C310.491 276.12 313.55 268.747 318.994 263.311C324.437 257.875 331.821 254.821 339.52 254.821C347.218 254.821 354.602 257.875 360.046 263.311C365.49 268.747 368.548 276.12 368.548 283.808V302.359H376.676V283.808C376.676 273.967 372.761 264.53 365.793 257.572C358.825 250.614 349.374 246.705 339.52 246.705C329.665 246.705 320.214 250.614 313.246 257.572C306.278 264.53 302.364 273.967 302.364 283.808V302.359H310.491V283.808Z" fill="white"/>
<path d="M289.011 301.2H390.029V383.522H289.011V301.2Z" fill="#006DF6"/>
<path d="M289.011 301.2H390.029V383.522H289.011V301.2Z" fill="white"/>
<path d="M289.011 317.432H390.029V367.289H289.011V317.432Z" fill="url(#paint8_linear)"/>
<path d="M346.934 332.946C346.939 331.735 346.647 330.542 346.084 329.471C345.52 328.399 344.702 327.482 343.7 326.8C342.699 326.118 341.546 325.692 340.341 325.559C339.136 325.425 337.917 325.589 336.791 326.036C335.664 326.483 334.665 327.199 333.88 328.122C333.095 329.044 332.549 330.145 332.29 331.327C332.03 332.509 332.065 333.737 332.391 334.903C332.718 336.068 333.325 337.136 334.161 338.013V353.793C334.161 355.22 334.729 356.588 335.739 357.597C336.75 358.606 338.12 359.173 339.549 359.173C340.978 359.173 342.348 358.606 343.358 357.597C344.369 356.588 344.936 355.22 344.936 353.793V338.013C346.226 336.641 346.941 334.827 346.934 332.946Z" fill="url(#paint9_linear)"/>
<path opacity="0.2" d="M345.906 334.244C345.908 333.203 345.654 332.177 345.167 331.256C344.681 330.335 343.975 329.547 343.113 328.961C342.251 328.375 341.258 328.009 340.222 327.894C339.185 327.78 338.136 327.921 337.167 328.304C336.197 328.688 335.337 329.303 334.66 330.095C333.983 330.888 333.511 331.834 333.285 332.85C333.059 333.867 333.086 334.924 333.363 335.927C333.64 336.931 334.159 337.852 334.875 338.61V352.216C334.875 353.446 335.365 354.626 336.236 355.495C337.107 356.365 338.288 356.854 339.52 356.854C340.752 356.854 341.933 356.365 342.804 355.495C343.675 354.626 344.164 353.446 344.164 352.216V338.61C345.28 337.429 345.903 335.868 345.906 334.244Z" fill="black"/>
</g>
<defs>
<filter id="filter0_d" x="175.112" y="18.2449" width="518.854" height="456.435" filterUnits="userSpaceOnUse" color-interpolation-filters="sRGB">
<feFlood flood-opacity="0" result="BackgroundImageFix"/>
<feColorMatrix in="SourceAlpha" type="matrix" values="0 0 0 0 0 0 0 0 0 0 0 0 0 0 0 0 0 0 127 0"/>
<feOffset dy="1.09751"/>
<feGaussianBlur stdDeviation="54.8757"/>
<feColorMatrix type="matrix" values="0 0 0 0 0.617046 0 0 0 0 0.65469 0 0 0 0 0.779203 0 0 0 0.3 0"/>
<feBlend mode="normal" in2="BackgroundImageFix" result="effect1_dropShadow"/>
<feBlend mode="normal" in="SourceGraphic" in2="effect1_dropShadow" result="shape"/>
</filter>
<filter id="filter1_d" x="-27.956" y="-5.44573" width="546.001" height="473.732" filterUnits="userSpaceOnUse" color-interpolation-filters="sRGB">
<feFlood flood-opacity="0" result="BackgroundImageFix"/>
<feColorMatrix in="SourceAlpha" type="matrix" values="0 0 0 0 0 0 0 0 0 0 0 0 0 0 0 0 0 0 127 0"/>
<feOffset dy="1.09751"/>
<feGaussianBlur stdDeviation="54.8757"/>
<feColorMatrix type="matrix" values="0 0 0 0 0.617046 0 0 0 0 0.65469 0 0 0 0 0.779203 0 0 0 0.3 0"/>
<feBlend mode="normal" in2="BackgroundImageFix" result="effect1_dropShadow"/>
<feBlend mode="normal" in="SourceGraphic" in2="effect1_dropShadow" result="shape"/>
</filter>
<filter id="filter2_d" x="61.9852" y="2.97315" width="549.263" height="459.512" filterUnits="userSpaceOnUse" color-interpolation-filters="sRGB">
<feFlood flood-opacity="0" result="BackgroundImageFix"/>
<feColorMatrix in="SourceAlpha" type="matrix" values="0 0 0 0 0 0 0 0 0 0 0 0 0 0 0 0 0 0 127 0"/>
<feOffset dy="1.09751"/>
<feGaussianBlur stdDeviation="54.8757"/>
<feColorMatrix type="matrix" values="0 0 0 0 0.617046 0 0 0 0 0.65469 0 0 0 0 0.779203 0 0 0 0.3 0"/>
<feBlend mode="normal" in2="BackgroundImageFix" result="effect1_dropShadow"/>
<feBlend mode="normal" in="SourceGraphic" in2="effect1_dropShadow" result="shape"/>
</filter>
<linearGradient id="paint0_linear" x1="40028.4" y1="116583" x2="44592" y2="86506.7" gradientUnits="userSpaceOnUse">
<stop stop-color="#808080" stop-opacity="0.25"/>
<stop offset="0.54" stop-color="#808080" stop-opacity="0.12"/>
<stop offset="1" stop-color="#808080" stop-opacity="0.1"/>
</linearGradient>
<linearGradient id="paint1_linear" x1="8180.25" y1="9983.91" x2="8239.08" y2="9596.2" gradientUnits="userSpaceOnUse">
<stop stop-color="#808080" stop-opacity="0.25"/>
<stop offset="0.54" stop-color="#808080" stop-opacity="0.12"/>
<stop offset="1" stop-color="#808080" stop-opacity="0.1"/>
</linearGradient>
<linearGradient id="paint2_linear" x1="115646" y1="4440.56" x2="113759" y2="-4016.07" gradientUnits="userSpaceOnUse">
<stop stop-color="#808080" stop-opacity="0.25"/>
<stop offset="0.54" stop-color="#808080" stop-opacity="0.12"/>
<stop offset="1" stop-color="#808080" stop-opacity="0.1"/>
</linearGradient>
<linearGradient id="paint3_linear" x1="6648.28" y1="5644.24" x2="6577.76" y2="5328.29" gradientUnits="userSpaceOnUse">
<stop stop-color="#808080" stop-opacity="0.25"/>
<stop offset="0.54" stop-color="#808080" stop-opacity="0.12"/>
<stop offset="1" stop-color="#808080" stop-opacity="0.1"/>
</linearGradient>
<linearGradient id="paint4_linear" x1="133150" y1="20088.6" x2="133150" y2="7044.65" gradientUnits="userSpaceOnUse">
<stop stop-color="#808080" stop-opacity="0.25"/>
<stop offset="0.54" stop-color="#808080" stop-opacity="0.12"/>
<stop offset="1" stop-color="#808080" stop-opacity="0.1"/>
</linearGradient>
<linearGradient id="paint5_linear" x1="6119.84" y1="5574.4" x2="6119.84" y2="5086.84" gradientUnits="userSpaceOnUse">
<stop stop-color="#808080" stop-opacity="0.25"/>
<stop offset="0.54" stop-color="#808080" stop-opacity="0.12"/>
<stop offset="1" stop-color="#808080" stop-opacity="0.1"/>
</linearGradient>
<linearGradient id="paint6_linear" x1="49641.1" y1="46198.3" x2="49641.1" y2="32627.3" gradientUnits="userSpaceOnUse">
<stop stop-color="#808080" stop-opacity="0.25"/>
<stop offset="0.54" stop-color="#808080" stop-opacity="0.12"/>
<stop offset="1" stop-color="#808080" stop-opacity="0.1"/>
</linearGradient>
<linearGradient id="paint7_linear" x1="47617.7" y1="33252.2" x2="47617.7" y2="27407.6" gradientUnits="userSpaceOnUse">
<stop stop-color="#808080" stop-opacity="0.25"/>
<stop offset="0.54" stop-color="#808080" stop-opacity="0.12"/>
<stop offset="1" stop-color="#808080" stop-opacity="0.1"/>
</linearGradient>
<linearGradient id="paint8_linear" x1="289.011" y1="317.432" x2="397.058" y2="340.685" gradientUnits="userSpaceOnUse">
<stop stop-color="#009EFF"/>
<stop offset="1" stop-color="#0242E4"/>
</linearGradient>
<linearGradient id="paint9_linear" x1="9388.09" y1="22565.5" x2="9388.09" y2="20613.2" gradientUnits="userSpaceOnUse">
<stop stop-color="#808080" stop-opacity="0.25"/>
<stop offset="0.54" stop-color="#808080" stop-opacity="0.12"/>
<stop offset="1" stop-color="#808080" stop-opacity="0.1"/>
</linearGradient>
<clipPath id="clip0">
<rect width="684" height="481" fill="white"/>
</clipPath>
</defs>
</svg>
