<svg width="85" height="36" viewBox="0 0 85 36" fill="none" xmlns="http://www.w3.org/2000/svg">
<g clip-path="url(#clip0)">
<path fill-rule="evenodd" clip-rule="evenodd" d="M53.8556 29.0689C53.7215 28.9858 53.482 29.0943 53.4176 29.3026C53.4217 29.345 53.4082 29.4335 53.4303 29.507C53.4342 29.5216 53.4394 29.5357 53.4467 29.5486C53.5303 29.698 53.6463 29.8313 53.7599 29.9613C55.0774 31.4711 56.626 32.7004 58.3456 33.7064C58.4766 33.7827 58.6067 33.8614 58.7372 33.9403C59.2296 34.2408 59.7247 34.542 60.2832 34.714C61.1786 34.9883 62.0714 35.2649 62.993 35.4413C64.9966 35.8247 66.9897 35.7799 68.9646 35.3274C69.744 35.1485 70.5005 34.9042 71.2383 34.6123C71.9745 34.3206 72.6923 33.9814 73.3964 33.6115C74.0676 33.2587 74.726 32.8744 75.3566 32.4544C76.074 31.9768 76.7615 31.4533 77.4485 30.9307C78.9076 29.8212 80.2024 28.5269 81.4923 27.229C81.6381 27.0827 81.7707 26.9219 81.8954 26.7566C81.9552 26.677 82.0084 26.5751 82.0169 26.4783C82.0243 26.3865 81.988 26.2775 81.9391 26.1952C81.9043 26.1368 81.8185 26.0963 81.7355 26.0825C81.6681 26.0719 81.6025 26.0788 81.5662 26.1093L81.5006 26.164C81.3386 26.2995 81.1766 26.435 81.0337 26.5908C80.0053 27.7127 78.8846 28.7424 77.7211 29.7121C76.3976 30.8158 75.0075 31.8413 73.4864 32.6755C72.0566 33.4599 70.582 34.1318 68.9943 34.5098C67.7857 34.7982 66.5544 35.017 65.2992 34.9298C64.5754 34.8791 63.8506 34.7957 63.1343 34.6781C61.7562 34.4537 60.4274 34.0402 59.215 33.3343C57.5905 32.389 56.0362 31.3372 54.7686 29.9148C54.5835 29.7071 54.3924 29.5035 54.1922 29.3105C54.0998 29.2213 53.9879 29.1506 53.8778 29.0814L53.8556 29.0689ZM83.0116 28.814C83.2285 28.3814 83.4499 27.951 83.6687 27.5201C83.9159 26.91 84.079 26.2753 84.2417 25.6417C84.3292 25.3012 84.4167 24.9608 84.5167 24.6254C84.5378 24.5543 84.5349 24.4765 84.5319 24.3986L84.5313 24.3153C84.5319 24.1427 84.369 23.9607 84.2079 23.9719C84.0028 23.9859 83.7922 23.9957 83.5947 24.0461C82.7255 24.27 81.8365 24.4033 80.9633 24.6009C79.6141 24.9059 78.2591 25.1687 76.8903 25.36L76.5336 25.4113C75.6623 25.5391 74.7891 25.667 73.8996 25.5295C73.8028 25.5154 73.6861 25.5356 73.6013 25.5802C73.5189 25.6236 73.4319 25.7101 73.407 25.7958C73.3679 25.9318 73.4123 26.076 73.5471 26.1553C73.6342 26.2071 73.7339 26.2422 73.8325 26.2678C74.3442 26.4012 74.8598 26.3736 75.3792 26.3268C77.9318 26.0943 80.417 25.4922 82.9249 25.009C83.0922 24.9764 83.2617 24.9469 83.4312 24.9392C83.471 24.9375 83.552 25.0297 83.5515 25.0773C83.551 25.1772 83.5385 25.2796 83.5176 25.3801L83.4941 25.4842C83.1084 26.973 82.412 28.3301 81.7265 29.6896C80.9422 31.2457 79.9802 32.671 78.6003 33.7697C78.4949 33.8537 78.4022 33.9635 78.3311 34.078C78.2511 34.2075 78.296 34.3449 78.3821 34.4642C78.4259 34.5237 78.5135 34.5686 78.5981 34.5835C78.6563 34.593 78.7131 34.5881 78.7532 34.5634C78.8992 34.4753 79.0451 34.3829 79.1784 34.2764C80.6122 33.133 81.597 31.6422 82.4131 30.0229C82.5156 29.8189 82.6165 29.6137 82.7172 29.4083C82.8151 29.2095 82.9122 29.0116 83.0116 28.814Z" fill="white"/>
<path d="M13.2123 7.544C13.8683 7.544 14.3763 7.452 14.7363 7.268C15.0963 7.084 15.2763 6.816 15.2763 6.464C15.2763 6.152 15.1683 5.884 14.9523 5.66C14.7363 5.428 14.4683 5.232 14.1483 5.072C13.8283 4.912 13.3923 4.724 12.8403 4.508C12.7923 4.492 12.6763 4.448 12.4923 4.376C11.7403 4.072 11.1603 3.768 10.7523 3.464C10.3523 3.16 10.1523 2.768 10.1523 2.288C10.1523 1.752 10.3643 1.348 10.7883 1.076C11.2123 0.804 11.7563 0.668 12.4203 0.668C12.9083 0.668 13.3563 0.732 13.7643 0.86C14.1803 0.98 14.5083 1.148 14.7483 1.364C14.9963 1.58 15.1203 1.824 15.1203 2.096C15.0243 2.144 14.9323 2.168 14.8443 2.168C14.7483 2.168 14.6483 2.148 14.5443 2.108C14.4483 2.06 14.3043 1.984 14.1123 1.88C13.8003 1.712 13.5083 1.58 13.2363 1.484C12.9643 1.38 12.6443 1.328 12.2763 1.328C11.8123 1.328 11.4363 1.408 11.1483 1.568C10.8603 1.728 10.7163 1.952 10.7163 2.24C10.7163 2.464 10.8123 2.668 11.0043 2.852C11.2043 3.036 11.4523 3.2 11.7483 3.344C12.0523 3.48 12.4563 3.644 12.9603 3.836C13.6003 4.084 14.1283 4.316 14.5443 4.532C14.9603 4.748 15.3123 5.024 15.6003 5.36C15.8963 5.688 16.0443 6.08 16.0443 6.536C16.0443 7.072 15.7883 7.488 15.2763 7.784C14.7643 8.072 14.1283 8.216 13.3683 8.216C12.7683 8.216 12.1763 8.128 11.5923 7.952C11.0083 7.776 10.5083 7.516 10.0923 7.172C9.67631 6.82 9.41231 6.4 9.30031 5.912C9.30031 5.696 9.36031 5.512 9.48031 5.36C9.60031 5.2 9.74831 5.12 9.92431 5.12C9.92431 5.64 10.0683 6.084 10.3563 6.452C10.6523 6.812 11.0483 7.084 11.5443 7.268C12.0483 7.452 12.6043 7.544 13.2123 7.544ZM22.5195 7.94C22.3755 7.94 22.2595 7.88 22.1715 7.76C22.0915 7.632 22.0195 7.44 21.9555 7.184C21.8915 6.92 21.7915 6.464 21.6555 5.816C21.5195 6.352 21.2635 6.78 20.8875 7.1C20.5115 7.412 20.0515 7.568 19.5075 7.568C19.0115 7.568 18.5915 7.396 18.2475 7.052C17.9115 6.7 17.6595 6.24 17.4915 5.672C17.3235 5.096 17.2395 4.476 17.2395 3.812C17.2395 3.508 17.2675 3.248 17.3235 3.032C17.3875 2.808 17.4635 2.64 17.5515 2.528C17.6475 2.416 17.7395 2.364 17.8275 2.372C17.9235 2.372 17.9715 2.436 17.9715 2.564C17.9715 2.668 17.9435 2.832 17.8875 3.056C17.8315 3.304 17.8035 3.588 17.8035 3.908C17.8035 4.388 17.8715 4.856 18.0075 5.312C18.1515 5.768 18.3595 6.144 18.6315 6.44C18.9115 6.728 19.2395 6.872 19.6155 6.872C19.9275 6.872 20.2115 6.78 20.4675 6.596C20.7235 6.412 20.9235 6.18 21.0675 5.9C21.2195 5.62 21.2955 5.344 21.2955 5.072V3.164C21.3835 2.996 21.5035 2.912 21.6555 2.912C21.7915 2.912 21.8835 3.028 21.9315 3.26C21.9795 3.492 22.0035 3.82 22.0035 4.244C22.0035 4.604 21.9995 4.88 21.9915 5.072C22.0395 5.336 22.1115 5.604 22.2075 5.876C22.3115 6.148 22.4395 6.456 22.5915 6.8C22.7755 7.224 22.8675 7.484 22.8675 7.58C22.8675 7.82 22.7515 7.94 22.5195 7.94ZM24.9716 8.048C24.8596 8.08 24.7956 8.096 24.7796 8.096C24.7156 8.096 24.6476 8.064 24.5756 8C24.3116 7.608 24.1196 6.924 23.9996 5.948C23.8876 4.972 23.8316 4.132 23.8316 3.428C23.8316 3.316 23.9116 3.26 24.0716 3.26C24.3116 3.26 24.4316 3.392 24.4316 3.656C24.4316 3.728 24.4276 3.788 24.4196 3.836C24.4916 3.668 24.6276 3.496 24.8276 3.32C25.0276 3.144 25.2596 2.996 25.5236 2.876C25.7876 2.756 26.0556 2.696 26.3276 2.696C27.1836 2.696 27.8076 3.076 28.1996 3.836C28.5916 4.588 28.7876 5.524 28.7876 6.644C28.7876 7.028 28.7476 7.336 28.6676 7.568C28.5876 7.792 28.4796 7.904 28.3436 7.904C28.1996 7.904 28.1276 7.86 28.1276 7.772C28.1836 7.348 28.2116 6.932 28.2116 6.524C28.2116 5.492 28.0316 4.712 27.6716 4.184C27.3116 3.648 26.8356 3.38 26.2436 3.38C25.9556 3.38 25.6756 3.452 25.4036 3.596C25.1396 3.74 24.9236 3.94 24.7556 4.196C24.5956 4.452 24.5156 4.744 24.5156 5.072C24.5156 5.44 24.5356 5.76 24.5756 6.032C24.6156 6.304 24.6796 6.632 24.7676 7.016C24.8636 7.392 24.9316 7.736 24.9716 8.048ZM29.8095 6.584C29.9215 6.496 30.0295 6.452 30.1335 6.452C30.2295 6.452 30.3215 6.48 30.4095 6.536C30.5055 6.592 30.6015 6.664 30.6975 6.752C30.7935 6.832 30.8695 6.892 30.9255 6.932C31.1095 7.076 31.3615 7.188 31.6815 7.268C32.0015 7.348 32.3415 7.388 32.7015 7.388C33.1095 7.388 33.4735 7.312 33.7935 7.16C34.1215 7 34.2855 6.788 34.2855 6.524C34.2855 6.284 34.1975 6.096 34.0215 5.96C33.8455 5.816 33.6335 5.712 33.3855 5.648C33.1375 5.584 32.8095 5.524 32.4015 5.468C31.8495 5.404 31.4095 5.324 31.0815 5.228C30.7615 5.132 30.5055 4.976 30.3135 4.76C30.1215 4.536 30.0255 4.224 30.0255 3.824C30.0255 3.392 30.2295 3.072 30.6375 2.864C31.0455 2.648 31.5135 2.54 32.0415 2.54C32.5215 2.54 32.9295 2.644 33.2655 2.852C33.6095 3.052 33.7855 3.34 33.7935 3.716C33.8095 3.932 33.7775 4.104 33.6975 4.232C33.6175 4.352 33.5215 4.412 33.4095 4.412C33.3455 4.412 33.2895 4.388 33.2415 4.34C33.2015 4.292 33.1815 4.228 33.1815 4.148C33.1815 4.02 33.2255 3.88 33.3135 3.728C33.2735 3.536 33.1415 3.392 32.9175 3.296C32.7015 3.2 32.4415 3.152 32.1375 3.152C31.6895 3.152 31.3335 3.236 31.0695 3.404C30.8055 3.564 30.6735 3.756 30.6735 3.98C30.6735 4.22 30.7695 4.404 30.9615 4.532C31.1535 4.66 31.3855 4.752 31.6575 4.808C31.9375 4.856 32.3335 4.904 32.8455 4.952C33.2695 5.008 33.6135 5.076 33.8775 5.156C34.1495 5.236 34.3775 5.392 34.5615 5.624C34.7455 5.848 34.8375 6.172 34.8375 6.596C34.8375 7.036 34.6335 7.384 34.2255 7.64C33.8175 7.888 33.3295 8.012 32.7615 8.012C32.0335 8.012 31.3815 7.888 30.8055 7.64C30.2375 7.392 29.9055 7.04 29.8095 6.584ZM38.939 8C38.107 8 37.383 7.856 36.767 7.568C36.159 7.272 35.855 6.756 35.855 6.02C35.855 5.756 35.935 5.5 36.095 5.252C36.255 5.004 36.491 4.804 36.803 4.652C37.115 4.492 37.495 4.412 37.943 4.412C38.287 4.412 38.579 4.428 38.819 4.46C39.059 4.492 39.335 4.58 39.647 4.724C39.959 4.868 40.283 5.096 40.619 5.408C40.491 4.856 40.299 4.372 40.043 3.956C39.787 3.54 39.499 3.22 39.179 2.996C38.867 2.764 38.559 2.648 38.255 2.648C38.111 2.648 37.975 2.676 37.847 2.732C37.727 2.78 37.579 2.852 37.403 2.948C37.203 3.076 37.055 3.14 36.959 3.14C36.919 3.14 36.883 3.128 36.851 3.104C36.827 3.072 36.815 3.036 36.815 2.996C36.815 2.676 36.955 2.428 37.235 2.252C37.523 2.076 37.871 1.996 38.279 2.012C38.839 2.044 39.351 2.284 39.815 2.732C40.279 3.172 40.643 3.72 40.907 4.376C41.179 5.032 41.315 5.676 41.315 6.308C41.315 6.412 41.307 6.56 41.291 6.752L40.907 6.728C40.603 6.112 40.211 5.676 39.731 5.42C39.259 5.156 38.783 5.024 38.303 5.024C37.687 5.024 37.247 5.116 36.983 5.3C36.719 5.484 36.587 5.752 36.587 6.104C36.587 6.472 36.771 6.768 37.139 6.992C37.507 7.216 37.979 7.328 38.555 7.328C38.875 7.328 39.131 7.312 39.323 7.28C39.515 7.24 39.715 7.188 39.923 7.124C40.091 7.068 40.239 7.028 40.367 7.004C40.495 6.98 40.659 6.968 40.859 6.968C41.083 6.968 41.223 6.984 41.279 7.016C41.343 7.048 41.375 7.12 41.375 7.232C41.375 7.312 41.211 7.412 40.883 7.532C40.555 7.652 40.187 7.76 39.779 7.856C39.371 7.952 39.091 8 38.939 8ZM50.1235 8.012C50.0035 8.012 49.9315 7.98 49.9075 7.916C49.8835 7.844 49.8715 7.736 49.8715 7.592C49.8795 7.536 49.8835 7.472 49.8835 7.4C49.8835 7.32 49.8875 7.26 49.8955 7.22C49.9435 6.836 49.9675 6.472 49.9675 6.128C49.9675 5.368 49.8395 4.776 49.5835 4.352C49.3275 3.92 48.9235 3.704 48.3715 3.704C48.0675 3.704 47.7635 3.78 47.4595 3.932C47.1635 4.084 46.9195 4.272 46.7275 4.496C46.5435 4.72 46.4515 4.924 46.4515 5.108C46.4915 5.34 46.5635 5.624 46.6675 5.96C46.6755 6 46.7075 6.124 46.7635 6.332C46.8275 6.54 46.8595 6.728 46.8595 6.896L46.8715 7.124C46.8715 7.252 46.8075 7.316 46.6795 7.316C46.5195 7.316 46.3875 7.212 46.2835 7.004C46.1875 6.796 46.0795 6.472 45.9595 6.032C45.8395 5.6 45.7235 5.244 45.6115 4.964C45.4995 4.684 45.3475 4.444 45.1555 4.244C44.9635 4.044 44.7195 3.944 44.4235 3.944C44.0155 3.944 43.6955 4.084 43.4635 4.364C43.2395 4.644 43.1275 4.988 43.1275 5.396C43.1275 5.668 43.1515 6.028 43.1995 6.476C43.2395 6.812 43.2595 7.1 43.2595 7.34C43.2595 7.484 43.2435 7.592 43.2115 7.664C43.1795 7.736 43.1035 7.772 42.9835 7.772C42.8235 7.772 42.7115 7.72 42.6475 7.616C42.5835 7.504 42.5515 7.336 42.5515 7.112C42.5515 6.672 42.5275 6.14 42.4795 5.516C42.4715 5.436 42.4555 5.232 42.4315 4.904C42.4075 4.568 42.4035 4.232 42.4195 3.896L42.4315 3.5C42.4795 3.452 42.5355 3.428 42.5995 3.428C42.6875 3.428 42.7595 3.484 42.8155 3.596C42.8795 3.7 42.9115 3.86 42.9115 4.076C43.0315 3.868 43.2075 3.68 43.4395 3.512C43.6715 3.344 43.9155 3.26 44.1715 3.26C44.6115 3.26 44.9755 3.352 45.2635 3.536C45.5595 3.712 45.8275 4 46.0675 4.4C46.2915 3.992 46.6275 3.644 47.0755 3.356C47.5315 3.068 47.9995 2.924 48.4795 2.924C48.9755 2.924 49.3875 3.112 49.7155 3.488C50.0515 3.864 50.2955 4.316 50.4475 4.844C50.6075 5.372 50.6875 5.86 50.6875 6.308C50.6875 6.708 50.6515 7.092 50.5795 7.46C50.5155 7.828 50.3635 8.012 50.1235 8.012ZM54.7359 8C53.9039 8 53.1799 7.856 52.5639 7.568C51.9559 7.272 51.6519 6.756 51.6519 6.02C51.6519 5.756 51.7319 5.5 51.8919 5.252C52.0519 5.004 52.2879 4.804 52.5999 4.652C52.9119 4.492 53.2919 4.412 53.7399 4.412C54.0839 4.412 54.3759 4.428 54.6159 4.46C54.8559 4.492 55.1319 4.58 55.4439 4.724C55.7559 4.868 56.0799 5.096 56.4159 5.408C56.2879 4.856 56.0959 4.372 55.8399 3.956C55.5839 3.54 55.2959 3.22 54.9759 2.996C54.6639 2.764 54.3559 2.648 54.0519 2.648C53.9079 2.648 53.7719 2.676 53.6439 2.732C53.5239 2.78 53.3759 2.852 53.1999 2.948C52.9999 3.076 52.8519 3.14 52.7559 3.14C52.7159 3.14 52.6799 3.128 52.6479 3.104C52.6239 3.072 52.6119 3.036 52.6119 2.996C52.6119 2.676 52.7519 2.428 53.0319 2.252C53.3199 2.076 53.6679 1.996 54.0759 2.012C54.6359 2.044 55.1479 2.284 55.6119 2.732C56.0759 3.172 56.4399 3.72 56.7039 4.376C56.9759 5.032 57.1119 5.676 57.1119 6.308C57.1119 6.412 57.1039 6.56 57.0879 6.752L56.7039 6.728C56.3999 6.112 56.0079 5.676 55.5279 5.42C55.0559 5.156 54.5799 5.024 54.0999 5.024C53.4839 5.024 53.0439 5.116 52.7799 5.3C52.5159 5.484 52.3839 5.752 52.3839 6.104C52.3839 6.472 52.5679 6.768 52.9359 6.992C53.3039 7.216 53.7759 7.328 54.3519 7.328C54.6719 7.328 54.9279 7.312 55.1199 7.28C55.3119 7.24 55.5119 7.188 55.7199 7.124C55.8879 7.068 56.0359 7.028 56.1639 7.004C56.2919 6.98 56.4559 6.968 56.6559 6.968C56.8799 6.968 57.0199 6.984 57.0759 7.016C57.1399 7.048 57.1719 7.12 57.1719 7.232C57.1719 7.312 57.0079 7.412 56.6799 7.532C56.3519 7.652 55.9839 7.76 55.5759 7.856C55.1679 7.952 54.8879 8 54.7359 8ZM57.8443 2.456C57.8443 2.424 57.8843 2.304 57.9643 2.096C58.0523 1.888 58.0963 1.628 58.0963 1.316C58.0963 1.124 58.0723 0.904 58.0243 0.655999C58.0163 0.623999 58.0123 0.572 58.0123 0.5C58.0123 0.348 58.0523 0.215999 58.1323 0.103999C58.2203 -0.0160005 58.3483 -0.0760005 58.5163 -0.0760005C58.6203 -0.0760005 58.6923 -0.00400043 58.7323 0.14C58.7803 0.276 58.8043 0.48 58.8043 0.752C58.8043 1.008 58.7603 1.28 58.6723 1.568C58.5843 1.856 58.4763 2.1 58.3483 2.3C58.2203 2.492 58.1003 2.588 57.9883 2.588C57.8923 2.588 57.8443 2.544 57.8443 2.456ZM59.4345 6.584C59.5465 6.496 59.6545 6.452 59.7585 6.452C59.8545 6.452 59.9465 6.48 60.0345 6.536C60.1305 6.592 60.2265 6.664 60.3225 6.752C60.4185 6.832 60.4945 6.892 60.5505 6.932C60.7345 7.076 60.9865 7.188 61.3065 7.268C61.6265 7.348 61.9665 7.388 62.3265 7.388C62.7345 7.388 63.0985 7.312 63.4185 7.16C63.7465 7 63.9105 6.788 63.9105 6.524C63.9105 6.284 63.8225 6.096 63.6465 5.96C63.4705 5.816 63.2585 5.712 63.0105 5.648C62.7625 5.584 62.4345 5.524 62.0265 5.468C61.4745 5.404 61.0345 5.324 60.7065 5.228C60.3865 5.132 60.1305 4.976 59.9385 4.76C59.7465 4.536 59.6505 4.224 59.6505 3.824C59.6505 3.392 59.8545 3.072 60.2625 2.864C60.6705 2.648 61.1385 2.54 61.6665 2.54C62.1465 2.54 62.5545 2.644 62.8905 2.852C63.2345 3.052 63.4105 3.34 63.4185 3.716C63.4345 3.932 63.4025 4.104 63.3225 4.232C63.2425 4.352 63.1465 4.412 63.0345 4.412C62.9705 4.412 62.9145 4.388 62.8665 4.34C62.8265 4.292 62.8065 4.228 62.8065 4.148C62.8065 4.02 62.8505 3.88 62.9385 3.728C62.8985 3.536 62.7665 3.392 62.5425 3.296C62.3265 3.2 62.0665 3.152 61.7625 3.152C61.3145 3.152 60.9585 3.236 60.6945 3.404C60.4305 3.564 60.2985 3.756 60.2985 3.98C60.2985 4.22 60.3945 4.404 60.5865 4.532C60.7785 4.66 61.0105 4.752 61.2825 4.808C61.5625 4.856 61.9585 4.904 62.4705 4.952C62.8945 5.008 63.2385 5.076 63.5025 5.156C63.7745 5.236 64.0025 5.392 64.1865 5.624C64.3705 5.848 64.4625 6.172 64.4625 6.596C64.4625 7.036 64.2585 7.384 63.8505 7.64C63.4425 7.888 62.9545 8.012 62.3865 8.012C61.6585 8.012 61.0065 7.888 60.4305 7.64C59.8625 7.392 59.5305 7.04 59.4345 6.584ZM1.78784 25.28C1.78784 25.184 1.79584 25.112 1.81184 25.064C1.83584 25.008 1.88784 24.98 1.96784 24.98C2.03984 24.98 2.11984 24.996 2.20784 25.028C2.30384 25.06 2.39584 25.096 2.48384 25.136C2.70784 25.232 2.90784 25.304 3.08384 25.352C3.26784 25.4 3.49584 25.424 3.76784 25.424C4.75984 25.424 5.50384 25.188 5.99984 24.716C6.50384 24.244 6.75584 23.628 6.75584 22.868C6.75584 22.188 6.56384 21.592 6.17984 21.08C5.79584 20.56 5.30784 20.152 4.71584 19.856C4.13184 19.56 3.53584 19.384 2.92784 19.328L3.61184 24.404C3.61184 24.54 3.59184 24.652 3.55184 24.74C3.51984 24.828 3.43984 24.872 3.31184 24.872C3.27984 24.888 3.21984 24.672 3.13184 24.224C3.04384 23.776 2.92384 23.116 2.77184 22.244C2.59584 21.228 2.45984 20.476 2.36384 19.988C2.26784 19.492 2.19184 19.208 2.13584 19.136C1.47184 19.136 0.927844 19.172 0.503844 19.244C0.0798438 19.308 -0.244156 19.384 -0.468156 19.472C-0.692156 19.56 -0.784156 19.604 -0.744156 19.604C-0.784156 19.588 -0.812156 19.564 -0.828156 19.532C-0.844156 19.492 -0.856156 19.436 -0.864156 19.364C-0.880156 19.292 -0.892156 19.24 -0.900156 19.208C-0.900156 19.016 -0.728156 18.864 -0.384156 18.752C-0.0401562 18.64 0.319844 18.564 0.695844 18.524C1.07984 18.484 1.33584 18.464 1.46384 18.464C2.31984 18.464 3.21184 18.64 4.13984 18.992C5.06784 19.336 5.84784 19.844 6.47984 20.516C7.11184 21.188 7.42784 21.984 7.42784 22.904C7.42784 23.592 7.25584 24.18 6.91184 24.668C6.56784 25.148 6.11584 25.512 5.55584 25.76C5.00384 26.008 4.41184 26.132 3.77984 26.132C3.26784 26.132 2.80784 26.052 2.39984 25.892C1.99184 25.732 1.78784 25.528 1.78784 25.28ZM11.4643 26C10.9523 26 10.4803 25.9 10.0483 25.7C9.61634 25.5 9.27234 25.216 9.01634 24.848C8.76034 24.48 8.63234 24.056 8.63234 23.576C8.63234 23.04 8.73234 22.54 8.93234 22.076C9.13234 21.604 9.42434 21.228 9.80834 20.948C10.2003 20.66 10.6563 20.516 11.1763 20.516C11.7203 20.516 12.1323 20.692 12.4123 21.044C12.6923 21.388 12.8243 21.824 12.8083 22.352C12.8083 22.824 12.6203 23.184 12.2443 23.432C11.8763 23.68 11.4043 23.804 10.8283 23.804C10.7403 23.804 10.6083 23.796 10.4323 23.78C10.1443 23.748 9.94034 23.704 9.82034 23.648C9.70034 23.592 9.64034 23.48 9.64034 23.312C9.64034 23.256 9.65634 23.216 9.68834 23.192C9.72034 23.16 9.78434 23.144 9.88034 23.144C9.98434 23.144 10.1683 23.168 10.4323 23.216C10.6883 23.264 10.9163 23.288 11.1163 23.288C11.8523 23.288 12.2203 22.968 12.2203 22.328C12.2203 21.944 12.1483 21.64 12.0043 21.416C11.8683 21.192 11.6243 21.08 11.2723 21.08C10.8883 21.08 10.5443 21.184 10.2403 21.392C9.93634 21.592 9.70034 21.856 9.53234 22.184C9.37234 22.512 9.29234 22.86 9.29234 23.228C9.29234 23.86 9.46834 24.38 9.82034 24.788C10.1723 25.188 10.7163 25.388 11.4523 25.388C11.5403 25.388 11.6883 25.38 11.8963 25.364C11.9843 25.356 12.0923 25.332 12.2203 25.292C12.3483 25.252 12.4403 25.224 12.4963 25.208C12.8403 25.088 13.0923 25.028 13.2523 25.028C13.3723 25.028 13.4643 25.06 13.5283 25.124C13.3283 25.428 13.0283 25.652 12.6283 25.796C12.2363 25.932 11.8483 26 11.4643 26ZM14.0713 24.584C14.1833 24.496 14.2913 24.452 14.3953 24.452C14.4913 24.452 14.5833 24.48 14.6713 24.536C14.7673 24.592 14.8633 24.664 14.9593 24.752C15.0553 24.832 15.1313 24.892 15.1873 24.932C15.3713 25.076 15.6233 25.188 15.9433 25.268C16.2633 25.348 16.6033 25.388 16.9633 25.388C17.3713 25.388 17.7353 25.312 18.0553 25.16C18.3833 25 18.5473 24.788 18.5473 24.524C18.5473 24.284 18.4593 24.096 18.2833 23.96C18.1073 23.816 17.8953 23.712 17.6473 23.648C17.3993 23.584 17.0713 23.524 16.6633 23.468C16.1113 23.404 15.6713 23.324 15.3433 23.228C15.0233 23.132 14.7673 22.976 14.5753 22.76C14.3833 22.536 14.2873 22.224 14.2873 21.824C14.2873 21.392 14.4913 21.072 14.8993 20.864C15.3073 20.648 15.7753 20.54 16.3033 20.54C16.7833 20.54 17.1913 20.644 17.5273 20.852C17.8713 21.052 18.0473 21.34 18.0553 21.716C18.0713 21.932 18.0393 22.104 17.9593 22.232C17.8793 22.352 17.7833 22.412 17.6713 22.412C17.6073 22.412 17.5513 22.388 17.5033 22.34C17.4633 22.292 17.4433 22.228 17.4433 22.148C17.4433 22.02 17.4873 21.88 17.5753 21.728C17.5353 21.536 17.4033 21.392 17.1793 21.296C16.9633 21.2 16.7033 21.152 16.3993 21.152C15.9513 21.152 15.5953 21.236 15.3313 21.404C15.0673 21.564 14.9353 21.756 14.9353 21.98C14.9353 22.22 15.0313 22.404 15.2233 22.532C15.4153 22.66 15.6473 22.752 15.9193 22.808C16.1993 22.856 16.5953 22.904 17.1073 22.952C17.5313 23.008 17.8753 23.076 18.1393 23.156C18.4113 23.236 18.6393 23.392 18.8233 23.624C19.0073 23.848 19.0993 24.172 19.0993 24.596C19.0993 25.036 18.8953 25.384 18.4873 25.64C18.0793 25.888 17.5913 26.012 17.0233 26.012C16.2953 26.012 15.6433 25.888 15.0673 25.64C14.4993 25.392 14.1673 25.04 14.0713 24.584ZM21.0167 26.012C20.8167 26.012 20.7167 25.896 20.7167 25.664C20.7167 25.616 20.7327 25.516 20.7647 25.364C20.8047 25.212 20.8247 25.044 20.8247 24.86V24.272V23.408C20.7847 22.84 20.6847 22.148 20.5247 21.332C20.3487 20.436 20.2127 19.604 20.1167 18.836C20.1407 18.7 20.2047 18.632 20.3087 18.632C20.4447 18.632 20.6087 18.992 20.8007 19.712C20.9927 20.424 21.1887 21.604 21.3887 23.252C21.5487 22.852 21.7687 22.448 22.0487 22.04C22.3287 21.624 22.6247 21.28 22.9367 21.008C23.2487 20.736 23.5207 20.6 23.7527 20.6C23.8487 20.6 23.9087 20.628 23.9327 20.684C23.9647 20.74 23.9767 20.82 23.9687 20.924C23.4967 21.34 23.0207 21.824 22.5407 22.376C22.0607 22.928 21.8207 23.356 21.8207 23.66C21.8207 23.844 21.9727 24.056 22.2767 24.296C22.5807 24.528 22.9567 24.736 23.4047 24.92C23.8527 25.096 24.2727 25.196 24.6647 25.22C24.8167 25.244 24.8927 25.336 24.8927 25.496C24.8927 25.768 24.6367 25.904 24.1247 25.904C23.7167 25.904 23.2687 25.74 22.7807 25.412C22.3007 25.084 21.8847 24.74 21.5327 24.38C21.5087 24.516 21.4927 24.636 21.4847 24.74C21.4767 24.836 21.4687 24.92 21.4607 24.992C21.4287 25.344 21.3847 25.604 21.3287 25.772C21.2807 25.932 21.1767 26.012 21.0167 26.012ZM27.3104 26C27.2304 26.016 27.1784 26.024 27.1544 26.024C26.9064 26.024 26.7344 25.84 26.6384 25.472C26.5504 25.104 26.5064 24.588 26.5064 23.924C26.5064 23.652 26.5144 23.228 26.5304 22.652C26.5464 22.3 26.5544 22.036 26.5544 21.86C25.5704 21.86 25.0784 21.748 25.0784 21.524C25.0784 21.452 25.0864 21.396 25.1024 21.356C25.1264 21.316 25.1744 21.296 25.2464 21.296L26.5544 21.212C26.5464 20.82 26.5264 20.392 26.4944 19.928C26.4624 19.512 26.4424 19.128 26.4344 18.776C26.4344 18.688 26.4704 18.628 26.5424 18.596C26.6144 18.556 26.6904 18.536 26.7704 18.536C26.8664 18.536 26.9464 18.588 27.0104 18.692C27.0744 18.788 27.1064 18.888 27.1064 18.992L27.1904 21.188L28.1864 21.236C28.3384 21.22 28.4664 21.248 28.5704 21.32C28.6824 21.392 28.7424 21.512 28.7504 21.68C28.5824 21.752 28.3984 21.796 28.1984 21.812C27.9984 21.828 27.6624 21.836 27.1904 21.836C27.1904 22.58 27.2264 23.804 27.2984 25.508C27.2984 25.684 27.2984 25.808 27.2984 25.88C27.3064 25.944 27.3104 25.984 27.3104 26ZM31.8937 26.012C31.4217 26.012 30.9937 25.908 30.6097 25.7C30.2337 25.484 29.9377 25.188 29.7217 24.812C29.5137 24.428 29.4097 23.992 29.4097 23.504C29.4097 22.704 29.7017 22.108 30.2857 21.716C30.8777 21.324 31.6017 21.128 32.4577 21.128C32.8497 21.128 33.2137 21.224 33.5497 21.416C33.8937 21.608 34.1697 21.884 34.3777 22.244C34.5857 22.604 34.6897 23.02 34.6897 23.492C34.6897 24.004 34.5577 24.452 34.2937 24.836C34.0297 25.212 33.6817 25.504 33.2497 25.712C32.8257 25.912 32.3737 26.012 31.8937 26.012ZM31.7617 25.328C32.5057 25.328 33.0697 25.16 33.4537 24.824C33.8377 24.488 34.0297 23.996 34.0297 23.348C34.0297 22.908 33.8777 22.528 33.5737 22.208C33.2777 21.888 32.8617 21.728 32.3257 21.728C31.9657 21.728 31.6017 21.796 31.2337 21.932C30.8657 22.068 30.5617 22.272 30.3217 22.544C30.0817 22.816 29.9617 23.144 29.9617 23.528C29.9617 23.848 30.0417 24.148 30.2017 24.428C30.3617 24.7 30.5777 24.92 30.8497 25.088C31.1297 25.248 31.4337 25.328 31.7617 25.328ZM37.0601 30.272C36.9001 30.272 36.7081 29.844 36.4841 28.988C36.2681 28.132 36.0721 27.18 35.8961 26.132C35.7281 25.092 35.6441 24.436 35.6441 24.164C35.6441 23.356 35.9161 22.768 36.4601 22.4C37.0041 22.024 37.7041 21.836 38.5601 21.836C39.0161 21.836 39.4481 21.932 39.8561 22.124C40.2641 22.308 40.5921 22.576 40.8401 22.928C41.0881 23.272 41.2121 23.672 41.2121 24.128C41.2121 24.696 41.0121 25.096 40.6121 25.328C40.2201 25.56 39.7241 25.676 39.1241 25.676C38.5001 25.676 37.9681 25.572 37.5281 25.364C37.0961 25.148 36.8801 24.856 36.8801 24.488L36.8921 24.368C36.9481 24.304 37.0081 24.272 37.0721 24.272C37.1281 24.272 37.1881 24.296 37.2521 24.344C37.3241 24.384 37.4001 24.432 37.4801 24.488C37.7281 24.672 37.9721 24.82 38.2121 24.932C38.4601 25.044 38.7681 25.1 39.1361 25.1C39.6401 25.1 39.9961 25.012 40.2041 24.836C40.4201 24.652 40.5281 24.364 40.5281 23.972C40.5281 23.684 40.4321 23.428 40.2401 23.204C40.0481 22.98 39.8001 22.808 39.4961 22.688C39.1921 22.568 38.8801 22.508 38.5601 22.508C37.8161 22.508 37.2561 22.668 36.8801 22.988C36.5041 23.3 36.3361 23.824 36.3761 24.56C36.4481 25.808 36.5601 26.856 36.7121 27.704C36.8721 28.552 37.1481 29.272 37.5401 29.864L37.5521 29.888C37.5521 29.904 37.5321 29.92 37.4921 29.936C37.4601 29.96 37.4361 29.98 37.4201 29.996C37.3241 30.148 37.2041 30.24 37.0601 30.272ZM46.6834 26C46.5794 26.04 46.4794 26.016 46.3834 25.928C46.2954 25.84 46.2474 25.716 46.2394 25.556C46.2074 25.324 46.1714 25.04 46.1314 24.704C46.0994 24.368 46.0754 24.12 46.0594 23.96C46.0434 23.8 46.0074 23.492 45.9514 23.036C45.9034 22.572 45.8514 22.172 45.7954 21.836C45.7794 21.724 45.7274 21.524 45.6394 21.236C45.4074 20.412 45.2914 19.816 45.2914 19.448C45.3474 19.368 45.4034 19.328 45.4594 19.328C45.6674 19.328 45.8834 19.744 46.1074 20.576C46.3314 21.408 46.5194 22.348 46.6714 23.396C46.8314 24.436 46.9114 25.148 46.9114 25.532C46.9114 25.548 46.9114 25.6 46.9114 25.688C46.9114 25.768 46.8914 25.836 46.8514 25.892C46.8194 25.948 46.7634 25.984 46.6834 26ZM50.9476 26.012C50.0116 26.012 49.2836 25.8 48.7636 25.376C48.2516 24.944 47.9956 24.28 47.9956 23.384C47.9956 22.928 48.1076 22.496 48.3316 22.088C48.5636 21.672 48.8716 21.34 49.2556 21.092C49.6476 20.836 50.0676 20.708 50.5156 20.708C50.9716 20.708 51.3596 20.808 51.6796 21.008C51.9996 21.2 52.1596 21.48 52.1596 21.848C52.1596 22.104 52.1116 22.288 52.0156 22.4C51.9276 22.504 51.8276 22.556 51.7156 22.556C51.7156 22.172 51.6116 21.86 51.4036 21.62C51.1956 21.38 50.8996 21.26 50.5156 21.26C50.1316 21.26 49.7996 21.364 49.5196 21.572C49.2396 21.772 49.0236 22.04 48.8716 22.376C48.7276 22.704 48.6556 23.048 48.6556 23.408C48.6556 24.168 48.9116 24.684 49.4236 24.956C49.9436 25.228 50.6276 25.364 51.4756 25.364C51.7636 25.364 52.1396 25.348 52.6036 25.316C52.6196 25.316 52.6556 25.332 52.7116 25.364C52.7676 25.396 52.8116 25.416 52.8436 25.424V25.496C52.8436 25.728 52.6396 25.872 52.2316 25.928C51.8236 25.984 51.3956 26.012 50.9476 26.012ZM55.8117 26.012C55.3397 26.012 54.9117 25.908 54.5277 25.7C54.1517 25.484 53.8557 25.188 53.6397 24.812C53.4317 24.428 53.3277 23.992 53.3277 23.504C53.3277 22.704 53.6197 22.108 54.2037 21.716C54.7957 21.324 55.5197 21.128 56.3757 21.128C56.7677 21.128 57.1317 21.224 57.4677 21.416C57.8117 21.608 58.0877 21.884 58.2957 22.244C58.5037 22.604 58.6077 23.02 58.6077 23.492C58.6077 24.004 58.4757 24.452 58.2117 24.836C57.9477 25.212 57.5997 25.504 57.1677 25.712C56.7437 25.912 56.2917 26.012 55.8117 26.012ZM55.6797 25.328C56.4237 25.328 56.9877 25.16 57.3717 24.824C57.7557 24.488 57.9477 23.996 57.9477 23.348C57.9477 22.908 57.7957 22.528 57.4917 22.208C57.1957 21.888 56.7797 21.728 56.2437 21.728C55.8837 21.728 55.5197 21.796 55.1517 21.932C54.7837 22.068 54.4797 22.272 54.2397 22.544C53.9997 22.816 53.8797 23.144 53.8797 23.528C53.8797 23.848 53.9597 24.148 54.1197 24.428C54.2797 24.7 54.4957 24.92 54.7677 25.088C55.0477 25.248 55.3517 25.328 55.6797 25.328ZM60.702 26.048C60.59 26.08 60.526 26.096 60.51 26.096C60.446 26.096 60.378 26.064 60.306 26C60.042 25.608 59.85 24.924 59.73 23.948C59.618 22.972 59.562 22.132 59.562 21.428C59.562 21.316 59.642 21.26 59.802 21.26C60.042 21.26 60.162 21.392 60.162 21.656C60.162 21.728 60.158 21.788 60.15 21.836C60.222 21.668 60.358 21.496 60.558 21.32C60.758 21.144 60.99 20.996 61.254 20.876C61.518 20.756 61.786 20.696 62.058 20.696C62.914 20.696 63.538 21.076 63.93 21.836C64.322 22.588 64.518 23.524 64.518 24.644C64.518 25.028 64.478 25.336 64.398 25.568C64.318 25.792 64.21 25.904 64.074 25.904C63.93 25.904 63.858 25.86 63.858 25.772C63.914 25.348 63.942 24.932 63.942 24.524C63.942 23.492 63.762 22.712 63.402 22.184C63.042 21.648 62.566 21.38 61.974 21.38C61.686 21.38 61.406 21.452 61.134 21.596C60.87 21.74 60.654 21.94 60.486 22.196C60.326 22.452 60.246 22.744 60.246 23.072C60.246 23.44 60.266 23.76 60.306 24.032C60.346 24.304 60.41 24.632 60.498 25.016C60.594 25.392 60.662 25.736 60.702 26.048Z" fill="white"/>
</g>
<defs>
<clipPath id="clip0">
<rect width="85" height="36" fill="white"/>
</clipPath>
</defs>
</svg>
