<svg height="200" width="200" viewBox="0 0 316 301" fill="none" xmlns="http://www.w3.org/2000/svg"><g clip-path="url(#clip0)"><path d="M309.063 97.6898C308.966 97.8878 308.966 98.0857 308.867 98.2837C308.768 98.5807 308.768 98.7803 308.768 98.9783C308.768 99.2753 308.867 99.4733 308.867 99.6713C308.966 99.8692 308.966 100.067 309.063 100.265L309.36 100.859C309.459 101.057 309.558 101.158 309.754 101.356C309.898 101.511 310.065 101.645 310.248 101.752L310.84 102.049C311.038 102.148 311.236 102.247 311.432 102.247C311.729 102.346 311.828 102.346 312.124 102.346C312.419 102.346 312.617 102.247 312.815 102.247C313.012 102.146 313.21 102.146 313.408 102.049C313.604 101.948 313.802 101.851 314 101.752C314.196 101.554 314.394 101.455 314.493 101.356C314.648 101.211 314.781 101.043 314.888 100.859L315.185 100.265C315.282 100.067 315.381 99.8692 315.381 99.6713C315.48 99.3743 315.48 99.1746 315.48 98.9783C315.48 98.6814 315.381 98.4817 315.381 98.2837C315.381 98.0857 315.282 97.8878 315.086 97.6898L314.789 97.0958C314.69 96.8979 314.592 96.7989 314.394 96.6009C314.295 96.5002 314.097 96.3039 313.901 96.2032L313.309 95.9063C313.111 95.8073 312.914 95.7083 312.716 95.7083C312.322 95.6093 311.827 95.6093 311.432 95.7083C311.236 95.809 311.038 95.809 310.84 95.9063C310.644 96.007 310.446 96.1043 310.248 96.2032C310.051 96.3039 309.952 96.4029 309.754 96.6009C309.655 96.6999 309.459 96.8979 309.36 97.0958L309.063 97.6898V97.6898ZM309.164 131.246C309.063 131.444 309.063 131.642 308.867 131.84C308.768 132.137 308.768 132.336 308.768 132.534C308.768 132.831 308.867 133.029 308.867 133.227C308.966 133.425 308.966 133.623 309.063 133.821L309.36 134.415C309.459 134.613 309.558 134.714 309.754 134.912C309.898 135.067 310.065 135.201 310.248 135.308L310.84 135.605C311.038 135.704 311.236 135.803 311.432 135.803C311.729 135.902 311.828 135.902 312.124 135.902C312.419 135.902 312.617 135.803 312.815 135.803C313.012 135.702 313.21 135.702 313.408 135.605C313.604 135.504 313.802 135.407 314 135.308C314.196 135.207 314.295 135.11 314.493 134.912C314.648 134.767 314.781 134.599 314.888 134.415L315.185 133.821C315.282 133.623 315.381 133.425 315.381 133.227C315.48 132.93 315.48 132.731 315.48 132.534C315.48 132.236 315.381 132.038 315.381 131.84C315.282 131.642 315.282 131.444 315.185 131.246L314.888 130.652C314.789 130.454 314.69 130.355 314.493 130.157C314.393 130.056 314.196 129.86 314 129.759L313.408 129.462C313.21 129.363 313.012 129.264 312.815 129.264C312.419 129.165 311.926 129.165 311.531 129.264C311.333 129.365 311.137 129.365 310.939 129.462L310.347 129.759C310.15 129.86 310.051 129.959 309.853 130.157C309.754 130.256 309.558 130.454 309.459 130.652L309.162 131.246H309.164ZM309.162 164.802C309.063 165 309.063 165.198 308.867 165.396C308.768 165.693 308.768 165.892 308.768 166.09C308.768 166.387 308.867 166.585 308.867 166.783C308.966 166.981 308.966 167.179 309.063 167.377L309.36 167.971C309.459 168.169 309.558 168.27 309.754 168.468C309.898 168.623 310.065 168.757 310.248 168.864L310.84 169.161C311.038 169.26 311.236 169.359 311.432 169.359C311.729 169.458 311.828 169.458 312.124 169.458C312.419 169.458 312.617 169.359 312.815 169.359C313.012 169.258 313.21 169.258 313.408 169.161C313.604 169.06 313.802 168.963 314 168.864C314.196 168.763 314.295 168.666 314.493 168.468C314.648 168.322 314.781 168.155 314.888 167.971L315.185 167.377C315.282 167.179 315.381 166.981 315.381 166.783C315.48 166.486 315.48 166.287 315.48 166.09C315.48 165.792 315.381 165.594 315.381 165.396C315.282 165.198 315.282 165 315.185 164.802L314.888 164.208C314.789 164.01 314.69 163.911 314.493 163.713C314.393 163.612 314.196 163.416 314 163.315L313.408 163.018C313.21 162.919 313.012 162.82 312.815 162.82C312.419 162.721 311.926 162.721 311.531 162.82C311.333 162.921 311.137 162.921 310.939 163.018L310.347 163.315C310.15 163.416 310.051 163.515 309.853 163.713C309.754 163.812 309.558 164.01 309.459 164.208L309.162 164.802V164.802ZM309.162 196.68C309.063 196.878 309.063 197.177 308.867 197.275C308.768 197.571 308.768 197.77 308.768 197.968C308.768 198.265 308.867 198.463 308.867 198.661C308.966 198.859 308.966 199.057 309.063 199.257L309.36 199.849C309.459 200.047 309.558 200.148 309.754 200.346C309.855 200.447 310.051 200.643 310.248 200.742L310.84 201.039C311.038 201.139 311.236 201.238 311.432 201.238C311.729 201.336 311.828 201.336 312.124 201.336C312.419 201.336 312.617 201.238 312.815 201.238C313.012 201.138 313.21 201.138 313.408 201.037L314 200.742C314.196 200.643 314.295 200.544 314.493 200.346C314.649 200.201 314.782 200.033 314.888 199.849L315.185 199.257C315.282 199.057 315.381 198.859 315.381 198.661C315.48 198.366 315.48 198.166 315.48 197.968C315.48 197.671 315.381 197.473 315.381 197.275C315.282 197.076 315.282 196.878 315.185 196.682L314.888 196.086C314.789 195.888 314.69 195.789 314.493 195.591C314.393 195.492 314.196 195.294 314 195.195L313.408 194.896C313.21 194.799 313.012 194.7 312.815 194.7C312.419 194.599 311.926 194.599 311.531 194.7C311.333 194.799 311.137 194.799 310.939 194.896L310.347 195.195C310.15 195.294 310.051 195.391 309.853 195.591C309.754 195.692 309.558 195.888 309.459 196.086C309.358 196.284 309.261 196.482 309.162 196.682V196.68ZM6.51269 100.265C6.51269 100.067 6.61337 99.8692 6.61337 99.6713C6.71238 99.3743 6.71239 99.1763 6.71239 98.9783C6.71239 98.6814 6.61171 98.4817 6.61171 98.2837C6.61171 98.0857 6.51103 97.8878 6.41035 97.6898C6.31302 97.4918 6.21064 97.2938 6.11163 97.0958C6.01095 96.8979 5.91027 96.7989 5.71057 96.6009C5.60989 96.5002 5.40852 96.3039 5.20883 96.2032L4.60974 95.9063C4.40837 95.8073 4.20701 95.7083 4.00732 95.7083C3.60793 95.6093 3.10619 95.6093 2.70512 95.7083C2.50375 95.809 2.30574 95.809 2.10437 95.9063L1.50361 96.2032C1.30224 96.3039 1.20156 96.4029 1.00187 96.6009C0.901183 96.6999 0.699801 96.8979 0.602473 97.0958L0.30043 97.6898C0.199745 97.8878 0.100732 98.0857 0.100732 98.2837C4.69269e-05 98.5807 5.10216e-05 98.7803 5.10216e-05 98.9783C5.10216e-05 99.2753 0.100732 99.4733 0.100732 99.6713C0.201417 99.8692 0.201409 100.067 0.302094 100.265L0.602473 100.859C0.70148 101.057 0.803854 101.158 1.00187 101.356C1.10255 101.455 1.30392 101.653 1.50361 101.752L2.10437 102.049C2.30574 102.148 2.50543 102.247 2.70512 102.247C3.0055 102.346 3.20519 102.346 3.40656 102.346C3.70694 102.346 3.90663 102.247 4.108 102.247C4.30937 102.146 4.50906 102.146 4.70876 102.049L5.31118 101.752C5.51087 101.651 5.61156 101.554 5.81125 101.356C5.91194 101.255 6.11332 101.057 6.21065 100.859L6.51269 100.265ZM0.394402 131.246C0.394402 131.444 0.293714 131.642 0.0973777 131.84C4.87711e-05 132.137 5.10216e-05 132.336 5.10216e-05 132.534C5.10216e-05 132.831 0.0973777 133.029 0.0973777 133.227C0.198063 133.425 0.198056 133.623 0.295385 133.821L0.590745 134.415C0.69143 134.613 0.788747 134.714 0.986761 134.912C1.13042 135.068 1.29675 135.201 1.48013 135.308L2.07249 135.605C2.2705 135.704 2.46851 135.803 2.66485 135.803C2.96187 135.902 3.15821 135.902 3.35622 135.902C3.65156 135.902 3.84958 135.803 4.0476 135.803C4.24393 135.702 4.44194 135.702 4.63995 135.605C4.83629 135.504 5.0343 135.407 5.23231 135.308C5.43033 135.207 5.52767 135.11 5.72568 134.912C5.82469 134.811 6.02102 134.613 6.12003 134.415L6.41706 133.821C6.51438 133.623 6.61337 133.425 6.61337 133.227C6.71238 132.93 6.71239 132.732 6.71239 132.534C6.71239 132.236 6.61337 132.038 6.61337 131.84C6.61337 131.642 6.51438 131.444 6.41706 131.246L6.12003 130.652C6.02102 130.454 5.92369 130.355 5.72568 130.157C5.625 130.056 5.43033 129.86 5.23231 129.759L4.63995 129.462C4.44194 129.363 4.24393 129.264 4.0476 129.264C3.65157 129.165 3.15821 129.165 2.76386 129.264C2.56585 129.365 2.36784 129.365 2.1715 129.462C1.97517 129.563 1.77546 129.66 1.57912 129.759C1.38111 129.86 1.28211 129.959 1.08578 130.157C0.98677 130.256 0.788743 130.454 0.689736 130.652L0.394402 131.246V131.246ZM0.394402 164.802C0.394402 165 0.293714 165.198 0.0973777 165.396C4.87711e-05 165.693 5.10216e-05 165.892 5.10216e-05 166.09C5.10216e-05 166.387 0.0973777 166.585 0.0973777 166.783C0.198063 166.981 0.198056 167.179 0.295385 167.377L0.590745 167.971C0.69143 168.169 0.788747 168.27 0.986761 168.468C1.13042 168.624 1.29675 168.757 1.48013 168.864L2.07249 169.161C2.2705 169.26 2.46851 169.359 2.66485 169.359C2.96187 169.458 3.15821 169.458 3.35622 169.458C3.65156 169.458 3.84958 169.359 4.0476 169.359C4.24393 169.258 4.44194 169.258 4.63995 169.161C4.83629 169.06 5.0343 168.963 5.23231 168.864C5.43033 168.763 5.52767 168.666 5.72568 168.468C5.82469 168.367 6.02102 168.169 6.12003 167.971L6.41706 167.377C6.51438 167.179 6.61337 166.981 6.61337 166.783C6.71238 166.486 6.71239 166.288 6.71239 166.09C6.71239 165.792 6.61337 165.594 6.61337 165.396C6.61337 165.198 6.51438 165 6.41706 164.802L6.12003 164.208C6.02102 164.01 5.92369 163.911 5.72568 163.713C5.625 163.612 5.43033 163.416 5.23231 163.315L4.63995 163.018C4.44194 162.919 4.24393 162.82 4.0476 162.82C3.65157 162.721 3.15821 162.721 2.76386 162.82C2.56585 162.921 2.36784 162.921 2.1715 163.018C1.97517 163.119 1.77546 163.216 1.57912 163.315C1.38111 163.416 1.28211 163.515 1.08578 163.713C0.98677 163.812 0.788743 164.01 0.689736 164.208L0.394402 164.802ZM0.394402 196.68C0.394402 196.878 0.293714 197.177 0.0973777 197.275C4.87711e-05 197.571 5.10216e-05 197.77 5.10216e-05 197.968C5.10216e-05 198.265 0.0973777 198.463 0.0973777 198.661C0.198063 198.859 0.198056 199.057 0.295385 199.257L0.590745 199.849C0.69143 200.047 0.788747 200.148 0.986761 200.346C1.1303 200.502 1.29664 200.635 1.48013 200.742L2.07249 201.039C2.2705 201.139 2.46851 201.238 2.66485 201.238C2.88753 201.312 3.12178 201.345 3.35622 201.336C3.65156 201.336 3.84958 201.238 4.0476 201.238C4.24393 201.138 4.44194 201.138 4.63995 201.037L5.23231 200.742C5.43033 200.643 5.52767 200.544 5.72568 200.346C5.88108 200.201 6.01399 200.033 6.12003 199.849L6.41706 199.257C6.51438 199.057 6.61337 198.859 6.61337 198.661C6.71238 198.364 6.71239 198.166 6.71239 197.968C6.71239 197.671 6.61337 197.473 6.61337 197.275C6.61337 197.076 6.51438 196.878 6.41706 196.682L6.12003 196.086C6.02102 195.888 5.92369 195.789 5.72568 195.591C5.625 195.492 5.43033 195.294 5.23231 195.195L4.63995 194.896C4.44194 194.799 4.24393 194.7 4.0476 194.7C3.65157 194.599 3.15821 194.599 2.76386 194.7C2.56585 194.799 2.36784 194.799 2.1715 194.896L1.57912 195.195C1.38111 195.294 1.28211 195.391 1.08578 195.591C0.98677 195.692 0.788743 195.888 0.689736 196.086L0.394402 196.682V196.68ZM209.761 293.615C208.871 293.615 208.017 293.968 207.387 294.598C206.758 295.227 206.404 296.08 206.404 296.97C206.404 297.86 206.758 298.714 207.387 299.343C208.017 299.972 208.871 300.326 209.761 300.326C210.651 300.326 211.504 299.972 212.134 299.343C212.763 298.714 213.117 297.86 213.117 296.97C213.117 296.08 212.763 295.227 212.134 294.598C211.504 293.968 210.651 293.615 209.761 293.615ZM171.559 295.67C171.46 295.868 171.46 296.066 171.264 296.266C171.165 296.561 171.165 296.761 171.165 296.959C171.165 297.255 171.264 297.453 171.264 297.651C171.363 297.849 171.363 298.047 171.46 298.245L171.757 298.839C171.856 299.037 171.955 299.138 172.151 299.336C172.295 299.492 172.462 299.625 172.645 299.732L173.237 300.027C173.435 300.128 173.633 300.227 173.829 300.227C174.127 300.326 174.323 300.326 174.521 300.326C174.816 300.326 175.014 300.227 175.212 300.227C175.409 300.126 175.607 300.126 175.805 300.027L176.397 299.732C176.593 299.631 176.692 299.532 176.89 299.336C177.045 299.191 177.178 299.023 177.285 298.839L177.582 298.245C177.679 298.047 177.778 297.849 177.778 297.651C177.877 297.354 177.877 297.157 177.877 296.959C177.877 296.662 177.778 296.464 177.778 296.266C177.778 296.064 177.679 295.868 177.582 295.67L177.285 295.076C177.186 294.878 177.087 294.779 176.89 294.579C176.79 294.482 176.593 294.284 176.397 294.185L175.805 293.888C175.607 293.787 175.409 293.69 175.212 293.69C174.816 293.59 174.323 293.59 173.929 293.69C173.73 293.789 173.534 293.789 173.336 293.888L172.744 294.185C172.547 294.284 172.448 294.383 172.25 294.579C172.151 294.68 171.955 294.878 171.856 295.076L171.559 295.67V295.67ZM137.997 295.67C137.897 295.868 137.897 296.066 137.7 296.266C137.603 296.561 137.603 296.761 137.603 296.959C137.603 297.255 137.7 297.453 137.7 297.651C137.801 297.849 137.801 298.047 137.898 298.245C137.998 298.443 138.097 298.641 138.194 298.839C138.294 299.037 138.392 299.138 138.59 299.336C138.733 299.492 138.9 299.625 139.083 299.732L139.675 300.027C139.873 300.128 140.071 300.227 140.268 300.227C140.565 300.326 140.763 300.326 140.959 300.326C141.256 300.326 141.453 300.227 141.651 300.227C141.847 300.126 142.045 300.126 142.243 300.027L142.835 299.732C143.033 299.631 143.131 299.532 143.329 299.336C143.484 299.191 143.618 299.023 143.725 298.839L144.02 298.245C144.117 298.047 144.218 297.849 144.218 297.651C144.315 297.354 144.315 297.157 144.315 296.959C144.315 296.662 144.218 296.464 144.218 296.266C144.117 296.064 144.117 295.868 144.02 295.67L143.725 295.076C143.624 294.878 143.527 294.779 143.329 294.579C143.23 294.482 143.033 294.284 142.835 294.185L142.243 293.888C142.045 293.787 141.847 293.69 141.651 293.69C141.256 293.59 140.761 293.59 140.367 293.69C140.169 293.789 139.972 293.789 139.774 293.888C139.578 293.987 139.378 294.084 139.182 294.185C138.986 294.284 138.885 294.383 138.689 294.579C138.59 294.68 138.392 294.878 138.294 295.076L137.997 295.67ZM105.719 293.615C104.829 293.615 103.976 293.968 103.346 294.598C102.717 295.227 102.363 296.08 102.363 296.97C102.363 297.86 102.717 298.714 103.346 299.343C103.976 299.972 104.829 300.326 105.719 300.326C106.61 300.326 107.463 299.972 108.093 299.343C108.722 298.714 109.076 297.86 109.076 296.97C109.076 296.08 108.722 295.227 108.093 294.598C107.463 293.968 106.61 293.615 105.719 293.615ZM243.322 65.4341C242.432 65.4341 241.579 65.7876 240.949 66.4169C240.32 67.0462 239.966 67.8997 239.966 68.7897C239.966 69.6797 240.32 70.5332 240.949 71.1625C241.579 71.7918 242.432 72.1453 243.322 72.1453C244.212 72.1453 245.066 71.7918 245.696 71.1625C246.325 70.5332 246.679 69.6797 246.679 68.7897C246.679 67.8997 246.325 67.0462 245.696 66.4169C245.066 65.7876 244.212 65.4341 243.322 65.4341ZM278.562 65.4341C277.672 65.4341 276.818 65.7876 276.189 66.4169C275.56 67.0462 275.206 67.8997 275.206 68.7897C275.206 69.6797 275.56 70.5332 276.189 71.1625C276.818 71.7918 277.672 72.1453 278.562 72.1453C279.452 72.1453 280.306 71.7918 280.935 71.1625C281.565 70.5332 281.918 69.6797 281.918 68.7897C281.918 67.8997 281.565 67.0462 280.935 66.4169C280.306 65.7876 279.452 65.4341 278.562 65.4341V65.4341ZM209.761 65.4341C208.871 65.4341 208.017 65.7876 207.387 66.4169C206.758 67.0462 206.404 67.8997 206.404 68.7897C206.404 69.6797 206.758 70.5332 207.387 71.1625C208.017 71.7918 208.871 72.1453 209.761 72.1453C210.651 72.1453 211.504 71.7918 212.134 71.1625C212.763 70.5332 213.117 69.6797 213.117 68.7897C213.117 67.8997 212.763 67.0462 212.134 66.4169C211.504 65.7876 210.651 65.4341 209.761 65.4341ZM171.559 67.4894C171.46 67.6874 171.46 67.8854 171.264 68.0833C171.165 68.3803 171.165 68.481 171.165 68.778C171.165 69.0749 171.264 69.2729 171.264 69.4709C171.363 69.6689 171.363 69.8668 171.46 70.0648L171.757 70.6588C171.856 70.8568 171.955 70.9574 172.151 71.1554C172.295 71.3109 172.462 71.4444 172.645 71.5514L173.237 71.8483C173.435 71.9473 173.633 72.0463 173.829 72.0463C174.127 72.1453 174.323 72.1453 174.521 72.1453C174.816 72.1453 175.014 72.0463 175.212 72.0463C175.409 71.9456 175.607 71.9456 175.805 71.8483C176.001 71.7477 176.199 71.6503 176.397 71.5514C176.593 71.4507 176.692 71.3534 176.89 71.1554C177.046 71.0102 177.178 70.8428 177.285 70.6588L177.582 70.0648C177.679 69.8668 177.778 69.6689 177.778 69.4709C177.877 69.1739 177.877 69.0749 177.877 68.778C177.877 68.481 177.778 68.2813 177.778 68.0833C177.778 67.8854 177.679 67.6874 177.582 67.4894L177.285 66.8955C177.186 66.6975 177.087 66.5985 176.89 66.4005C176.79 66.2999 176.593 66.1036 176.397 66.0029L175.805 65.7059C175.607 65.6069 175.409 65.5079 175.212 65.5079C174.816 65.409 174.323 65.409 173.929 65.5079C173.73 65.6086 173.534 65.6086 173.336 65.7059L172.744 66.0029C172.547 66.1036 172.448 66.2025 172.25 66.4005C172.151 66.4995 171.955 66.6975 171.856 66.8955L171.559 67.4894V67.4894ZM209.761 95.6345C208.871 95.6345 208.017 95.988 207.387 96.6173C206.758 97.2466 206.404 98.1001 206.404 98.9901C206.404 99.88 206.758 100.734 207.387 101.363C208.017 101.992 208.871 102.346 209.761 102.346C210.651 102.346 211.504 101.992 212.134 101.363C212.763 100.734 213.117 99.88 213.117 98.9901C213.117 98.1001 212.763 97.2466 212.134 96.6173C211.504 95.988 210.651 95.6345 209.761 95.6345ZM278.562 95.6345C277.672 95.6345 276.818 95.988 276.189 96.6173C275.56 97.2466 275.206 98.1001 275.206 98.9901C275.206 99.88 275.56 100.734 276.189 101.363C276.818 101.992 277.672 102.346 278.562 102.346C279.452 102.346 280.306 101.992 280.935 101.363C281.565 100.734 281.918 99.88 281.918 98.9901C281.918 98.1001 281.565 97.2466 280.935 96.6173C280.306 95.988 279.452 95.6345 278.562 95.6345V95.6345ZM243.322 95.6345C242.432 95.6345 241.579 95.988 240.949 96.6173C240.32 97.2466 239.966 98.1001 239.966 98.9901C239.966 99.88 240.32 100.734 240.949 101.363C241.579 101.992 242.432 102.346 243.322 102.346C244.212 102.346 245.066 101.992 245.696 101.363C246.325 100.734 246.679 99.88 246.679 98.9901C246.679 98.1001 246.325 97.2466 245.696 96.6173C245.066 95.988 244.212 95.6345 243.322 95.6345ZM171.559 97.6898C171.46 97.8878 171.46 98.0857 171.264 98.2837C171.165 98.5807 171.165 98.7803 171.165 98.9783C171.165 99.2753 171.264 99.4733 171.264 99.6713C171.363 99.8692 171.363 100.067 171.46 100.265L171.757 100.859C171.856 101.057 171.955 101.158 172.151 101.356C172.295 101.511 172.462 101.645 172.645 101.752L173.237 102.049C173.435 102.148 173.633 102.247 173.829 102.247C174.127 102.346 174.323 102.346 174.521 102.346C174.816 102.346 175.014 102.247 175.212 102.247C175.409 102.146 175.607 102.146 175.805 102.049C176.001 101.948 176.199 101.851 176.397 101.752C176.593 101.651 176.692 101.554 176.89 101.356C177.046 101.211 177.178 101.043 177.285 100.859L177.582 100.265C177.679 100.067 177.778 99.8692 177.778 99.6713C177.877 99.3743 177.877 99.1746 177.877 98.9783C177.877 98.6814 177.778 98.4817 177.778 98.2837C177.778 98.0857 177.679 97.8878 177.582 97.6898L177.285 97.0958C177.186 96.8979 177.087 96.7989 176.89 96.6009C176.79 96.5002 176.593 96.3039 176.397 96.2032L175.805 95.9063C175.607 95.8073 175.409 95.7083 175.212 95.7083C174.816 95.6093 174.323 95.6093 173.929 95.7083C173.73 95.809 173.534 95.809 173.336 95.9063L172.744 96.2032C172.547 96.3039 172.448 96.4029 172.25 96.6009C172.151 96.6999 171.955 96.8979 171.856 97.0958L171.559 97.6898V97.6898ZM209.761 129.19C208.871 129.19 208.017 129.544 207.387 130.173C206.758 130.803 206.404 131.656 206.404 132.546C206.404 133.436 206.758 134.29 207.387 134.919C208.017 135.548 208.871 135.902 209.761 135.902C210.651 135.902 211.504 135.548 212.134 134.919C212.763 134.29 213.117 133.436 213.117 132.546C213.117 131.656 212.763 130.803 212.134 130.173C211.504 129.544 210.651 129.19 209.761 129.19ZM243.322 129.19C242.432 129.19 241.579 129.544 240.949 130.173C240.32 130.803 239.966 131.656 239.966 132.546C239.966 133.436 240.32 134.29 240.949 134.919C241.579 135.548 242.432 135.902 243.322 135.902C244.212 135.902 245.066 135.548 245.696 134.919C246.325 134.29 246.679 133.436 246.679 132.546C246.679 131.656 246.325 130.803 245.696 130.173C245.066 129.544 244.212 129.19 243.322 129.19ZM278.562 129.19C277.672 129.19 276.818 129.544 276.189 130.173C275.56 130.803 275.206 131.656 275.206 132.546C275.206 133.436 275.56 134.29 276.189 134.919C276.818 135.548 277.672 135.902 278.562 135.902C279.452 135.902 280.306 135.548 280.935 134.919C281.565 134.29 281.918 133.436 281.918 132.546C281.918 131.656 281.565 130.803 280.935 130.173C280.306 129.544 279.452 129.19 278.562 129.19V129.19ZM171.559 131.246C171.46 131.444 171.46 131.642 171.264 131.84C171.165 132.137 171.165 132.336 171.165 132.534C171.165 132.831 171.264 133.029 171.264 133.227C171.363 133.425 171.363 133.623 171.46 133.821L171.757 134.415C171.856 134.613 171.955 134.714 172.151 134.912C172.295 135.067 172.462 135.201 172.645 135.308L173.237 135.605C173.435 135.704 173.633 135.803 173.829 135.803C174.127 135.902 174.323 135.902 174.521 135.902C174.816 135.902 175.014 135.803 175.212 135.803C175.409 135.702 175.607 135.702 175.805 135.605C176.001 135.504 176.199 135.407 176.397 135.308C176.593 135.207 176.692 135.11 176.89 134.912C177.046 134.767 177.178 134.599 177.285 134.415L177.582 133.821C177.679 133.623 177.778 133.425 177.778 133.227C177.877 132.93 177.877 132.731 177.877 132.534C177.877 132.236 177.778 132.038 177.778 131.84C177.778 131.642 177.679 131.444 177.582 131.246L177.285 130.652C177.186 130.454 177.087 130.355 176.89 130.157C176.79 130.056 176.593 129.86 176.397 129.759L175.805 129.462C175.607 129.363 175.409 129.264 175.212 129.264C174.816 129.165 174.323 129.165 173.929 129.264C173.73 129.365 173.534 129.365 173.336 129.462L172.744 129.759C172.547 129.86 172.448 129.959 172.25 130.157C172.151 130.256 171.955 130.454 171.856 130.652L171.559 131.246V131.246ZM137.997 67.4894C137.897 67.6874 137.897 67.8854 137.7 68.0833C137.603 68.3803 137.603 68.481 137.603 68.778C137.603 69.0749 137.7 69.2729 137.7 69.4709C137.801 69.6689 137.801 69.8668 137.898 70.0648C137.998 70.2621 138.097 70.4601 138.194 70.6588C138.294 70.8568 138.392 70.9574 138.59 71.1554C138.733 71.3114 138.9 71.4449 139.083 71.5514L139.675 71.8483C139.873 71.9473 140.071 72.0463 140.268 72.0463C140.565 72.1453 140.763 72.1453 140.959 72.1453C141.256 72.1453 141.453 72.0463 141.651 72.0463C141.847 71.9456 142.045 71.9456 142.243 71.8483L142.835 71.5514C143.033 71.4507 143.131 71.3534 143.329 71.1554C143.484 71.0103 143.618 70.8429 143.725 70.6588L144.02 70.0648C144.117 69.8668 144.218 69.6689 144.218 69.4709C144.315 69.1739 144.315 69.0749 144.315 68.778C144.315 68.481 144.218 68.2813 144.218 68.0833C144.117 67.8854 144.117 67.6874 144.02 67.4894L143.725 66.8955C143.624 66.6975 143.527 66.5985 143.329 66.4005C143.185 66.244 143.019 66.1099 142.835 66.0029L142.243 65.7059C142.045 65.6069 141.847 65.5079 141.651 65.5079C141.256 65.409 140.761 65.409 140.367 65.5079C140.169 65.6086 139.972 65.6086 139.774 65.7059L139.182 66.0029C138.986 66.1036 138.885 66.2025 138.689 66.4005C138.59 66.4995 138.392 66.6975 138.294 66.8955L137.997 67.4894ZM105.719 65.4341C104.829 65.4341 103.976 65.7876 103.346 66.4169C102.717 67.0462 102.363 67.8997 102.363 68.7897C102.363 69.6797 102.717 70.5332 103.346 71.1625C103.976 71.7918 104.829 72.1453 105.719 72.1453C106.61 72.1453 107.463 71.7918 108.093 71.1625C108.722 70.5332 109.076 69.6797 109.076 68.7897C109.076 67.8997 108.722 67.0462 108.093 66.4169C107.463 65.7876 106.61 65.4341 105.719 65.4341ZM36.9179 65.4341C35.0418 65.4341 33.5617 66.9139 33.5617 68.7897C33.5617 70.6655 35.0418 72.1453 36.9179 72.1453C38.794 72.1453 40.2741 70.6655 40.2741 68.7897C40.2741 66.9139 38.794 65.4341 36.9179 65.4341ZM72.1577 65.4341C71.2676 65.4341 70.4139 65.7876 69.7845 66.4169C69.1551 67.0462 68.8015 67.8997 68.8015 68.7897C68.8015 69.6797 69.1551 70.5332 69.7845 71.1625C70.4139 71.7918 71.2676 72.1453 72.1577 72.1453C73.0478 72.1453 73.9015 71.7918 74.5309 71.1625C75.1603 70.5332 75.5139 69.6797 75.5139 68.7897C75.5139 67.8997 75.1603 67.0462 74.5309 66.4169C73.9015 65.7876 73.0478 65.4341 72.1577 65.4341ZM137.997 97.6898C137.897 97.8878 137.897 98.0857 137.7 98.2837C137.603 98.5807 137.603 98.7803 137.603 98.9783C137.603 99.2753 137.7 99.4733 137.7 99.6713C137.801 99.8692 137.801 100.067 137.898 100.265C137.998 100.463 138.097 100.66 138.194 100.859C138.294 101.057 138.392 101.158 138.59 101.356C138.733 101.512 138.9 101.645 139.083 101.752L139.675 102.049C139.873 102.148 140.071 102.247 140.268 102.247C140.565 102.346 140.763 102.346 140.959 102.346C141.256 102.346 141.453 102.247 141.651 102.247C141.847 102.146 142.045 102.146 142.243 102.049L142.835 101.752C143.033 101.651 143.131 101.554 143.329 101.356C143.484 101.211 143.618 101.043 143.725 100.859L144.02 100.265C144.117 100.067 144.218 99.8692 144.218 99.6713C144.315 99.3743 144.315 99.1763 144.315 98.9783C144.315 98.6814 144.218 98.4817 144.218 98.2837C144.117 98.0857 144.117 97.8878 144.02 97.6898L143.725 97.0958C143.624 96.8979 143.527 96.7989 143.329 96.6009C143.185 96.4443 143.019 96.3103 142.835 96.2032L142.243 95.9063C142.045 95.8073 141.847 95.7083 141.651 95.7083C141.256 95.6093 140.761 95.6093 140.367 95.7083C140.169 95.809 139.972 95.809 139.774 95.9063L139.182 96.2032C138.986 96.3039 138.885 96.4029 138.689 96.6009C138.59 96.6999 138.392 96.8979 138.294 97.0958L137.997 97.6898ZM36.9179 95.6345C35.0418 95.6345 33.5617 97.1143 33.5617 98.9901C33.5617 100.866 35.0418 102.346 36.9179 102.346C38.794 102.346 40.2741 100.866 40.2741 98.9901C40.2741 97.1143 38.794 95.6345 36.9179 95.6345ZM105.719 95.6345C104.829 95.6345 103.976 95.988 103.346 96.6173C102.717 97.2466 102.363 98.1001 102.363 98.9901C102.363 99.88 102.717 100.734 103.346 101.363C103.976 101.992 104.829 102.346 105.719 102.346C106.61 102.346 107.463 101.992 108.093 101.363C108.722 100.734 109.076 99.88 109.076 98.9901C109.076 98.1001 108.722 97.2466 108.093 96.6173C107.463 95.988 106.61 95.6345 105.719 95.6345ZM72.1577 95.6345C71.2676 95.6345 70.4139 95.988 69.7845 96.6173C69.1551 97.2466 68.8015 98.1001 68.8015 98.9901C68.8015 99.88 69.1551 100.734 69.7845 101.363C70.4139 101.992 71.2676 102.346 72.1577 102.346C73.0478 102.346 73.9015 101.992 74.5309 101.363C75.1603 100.734 75.5139 99.88 75.5139 98.9901C75.5139 98.1001 75.1603 97.2466 74.5309 96.6173C73.9015 95.988 73.0478 95.6345 72.1577 95.6345ZM137.997 131.246C137.897 131.444 137.897 131.642 137.7 131.84C137.603 132.137 137.603 132.336 137.603 132.534C137.603 132.831 137.7 133.029 137.7 133.227C137.801 133.425 137.801 133.623 137.898 133.821C137.998 134.018 138.097 134.216 138.194 134.415C138.294 134.613 138.392 134.714 138.59 134.912C138.733 135.068 138.9 135.201 139.083 135.308L139.675 135.605C139.873 135.704 140.071 135.803 140.268 135.803C140.565 135.902 140.763 135.902 140.959 135.902C141.256 135.902 141.453 135.803 141.651 135.803C141.847 135.702 142.045 135.702 142.243 135.605L142.835 135.308C143.033 135.207 143.131 135.11 143.329 134.912C143.484 134.767 143.618 134.599 143.725 134.415L144.02 133.821C144.117 133.623 144.218 133.425 144.218 133.227C144.315 132.93 144.315 132.732 144.315 132.534C144.315 132.236 144.218 132.038 144.218 131.84C144.117 131.642 144.117 131.444 144.02 131.246L143.725 130.652C143.624 130.454 143.527 130.355 143.329 130.157C143.185 130 143.019 129.866 142.835 129.759L142.243 129.462C142.045 129.363 141.847 129.264 141.651 129.264C141.256 129.165 140.761 129.165 140.367 129.264C140.169 129.365 139.972 129.365 139.774 129.462L139.182 129.759C138.986 129.86 138.885 129.959 138.689 130.157C138.59 130.256 138.392 130.454 138.294 130.652L137.997 131.246V131.246ZM105.719 129.19C104.829 129.19 103.976 129.544 103.346 130.173C102.717 130.803 102.363 131.656 102.363 132.546C102.363 133.436 102.717 134.29 103.346 134.919C103.976 135.548 104.829 135.902 105.719 135.902C106.61 135.902 107.463 135.548 108.093 134.919C108.722 134.29 109.076 133.436 109.076 132.546C109.076 131.656 108.722 130.803 108.093 130.173C107.463 129.544 106.61 129.19 105.719 129.19ZM72.1577 129.19C71.2676 129.19 70.4139 129.544 69.7845 130.173C69.1551 130.803 68.8015 131.656 68.8015 132.546C68.8015 133.436 69.1551 134.29 69.7845 134.919C70.4139 135.548 71.2676 135.902 72.1577 135.902C73.0478 135.902 73.9015 135.548 74.5309 134.919C75.1603 134.29 75.5139 133.436 75.5139 132.546C75.5139 131.656 75.1603 130.803 74.5309 130.173C73.9015 129.544 73.0478 129.19 72.1577 129.19ZM36.9179 129.19C35.0418 129.19 33.5617 130.67 33.5617 132.546C33.5617 134.422 35.0418 135.902 36.9179 135.902C38.794 135.902 40.2741 134.422 40.2741 132.546C40.2741 130.67 38.794 129.19 36.9179 129.19ZM278.562 162.746C276.686 162.746 275.206 164.226 275.206 166.102C275.206 167.978 276.686 169.458 278.562 169.458C280.438 169.458 281.918 167.978 281.918 166.102C281.918 164.226 280.438 162.746 278.562 162.746ZM243.322 162.746C241.545 162.746 240.065 164.226 239.966 166.102C239.966 167.978 241.446 169.458 243.322 169.458C245.198 169.458 246.679 167.978 246.679 166.102C246.679 164.226 245.198 162.746 243.322 162.746ZM209.761 162.746C207.885 162.746 206.404 164.226 206.404 166.102C206.404 167.978 207.885 169.458 209.761 169.458C211.637 169.458 213.117 167.978 213.117 166.102C213.117 164.226 211.637 162.746 209.761 162.746ZM171.559 164.802C171.46 165 171.46 165.198 171.264 165.396C171.165 165.693 171.165 165.892 171.165 166.09C171.165 166.387 171.264 166.585 171.264 166.783C171.363 166.981 171.363 167.179 171.46 167.377L171.757 167.971C171.856 168.169 171.955 168.27 172.151 168.468C172.295 168.623 172.462 168.757 172.645 168.864L173.237 169.161C173.435 169.26 173.633 169.359 173.829 169.359C174.127 169.458 174.323 169.458 174.521 169.458C174.816 169.458 175.014 169.359 175.212 169.359C175.409 169.258 175.607 169.258 175.805 169.161C176.001 169.06 176.199 168.963 176.397 168.864C176.593 168.763 176.692 168.666 176.89 168.468C177.046 168.322 177.178 168.155 177.285 167.971L177.582 167.377C177.679 167.179 177.778 166.981 177.778 166.783C177.877 166.486 177.877 166.287 177.877 166.09C177.877 165.792 177.778 165.594 177.778 165.396C177.778 165.198 177.679 165 177.582 164.802L177.285 164.208C177.186 164.01 177.087 163.911 176.89 163.713C176.79 163.612 176.593 163.416 176.397 163.315L175.805 163.018C175.607 162.919 175.409 162.82 175.212 162.82C174.816 162.721 174.323 162.721 173.929 162.82C173.73 162.921 173.534 162.921 173.336 163.018L172.744 163.315C172.547 163.416 172.448 163.515 172.25 163.713C172.151 163.812 171.955 164.01 171.856 164.208L171.559 164.802V164.802ZM278.562 194.625C277.672 194.625 276.818 194.978 276.189 195.607C275.56 196.237 275.206 197.09 275.206 197.98C275.206 198.87 275.56 199.724 276.189 200.353C276.818 200.982 277.672 201.336 278.562 201.336C279.452 201.336 280.306 200.982 280.935 200.353C281.565 199.724 281.918 198.87 281.918 197.98C281.918 197.09 281.565 196.237 280.935 195.607C280.306 194.978 279.452 194.625 278.562 194.625V194.625ZM209.761 194.625C208.871 194.625 208.017 194.978 207.387 195.607C206.758 196.237 206.404 197.09 206.404 197.98C206.404 198.87 206.758 199.724 207.387 200.353C208.017 200.982 208.871 201.336 209.761 201.336C210.651 201.336 211.504 200.982 212.134 200.353C212.763 199.724 213.117 198.87 213.117 197.98C213.117 197.09 212.763 196.237 212.134 195.607C211.504 194.978 210.651 194.625 209.761 194.625ZM243.322 194.625C242.432 194.625 241.579 194.978 240.949 195.607C240.32 196.237 239.966 197.09 239.966 197.98C239.966 198.87 240.32 199.724 240.949 200.353C241.579 200.982 242.432 201.336 243.322 201.336C244.212 201.336 245.066 200.982 245.696 200.353C246.325 199.724 246.679 198.87 246.679 197.98C246.679 197.09 246.325 196.237 245.696 195.607C245.066 194.978 244.212 194.625 243.322 194.625ZM171.559 196.682C171.46 196.878 171.46 197.177 171.264 197.275C171.165 197.571 171.165 197.77 171.165 197.968C171.165 198.265 171.264 198.463 171.264 198.661C171.363 198.859 171.363 199.057 171.46 199.257L171.757 199.849C171.856 200.047 171.955 200.148 172.151 200.346C172.252 200.447 172.448 200.643 172.645 200.742L173.237 201.039C173.435 201.139 173.633 201.238 173.829 201.238C174.127 201.336 174.323 201.336 174.521 201.336C174.816 201.336 175.014 201.238 175.212 201.238C175.409 201.138 175.607 201.138 175.805 201.037L176.397 200.742C176.593 200.643 176.692 200.544 176.89 200.346C177.046 200.201 177.179 200.033 177.285 199.849L177.582 199.257C177.679 199.057 177.778 198.859 177.778 198.661C177.877 198.364 177.877 198.166 177.877 197.968C177.877 197.671 177.778 197.473 177.778 197.275C177.778 197.076 177.679 196.878 177.582 196.682L177.285 196.086C177.186 195.888 177.087 195.789 176.89 195.591C176.79 195.492 176.593 195.294 176.397 195.195L175.805 194.896C175.607 194.799 175.409 194.7 175.212 194.7C174.816 194.599 174.323 194.599 173.929 194.7C173.73 194.799 173.534 194.799 173.336 194.896L172.744 195.195C172.547 195.294 172.448 195.391 172.25 195.591C172.151 195.692 171.955 195.888 171.856 196.086C171.755 196.284 171.658 196.482 171.559 196.682V196.682ZM209.761 226.503C208.871 226.503 208.017 226.856 207.387 227.486C206.758 228.115 206.404 228.968 206.404 229.858C206.404 230.748 206.758 231.602 207.387 232.231C208.017 232.86 208.871 233.214 209.761 233.214C210.651 233.214 211.504 232.86 212.134 232.231C212.763 231.602 213.117 230.748 213.117 229.858C213.117 228.968 212.763 228.115 212.134 227.486C211.504 226.856 210.651 226.503 209.761 226.503ZM278.562 226.503C277.672 226.503 276.818 226.856 276.189 227.486C275.56 228.115 275.206 228.968 275.206 229.858C275.206 230.748 275.56 231.602 276.189 232.231C276.818 232.86 277.672 233.214 278.562 233.214C279.452 233.214 280.306 232.86 280.935 232.231C281.565 231.602 281.918 230.748 281.918 229.858C281.918 228.968 281.565 228.115 280.935 227.486C280.306 226.856 279.452 226.503 278.562 226.503V226.503ZM243.322 226.503C242.432 226.503 241.579 226.856 240.949 227.486C240.32 228.115 239.966 228.968 239.966 229.858C239.966 230.748 240.32 231.602 240.949 232.231C241.579 232.86 242.432 233.214 243.322 233.214C244.212 233.214 245.066 232.86 245.696 232.231C246.325 231.602 246.679 230.748 246.679 229.858C246.679 228.968 246.325 228.115 245.696 227.486C245.066 226.856 244.212 226.503 243.322 226.503ZM171.559 228.56C171.46 228.756 171.46 228.954 171.264 229.154C171.165 229.449 171.165 229.649 171.165 229.847C171.165 230.144 171.264 230.342 171.264 230.54C171.363 230.738 171.363 230.935 171.46 231.135L171.757 231.727C171.856 231.925 171.955 232.026 172.151 232.224C172.252 232.325 172.448 232.521 172.645 232.62L173.237 232.917C173.435 233.018 173.633 233.117 173.829 233.117C174.127 233.214 174.323 233.214 174.521 233.214C174.816 233.214 175.014 233.117 175.212 233.117C175.409 233.016 175.607 233.016 175.805 232.915L176.397 232.62C176.593 232.521 176.692 232.422 176.89 232.224C177.046 232.079 177.179 231.912 177.285 231.727L177.582 231.135C177.679 230.935 177.778 230.738 177.778 230.54C177.877 230.243 177.877 230.045 177.877 229.847C177.877 229.55 177.778 229.352 177.778 229.154C177.778 228.954 177.679 228.756 177.582 228.56L177.285 227.964C177.186 227.766 177.087 227.667 176.89 227.469C176.79 227.37 176.593 227.172 176.397 227.073L175.805 226.775C175.607 226.677 175.409 226.578 175.212 226.578C174.816 226.478 174.323 226.478 173.929 226.578C173.73 226.677 173.534 226.677 173.336 226.775L172.744 227.073C172.547 227.172 172.448 227.269 172.25 227.469C172.151 227.57 171.955 227.766 171.856 227.964C171.755 228.162 171.658 228.36 171.559 228.56V228.56ZM137.997 164.803C137.897 165 137.897 165.198 137.7 165.396C137.603 165.693 137.603 165.892 137.603 166.09C137.603 166.387 137.7 166.585 137.7 166.783C137.801 166.981 137.801 167.179 137.898 167.377C137.998 167.574 138.097 167.772 138.194 167.971C138.294 168.169 138.392 168.27 138.59 168.468C138.733 168.624 138.9 168.757 139.083 168.864L139.675 169.161C139.873 169.26 140.071 169.359 140.268 169.359C140.565 169.458 140.763 169.458 140.959 169.458C141.256 169.458 141.453 169.359 141.651 169.359C141.847 169.258 142.045 169.258 142.243 169.161L142.835 168.864C143.033 168.763 143.131 168.666 143.329 168.468C143.484 168.323 143.618 168.155 143.725 167.971L144.02 167.377C144.117 167.179 144.218 166.981 144.218 166.783C144.315 166.486 144.315 166.288 144.315 166.09C144.315 165.792 144.218 165.594 144.218 165.396C144.117 165.198 144.117 165 144.02 164.802L143.725 164.208C143.624 164.01 143.527 163.911 143.329 163.713C143.185 163.556 143.019 163.422 142.835 163.315L142.243 163.018C142.045 162.919 141.847 162.82 141.651 162.82C141.256 162.721 140.761 162.721 140.367 162.82C140.169 162.921 139.972 162.921 139.774 163.018C139.578 163.119 139.378 163.216 139.182 163.315C138.986 163.416 138.885 163.515 138.689 163.713C138.59 163.812 138.392 164.01 138.294 164.208L137.997 164.802V164.803ZM36.9179 162.746C35.0418 162.746 33.5617 164.226 33.5617 166.102C33.5617 167.978 35.0418 169.458 36.9179 169.458C38.794 169.458 40.2741 167.978 40.2741 166.102C40.2741 164.226 38.794 162.746 36.9179 162.746ZM72.1577 162.746C70.3806 162.746 68.9005 164.226 68.8015 166.102C68.8015 167.978 70.2816 169.458 72.1577 169.458C74.0338 169.458 75.5139 167.978 75.5139 166.102C75.5139 164.226 74.0338 162.746 72.1577 162.746ZM105.719 162.746C103.843 162.746 102.363 164.226 102.363 166.102C102.363 167.978 103.843 169.458 105.719 169.458C107.595 169.458 109.076 167.978 109.076 166.102C109.076 164.226 107.595 162.746 105.719 162.746ZM137.997 196.682C137.897 196.878 137.897 197.177 137.7 197.275C137.603 197.571 137.603 197.77 137.603 197.968C137.603 198.265 137.7 198.463 137.7 198.661C137.801 198.859 137.801 199.057 137.898 199.257C137.999 199.455 138.096 199.653 138.194 199.849C138.294 200.047 138.392 200.148 138.59 200.346C138.733 200.502 138.9 200.635 139.083 200.742L139.675 201.039C139.873 201.139 140.071 201.238 140.268 201.238C140.565 201.336 140.763 201.336 140.959 201.336C141.256 201.336 141.453 201.238 141.651 201.238C141.847 201.138 142.045 201.138 142.243 201.037L142.835 200.742C143.033 200.643 143.131 200.544 143.329 200.346C143.485 200.201 143.618 200.034 143.725 199.849L144.02 199.257C144.117 199.057 144.218 198.859 144.218 198.661C144.315 198.364 144.315 198.166 144.315 197.968C144.315 197.671 144.218 197.473 144.218 197.275C144.117 197.076 144.117 196.878 144.02 196.682L143.725 196.086C143.624 195.888 143.527 195.789 143.329 195.591C143.23 195.492 143.033 195.294 142.835 195.195L142.243 194.896C142.045 194.799 141.847 194.7 141.651 194.7C141.256 194.599 140.761 194.599 140.367 194.7C140.169 194.799 139.972 194.799 139.774 194.896L139.182 195.195C138.986 195.294 138.885 195.391 138.689 195.591C138.59 195.692 138.392 195.888 138.294 196.086C138.194 196.284 138.096 196.482 137.997 196.682V196.682ZM36.9179 194.625C35.0418 194.625 33.5617 196.104 33.5617 197.98C33.5617 199.856 35.0418 201.336 36.9179 201.336C38.794 201.336 40.2741 199.856 40.2741 197.98C40.2741 196.104 38.794 194.625 36.9179 194.625ZM72.1577 194.625C71.2676 194.625 70.4139 194.978 69.7845 195.607C69.1551 196.237 68.8015 197.09 68.8015 197.98C68.8015 198.87 69.1551 199.724 69.7845 200.353C70.4139 200.982 71.2676 201.336 72.1577 201.336C73.0478 201.336 73.9015 200.982 74.5309 200.353C75.1603 199.724 75.5139 198.87 75.5139 197.98C75.5139 197.09 75.1603 196.237 74.5309 195.607C73.9015 194.978 73.0478 194.625 72.1577 194.625ZM105.719 194.625C104.829 194.625 103.976 194.978 103.346 195.607C102.717 196.237 102.363 197.09 102.363 197.98C102.363 198.87 102.717 199.724 103.346 200.353C103.976 200.982 104.829 201.336 105.719 201.336C106.61 201.336 107.463 200.982 108.093 200.353C108.722 199.724 109.076 198.87 109.076 197.98C109.076 197.09 108.722 196.237 108.093 195.607C107.463 194.978 106.61 194.625 105.719 194.625ZM137.997 228.56C137.897 228.756 137.897 228.954 137.7 229.154C137.603 229.449 137.603 229.649 137.603 229.847C137.603 230.144 137.7 230.342 137.7 230.54C137.801 230.738 137.801 230.935 137.898 231.135C137.999 231.333 138.096 231.531 138.194 231.727C138.294 231.925 138.392 232.026 138.59 232.224C138.733 232.38 138.9 232.514 139.083 232.62L139.675 232.917C139.873 233.018 140.071 233.117 140.268 233.117C140.565 233.214 140.763 233.214 140.959 233.214C141.256 233.214 141.453 233.117 141.651 233.117C141.847 233.016 142.045 233.016 142.243 232.915L142.835 232.62C143.033 232.521 143.131 232.422 143.329 232.224C143.485 232.079 143.618 231.912 143.725 231.727L144.02 231.135C144.117 230.935 144.218 230.738 144.218 230.54C144.315 230.243 144.315 230.045 144.315 229.847C144.315 229.55 144.218 229.352 144.218 229.154C144.117 228.954 144.117 228.756 144.02 228.56L143.725 227.964C143.624 227.766 143.527 227.667 143.329 227.469C143.23 227.37 143.033 227.172 142.835 227.073L142.243 226.775C142.045 226.677 141.847 226.578 141.651 226.578C141.256 226.478 140.761 226.478 140.367 226.578C140.169 226.677 139.972 226.677 139.774 226.775L139.182 227.073C138.986 227.172 138.885 227.269 138.689 227.469C138.59 227.57 138.392 227.766 138.294 227.964C138.194 228.162 138.096 228.36 137.997 228.56V228.56ZM36.9179 226.503C35.0418 226.503 33.5617 227.983 33.5617 229.858C33.5617 231.734 35.0418 233.214 36.9179 233.214C38.794 233.214 40.2741 231.734 40.2741 229.858C40.2741 227.983 38.794 226.503 36.9179 226.503ZM72.1577 226.503C71.2676 226.503 70.4139 226.856 69.7845 227.486C69.1551 228.115 68.8015 228.968 68.8015 229.858C68.8015 230.748 69.1551 231.602 69.7845 232.231C70.4139 232.86 71.2676 233.214 72.1577 233.214C73.0478 233.214 73.9015 232.86 74.5309 232.231C75.1603 231.602 75.5139 230.748 75.5139 229.858C75.5139 228.968 75.1603 228.115 74.5309 227.486C73.9015 226.856 73.0478 226.503 72.1577 226.503ZM105.719 226.503C104.829 226.503 103.976 226.856 103.346 227.486C102.717 228.115 102.363 228.968 102.363 229.858C102.363 230.748 102.717 231.602 103.346 232.231C103.976 232.86 104.829 233.214 105.719 233.214C106.61 233.214 107.463 232.86 108.093 232.231C108.722 231.602 109.076 230.748 109.076 229.858C109.076 228.968 108.722 228.115 108.093 227.486C107.463 226.856 106.61 226.503 105.719 226.503ZM209.761 33.5559C208.871 33.5559 208.017 33.9095 207.387 34.5388C206.758 35.1681 206.404 36.0216 206.404 36.9115C206.404 37.8015 206.758 38.655 207.387 39.2843C208.017 39.9136 208.871 40.2671 209.761 40.2671C210.651 40.2671 211.504 39.9136 212.134 39.2843C212.763 38.655 213.117 37.8015 213.117 36.9115C213.117 36.0216 212.763 35.1681 212.134 34.5388C211.504 33.9095 210.651 33.5559 209.761 33.5559ZM243.322 33.5559C242.432 33.5559 241.579 33.9095 240.949 34.5388C240.32 35.1681 239.966 36.0216 239.966 36.9115C239.966 37.8015 240.32 38.655 240.949 39.2843C241.579 39.9136 242.432 40.2671 243.322 40.2671C244.212 40.2671 245.066 39.9136 245.696 39.2843C246.325 38.655 246.679 37.8015 246.679 36.9115C246.679 36.0216 246.325 35.1681 245.696 34.5388C245.066 33.9095 244.212 33.5559 243.322 33.5559ZM171.559 35.6113C171.46 35.8092 171.46 36.0072 171.264 36.2052C171.165 36.5021 171.165 36.6028 171.165 36.8998C171.165 37.1968 171.264 37.3948 171.264 37.5927C171.363 37.7907 171.363 37.9887 171.46 38.1867L171.757 38.7806C171.856 38.9786 171.955 39.0793 172.151 39.2772C172.295 39.4328 172.462 39.5662 172.645 39.6732L173.237 39.9702C173.435 40.0692 173.633 40.1681 173.829 40.1681C174.127 40.2671 174.323 40.2671 174.521 40.2671C174.816 40.2671 175.014 40.1681 175.212 40.1681C175.409 40.0675 175.607 40.0675 175.805 39.9702C176.001 39.8695 176.199 39.7722 176.397 39.6732C176.593 39.5725 176.692 39.4752 176.89 39.2772C177.046 39.132 177.178 38.9646 177.285 38.7806L177.582 38.1867C177.679 37.9887 177.778 37.7907 177.778 37.5927C177.877 37.2958 177.877 37.1968 177.877 36.8998C177.877 36.6028 177.778 36.4032 177.778 36.2052C177.778 36.0072 177.679 35.8092 177.582 35.6113L177.285 35.0173C177.186 34.8193 177.087 34.7203 176.89 34.5224C176.79 34.4217 176.593 34.2254 176.397 34.1247L175.805 33.8277C175.607 33.7288 175.409 33.6298 175.212 33.6298C174.816 33.5308 174.323 33.5308 173.929 33.6298C173.73 33.7304 173.534 33.7304 173.336 33.8277L172.744 34.1247C172.547 34.2254 172.448 34.3244 172.25 34.5224C172.151 34.6214 171.955 34.8193 171.856 35.0173L171.559 35.6113V35.6113ZM209.761 -2.38419e-05C208.871 -2.38419e-05 208.017 0.353509 207.387 0.982805C206.758 1.6121 206.404 2.46561 206.404 3.35557C206.404 4.24553 206.758 5.09904 207.387 5.72834C208.017 6.35764 208.871 6.71117 209.761 6.71117C210.651 6.71117 211.504 6.35764 212.134 5.72834C212.763 5.09904 213.117 4.24553 213.117 3.35557C213.117 2.46561 212.763 1.6121 212.134 0.982805C211.504 0.353509 210.651 -2.38419e-05 209.761 -2.38419e-05ZM171.559 2.05529C171.46 2.25327 171.46 2.45123 171.264 2.64921C171.165 2.94618 171.165 3.14584 171.165 3.34382C171.165 3.64079 171.264 3.83879 171.264 4.03677C171.363 4.23475 171.363 4.43271 171.46 4.63069L171.757 5.22464C171.856 5.42262 171.955 5.52329 172.151 5.72127C172.295 5.87681 172.462 6.01022 172.645 6.11722L173.237 6.4142C173.435 6.51319 173.633 6.61217 173.829 6.61217C174.127 6.71116 174.323 6.71117 174.521 6.71117C174.816 6.71117 175.014 6.61217 175.212 6.61217C175.409 6.5115 175.607 6.51151 175.805 6.4142C176.001 6.31353 176.199 6.21621 176.397 6.11722C176.593 6.01655 176.692 5.91925 176.89 5.72127C177.046 5.57604 177.178 5.40868 177.285 5.22464L177.582 4.63069C177.679 4.43271 177.778 4.23475 177.778 4.03677C177.877 3.7398 177.877 3.54012 177.877 3.34382C177.877 3.04517 177.778 2.84719 177.778 2.64921C177.778 2.45123 177.679 2.25327 177.582 2.05529L177.285 1.46134C177.186 1.26336 177.087 1.16437 176.89 0.966395C176.79 0.865727 176.593 0.669425 176.397 0.568757L175.805 0.271784C175.607 0.172794 175.409 0.0738099 175.212 0.0738099C174.816 -0.0251802 174.323 -0.0251802 173.929 0.0738099C173.73 0.174478 173.534 0.174471 173.336 0.271784L172.744 0.568757C172.547 0.669425 172.448 0.768415 172.25 0.966395C172.151 1.06538 171.955 1.26336 171.856 1.46134L171.559 2.05529V2.05529ZM209.761 260.059C208.871 260.059 208.017 260.412 207.387 261.042C206.758 261.671 206.404 262.524 206.404 263.414C206.404 264.304 206.758 265.158 207.387 265.787C208.017 266.416 208.871 266.77 209.761 266.77C210.651 266.77 211.504 266.416 212.134 265.787C212.763 265.158 213.117 264.304 213.117 263.414C213.117 262.524 212.763 261.671 212.134 261.042C211.504 260.412 210.651 260.059 209.761 260.059ZM243.322 260.059C242.432 260.059 241.579 260.412 240.949 261.042C240.32 261.671 239.966 262.524 239.966 263.414C239.966 264.304 240.32 265.158 240.949 265.787C241.579 266.416 242.432 266.77 243.322 266.77C244.212 266.77 245.066 266.416 245.696 265.787C246.325 265.158 246.679 264.304 246.679 263.414C246.679 262.524 246.325 261.671 245.696 261.042C245.066 260.412 244.212 260.059 243.322 260.059ZM171.559 262.116C171.46 262.312 171.46 262.51 171.264 262.71C171.165 263.005 171.165 263.106 171.165 263.403C171.165 263.7 171.264 263.898 171.264 264.095C171.363 264.293 171.363 264.491 171.46 264.691L171.757 265.283C171.856 265.481 171.955 265.582 172.151 265.78C172.252 265.881 172.448 266.077 172.645 266.176L173.237 266.473C173.435 266.574 173.633 266.673 173.829 266.673C174.127 266.77 174.323 266.77 174.521 266.77C174.816 266.77 175.014 266.673 175.212 266.673C175.409 266.572 175.607 266.572 175.805 266.471L176.397 266.176C176.593 266.077 176.692 265.978 176.89 265.78C177.046 265.635 177.179 265.468 177.285 265.283L177.582 264.691C177.679 264.491 177.778 264.293 177.778 264.095C177.877 263.799 177.877 263.7 177.877 263.403C177.877 263.106 177.778 262.908 177.778 262.71C177.778 262.51 177.679 262.312 177.582 262.116L177.285 261.52C177.186 261.322 177.087 261.223 176.89 261.025C176.79 260.926 176.593 260.728 176.397 260.629L175.805 260.331C175.607 260.233 175.409 260.134 175.212 260.134C174.816 260.034 174.323 260.034 173.929 260.134C173.73 260.233 173.534 260.233 173.336 260.331L172.744 260.629C172.547 260.728 172.448 260.825 172.25 261.025C172.151 261.126 171.955 261.322 171.856 261.52C171.755 261.718 171.658 261.916 171.559 262.116V262.116ZM137.997 262.116C137.897 262.312 137.897 262.51 137.7 262.71C137.603 263.005 137.603 263.106 137.603 263.403C137.603 263.7 137.7 263.898 137.7 264.095C137.801 264.293 137.801 264.491 137.898 264.691C137.999 264.889 138.096 265.087 138.194 265.283C138.294 265.481 138.392 265.582 138.59 265.78C138.733 265.936 138.9 266.07 139.083 266.176L139.675 266.473C139.873 266.574 140.071 266.673 140.268 266.673C140.565 266.77 140.763 266.77 140.959 266.77C141.256 266.77 141.453 266.673 141.651 266.673C141.847 266.572 142.045 266.572 142.243 266.471L142.835 266.176C143.033 266.077 143.131 265.978 143.329 265.78C143.485 265.635 143.618 265.468 143.725 265.283L144.02 264.691C144.117 264.491 144.218 264.293 144.218 264.095C144.315 263.799 144.315 263.7 144.315 263.403C144.315 263.106 144.218 262.908 144.218 262.71C144.117 262.51 144.117 262.312 144.02 262.116L143.725 261.52C143.624 261.322 143.527 261.223 143.329 261.025C143.23 260.926 143.033 260.728 142.835 260.629L142.243 260.331C142.045 260.233 141.847 260.134 141.651 260.134C141.256 260.034 140.761 260.034 140.367 260.134C140.169 260.233 139.972 260.233 139.774 260.331L139.182 260.629C138.986 260.728 138.885 260.825 138.689 261.025C138.59 261.126 138.392 261.322 138.294 261.52C138.194 261.718 138.096 261.916 137.997 262.116ZM72.1577 260.059C71.2676 260.059 70.4139 260.412 69.7845 261.042C69.1551 261.671 68.8015 262.524 68.8015 263.414C68.8015 264.304 69.1551 265.158 69.7845 265.787C70.4139 266.416 71.2676 266.77 72.1577 266.77C73.0478 266.77 73.9015 266.416 74.5309 265.787C75.1603 265.158 75.5139 264.304 75.5139 263.414C75.5139 262.524 75.1603 261.671 74.5309 261.042C73.9015 260.412 73.0478 260.059 72.1577 260.059ZM105.719 260.059C104.829 260.059 103.976 260.412 103.346 261.042C102.717 261.671 102.363 262.524 102.363 263.414C102.363 264.304 102.717 265.158 103.346 265.787C103.976 266.416 104.829 266.77 105.719 266.77C106.61 266.77 107.463 266.416 108.093 265.787C108.722 265.158 109.076 264.304 109.076 263.414C109.076 262.524 108.722 261.671 108.093 261.042C107.463 260.412 106.61 260.059 105.719 260.059Z" fill="white"/></g><defs><clipPath id="clip0"><rect width="315.48" height="300.326" fill="white" transform="translate(315.48 300.326) rotate(-180)"/></clipPath></defs></svg>