<svg width="592" height="507" viewBox="0 0 592 507" fill="none" xmlns="http://www.w3.org/2000/svg" xmlns:xlink="http://www.w3.org/1999/xlink"><g><g filter="url(#filter0_d)"><path d="M75.6404 220.317H259.016V285.936H75.6404V220.317Z" fill="white"/></g><path d="M90.6921 235.882H97.7981V269.506H90.6921V235.882Z" fill="#64FFDA"/><path opacity="0.7" d="M104.719 235.882H111.825V269.506H104.719V235.882Z" fill="#64FFDA"/><path opacity="0.6" d="M118.751 235.882H125.857V269.506H118.751V235.882Z" fill="#64FFDA"/><path opacity="0.5" d="M132.779 235.882H139.885V269.506H132.779V235.882ZM146.806 235.882H153.912V269.506H146.806V235.882Z" fill="#64FFDA"/><path opacity="0.4" d="M160.833 235.882H167.939V269.506H160.833V235.882Z" fill="#64FFDA"/><path opacity="0.3" d="M174.865 235.882H181.971V269.506H174.865V235.882Z" fill="#64FFDA"/><path d="M233.056 269.594C242.526 269.594 250.203 261.931 250.203 252.477C250.203 243.024 242.526 235.361 233.056 235.361C223.586 235.361 215.909 243.024 215.909 252.477C215.909 261.931 223.586 269.594 233.056 269.594Z" fill="#006DF6"/><g filter="url(#filter1_d)"><path d="M75.6404 152.142H259.016V217.761H75.6404V152.142Z" fill="white"/></g><path d="M90.6921 167.706H97.7981V201.331H90.6921V167.706Z" fill="#64FFDA"/><path opacity="0.7" d="M104.719 167.706H111.825V201.331H104.719V167.706Z" fill="#64FFDA"/><path opacity="0.6" d="M118.751 167.706H125.857V201.331H118.751V167.706Z" fill="#64FFDA"/><path opacity="0.5" d="M132.779 167.706H139.885V201.331H132.779V167.706ZM146.806 167.706H153.912V201.331H146.806V167.706Z" fill="#64FFDA"/><path opacity="0.4" d="M160.833 167.706H167.939V201.331H160.833V167.706Z" fill="#64FFDA"/><path opacity="0.3" d="M174.865 167.706H181.971V201.331H174.865V167.706Z" fill="#64FFDA"/><path d="M233.056 201.423C242.526 201.423 250.203 193.76 250.203 184.307C250.203 174.854 242.526 167.19 233.056 167.19C223.586 167.19 215.909 174.854 215.909 184.307C215.909 193.76 223.586 201.423 233.056 201.423Z" fill="#006DF6"/><g filter="url(#filter2_d)"><path d="M75.6404 83.9667H259.016V149.586H75.6404V83.9667Z" fill="white"/></g><path d="M90.6921 99.5354H97.7981V133.16H90.6921V99.5354Z" fill="#64FFDA"/><path opacity="0.7" d="M104.719 99.5354H111.825V133.16H104.719V99.5354Z" fill="#64FFDA"/><path opacity="0.6" d="M118.751 99.5354H125.857V133.16H118.751V99.5354Z" fill="#64FFDA"/><path opacity="0.5" d="M132.779 99.5354H139.885V133.16H132.779V99.5354ZM146.806 99.5354H153.912V133.16H146.806V99.5354Z" fill="#64FFDA"/><path opacity="0.4" d="M160.833 99.5354H167.939V133.16H160.833V99.5354Z" fill="#64FFDA"/><path opacity="0.3" d="M174.865 99.5354H181.971V133.16H174.865V99.5354Z" fill="#64FFDA"/><path d="M233.056 134.584C243.265 134.584 251.541 126.322 251.541 116.131C251.541 105.941 243.265 97.6792 233.056 97.6792C222.847 97.6792 214.571 105.941 214.571 116.131C214.571 126.322 222.847 134.584 233.056 134.584Z" fill="url(#paint0_linear)"/><path d="M233.056 203.215C243.265 203.215 251.541 194.954 251.541 184.763C251.541 174.572 243.265 166.311 233.056 166.311C222.847 166.311 214.571 174.572 214.571 184.763C214.571 194.954 222.847 203.215 233.056 203.215Z" fill="url(#paint1_linear)"/><path d="M233.056 271.386C243.265 271.386 251.541 263.124 251.541 252.933C251.541 242.743 243.265 234.481 233.056 234.481C222.847 234.481 214.571 242.743 214.571 252.933C214.571 263.124 222.847 271.386 233.056 271.386Z" fill="url(#paint2_linear)"/><path d="M233.056 133.248C242.526 133.248 250.203 125.584 250.203 116.131C250.203 106.678 242.526 99.0149 233.056 99.0149C223.586 99.0149 215.909 106.678 215.909 116.131C215.909 125.584 223.586 133.248 233.056 133.248Z" fill="#006DF6"/><g opacity="0.7"><path opacity="0.7" d="M285.225 152.331H287.993" stroke="#006DF6" stroke-width="4" stroke-linecap="round" stroke-linejoin="round"/><path opacity="0.7" d="M303.396 152.331H380.422" stroke="#006DF6" stroke-width="4" stroke-linecap="round" stroke-linejoin="round" stroke-dasharray="12.52 33.38"/><path opacity="0.7" d="M388.123 152.331H390.892V155.095" stroke="#006DF6" stroke-width="4" stroke-linecap="round" stroke-linejoin="round"/><path opacity="0.7" d="M390.892 169.747V222.851" stroke="#006DF6" stroke-width="4" stroke-linecap="round" stroke-linejoin="round" stroke-dasharray="11.93 31.8"/><path opacity="0.7" d="M390.892 230.175V232.938" stroke="#006DF6" stroke-width="4" stroke-linecap="round" stroke-linejoin="round"/></g><g opacity="0.7"><path opacity="0.7" d="M242.118 360.989L239.35 360.975" stroke="#006DF6" stroke-width="4" stroke-linecap="round" stroke-linejoin="round"/><path opacity="0.7" d="M223.947 360.901L146.926 360.533" stroke="#006DF6" stroke-width="4" stroke-linecap="round" stroke-linejoin="round" stroke-dasharray="12.52 33.38"/><path opacity="0.7" d="M139.22 360.5L136.452 360.487L136.47 357.723" stroke="#006DF6" stroke-width="4" stroke-linecap="round" stroke-linejoin="round"/><path opacity="0.7" d="M136.562 343.541L136.775 311.634" stroke="#006DF6" stroke-width="4" stroke-linecap="round" stroke-linejoin="round" stroke-dasharray="11.55 30.79"/><path opacity="0.7" d="M136.822 304.541L136.84 301.777" stroke="#006DF6" stroke-width="4" stroke-linecap="round" stroke-linejoin="round"/></g><path d="M405.293 369.644C405.293 369.644 410.793 406.714 443.254 419.072H311.748C344.209 406.714 349.709 369.644 349.709 369.644H405.293Z" fill="#E0E0E0"/><path d="M311.106 419.072H443.836V426.902H311.106V419.072Z" fill="url(#paint3_linear)"/><path d="M311.766 419.072H443.254V425.115H311.766V419.072Z" fill="#F5F5F5"/><path d="M484.677 237.871H271.267C269.951 237.871 268.689 238.393 267.759 239.322C266.829 240.25 266.306 241.51 266.306 242.823V377.041C266.306 378.612 266.932 380.119 268.044 381.23C269.157 382.34 270.667 382.965 272.24 382.965H483.703C485.277 382.965 486.786 382.34 487.899 381.23C489.012 380.119 489.637 378.612 489.637 377.041V242.823C489.637 241.51 489.114 240.25 488.184 239.322C487.254 238.393 485.992 237.871 484.677 237.871V237.871Z" fill="url(#paint4_linear)"/><path d="M273.952 239.898H481.068C482.384 239.898 483.646 240.42 484.576 241.348C485.506 242.277 486.029 243.536 486.029 244.85V359.759H268.992V244.854C268.991 244.204 269.119 243.559 269.368 242.958C269.617 242.357 269.982 241.81 270.443 241.35C270.904 240.89 271.451 240.525 272.053 240.275C272.655 240.026 273.3 239.898 273.952 239.898V239.898Z" fill="white"/><path d="M480.095 379.528H274.926C273.352 379.528 271.843 378.904 270.73 377.793C269.617 376.683 268.992 375.176 268.992 373.605V359.759H486.029V373.605C486.029 375.176 485.403 376.683 484.291 377.793C483.178 378.904 481.668 379.528 480.095 379.528V379.528Z" fill="#F5F5F5"/><path d="M279.72 249.608H476.126V346.364H279.72V249.608Z" fill="#006DF6"/><path opacity="0.2" d="M287.491 256.029H476.251V249.576H279.845V346.332H287.491V256.029V256.029Z" fill="white"/><g clip-path="url(#clip1)"><g filter="url(#filter3_dd)"><path d="M495.143 212.735H96.8571C91.4921 212.735 87.1428 217.093 87.1428 222.47V279.663C87.1428 285.039 91.4921 289.398 96.8571 289.398H495.143C500.508 289.398 504.857 285.039 504.857 279.663V222.47C504.857 217.093 500.508 212.735 495.143 212.735Z" fill="black"/></g><path d="M495.143 212.735H96.8571C91.4921 212.735 87.1428 217.093 87.1428 222.47V279.663C87.1428 285.039 91.4921 289.398 96.8571 289.398H495.143C500.508 289.398 504.857 285.039 504.857 279.663V222.47C504.857 217.093 500.508 212.735 495.143 212.735Z" fill="white" stroke="#8E8E91" stroke-opacity="0.2"/><rect x="97" y="230" width="45" height="45" fill="url(#pattern0)"/><path d="M156.583 235.683H152.728L151.921 238H150.123L153.883 228.047H155.435L159.201 238H157.396L156.583 235.683ZM153.213 234.288H156.098L154.655 230.159L153.213 234.288Z" fill="black"/><path d="M165.203 230.604L165.251 231.458C165.798 230.797 166.516 230.467 167.404 230.467C168.945 230.467 169.729 231.349 169.756 233.112V238H168.095V233.208C168.095 232.739 167.992 232.392 167.787 232.169C167.587 231.941 167.256 231.827 166.796 231.827C166.126 231.827 165.627 232.13 165.299 232.736V238H163.638V230.604H165.203Z" fill="black"/><path d="M174.712 238.137C173.659 238.137 172.805 237.806 172.148 237.146C171.497 236.48 171.171 235.596 171.171 234.493V234.288C171.171 233.55 171.312 232.891 171.595 232.312C171.882 231.729 172.283 231.276 172.798 230.952C173.313 230.629 173.887 230.467 174.521 230.467C175.528 230.467 176.305 230.788 176.852 231.431C177.403 232.073 177.679 232.982 177.679 234.158V234.828H172.846C172.896 235.439 173.099 235.922 173.454 236.277C173.814 236.633 174.265 236.811 174.808 236.811C175.569 236.811 176.188 236.503 176.667 235.888L177.562 236.742C177.266 237.184 176.87 237.528 176.373 237.774C175.881 238.016 175.327 238.137 174.712 238.137ZM174.514 231.8C174.058 231.8 173.689 231.959 173.406 232.278C173.128 232.597 172.951 233.042 172.873 233.611H176.038V233.488C176.002 232.932 175.854 232.513 175.594 232.23C175.334 231.943 174.974 231.8 174.514 231.8Z" fill="black"/><path d="M185.472 235.71L186.647 230.604H188.268L186.251 238H184.884L183.298 232.921L181.739 238H180.372L178.349 230.604H179.969L181.165 235.655L182.683 230.604H183.934L185.472 235.71Z" fill="black"/><path d="M197.346 237.275C196.858 237.85 196.165 238.137 195.268 238.137C194.465 238.137 193.857 237.902 193.442 237.433C193.032 236.963 192.827 236.284 192.827 235.396V230.604H194.488V235.375C194.488 236.314 194.878 236.783 195.657 236.783C196.464 236.783 197.008 236.494 197.291 235.915V230.604H198.952V238H197.387L197.346 237.275Z" fill="black"/><path d="M207.121 234.377C207.121 235.521 206.861 236.435 206.342 237.118C205.822 237.797 205.125 238.137 204.25 238.137C203.439 238.137 202.789 237.87 202.302 237.337V240.844H200.641V230.604H202.172L202.24 231.355C202.728 230.763 203.391 230.467 204.229 230.467C205.132 230.467 205.838 230.804 206.349 231.479C206.864 232.148 207.121 233.08 207.121 234.274V234.377ZM205.467 234.233C205.467 233.495 205.319 232.91 205.022 232.477C204.731 232.044 204.312 231.827 203.765 231.827C203.086 231.827 202.598 232.107 202.302 232.668V235.949C202.603 236.523 203.095 236.811 203.778 236.811C204.307 236.811 204.719 236.599 205.016 236.175C205.316 235.746 205.467 235.099 205.467 234.233Z" fill="black"/><path d="M208.222 234.247C208.222 233.108 208.486 232.194 209.015 231.506C209.543 230.813 210.252 230.467 211.141 230.467C211.924 230.467 212.558 230.74 213.041 231.287V227.5H214.702V238H213.198L213.116 237.234C212.619 237.836 211.956 238.137 211.127 238.137C210.261 238.137 209.559 237.788 209.021 237.091C208.488 236.394 208.222 235.446 208.222 234.247ZM209.883 234.391C209.883 235.143 210.026 235.73 210.313 236.154C210.605 236.574 211.018 236.783 211.551 236.783C212.23 236.783 212.727 236.48 213.041 235.874V232.716C212.736 232.123 212.243 231.827 211.564 231.827C211.027 231.827 210.612 232.041 210.32 232.47C210.029 232.894 209.883 233.534 209.883 234.391Z" fill="black"/><path d="M220.854 238C220.782 237.859 220.718 237.629 220.663 237.31C220.134 237.861 219.487 238.137 218.722 238.137C217.979 238.137 217.373 237.925 216.903 237.501C216.434 237.077 216.199 236.553 216.199 235.929C216.199 235.14 216.491 234.536 217.074 234.117C217.662 233.693 218.501 233.481 219.59 233.481H220.608V232.996C220.608 232.613 220.501 232.308 220.287 232.08C220.073 231.848 219.747 231.731 219.31 231.731C218.931 231.731 218.621 231.827 218.38 232.019C218.138 232.205 218.018 232.445 218.018 232.736H216.356C216.356 232.331 216.491 231.952 216.76 231.602C217.029 231.246 217.393 230.968 217.854 230.768C218.318 230.567 218.836 230.467 219.405 230.467C220.271 230.467 220.962 230.686 221.477 231.123C221.992 231.556 222.256 232.167 222.27 232.955V236.291C222.27 236.956 222.363 237.487 222.55 237.884V238H220.854ZM219.029 236.804C219.357 236.804 219.665 236.724 219.952 236.564C220.244 236.405 220.463 236.191 220.608 235.922V234.527H219.713C219.098 234.527 218.635 234.634 218.325 234.849C218.015 235.063 217.86 235.366 217.86 235.758C217.86 236.077 217.965 236.332 218.175 236.523C218.389 236.71 218.674 236.804 219.029 236.804Z" fill="black"/><path d="M226.091 228.806V230.604H227.396V231.834H226.091V235.963C226.091 236.245 226.146 236.451 226.255 236.578C226.369 236.701 226.569 236.763 226.856 236.763C227.048 236.763 227.242 236.74 227.438 236.694V237.979C227.059 238.084 226.695 238.137 226.344 238.137C225.068 238.137 224.43 237.433 224.43 236.024V231.834H223.213V230.604H224.43V228.806H226.091Z" fill="black"/><path d="M231.929 238.137C230.876 238.137 230.021 237.806 229.365 237.146C228.714 236.48 228.388 235.596 228.388 234.493V234.288C228.388 233.55 228.529 232.891 228.812 232.312C229.099 231.729 229.5 231.276 230.015 230.952C230.53 230.629 231.104 230.467 231.737 230.467C232.744 230.467 233.521 230.788 234.068 231.431C234.62 232.073 234.896 232.982 234.896 234.158V234.828H230.062C230.113 235.439 230.315 235.922 230.671 236.277C231.031 236.633 231.482 236.811 232.024 236.811C232.785 236.811 233.405 236.503 233.884 235.888L234.779 236.742C234.483 237.184 234.087 237.528 233.59 237.774C233.098 238.016 232.544 238.137 231.929 238.137ZM231.73 231.8C231.275 231.8 230.906 231.959 230.623 232.278C230.345 232.597 230.167 233.042 230.09 233.611H233.255V233.488C233.218 232.932 233.07 232.513 232.811 232.23C232.551 231.943 232.191 231.8 231.73 231.8Z" fill="black"/><path d="M241.444 238H239.783V230.604H241.444V238ZM239.681 228.683C239.681 228.427 239.76 228.215 239.92 228.047C240.084 227.878 240.316 227.794 240.617 227.794C240.918 227.794 241.15 227.878 241.314 228.047C241.479 228.215 241.561 228.427 241.561 228.683C241.561 228.933 241.479 229.143 241.314 229.312C241.15 229.476 240.918 229.558 240.617 229.558C240.316 229.558 240.084 229.476 239.92 229.312C239.76 229.143 239.681 228.933 239.681 228.683Z" fill="black"/><path d="M247.405 235.99C247.405 235.694 247.282 235.468 247.036 235.313C246.795 235.159 246.391 235.022 245.826 234.903C245.261 234.785 244.789 234.634 244.411 234.452C243.582 234.051 243.167 233.47 243.167 232.709C243.167 232.071 243.436 231.538 243.974 231.109C244.511 230.681 245.195 230.467 246.024 230.467C246.909 230.467 247.622 230.686 248.164 231.123C248.711 231.561 248.984 232.128 248.984 232.825H247.323C247.323 232.506 247.205 232.242 246.968 232.032C246.731 231.818 246.416 231.711 246.024 231.711C245.66 231.711 245.361 231.795 245.129 231.964C244.901 232.132 244.787 232.358 244.787 232.641C244.787 232.896 244.894 233.094 245.108 233.235C245.323 233.377 245.756 233.52 246.407 233.666C247.059 233.807 247.569 233.978 247.938 234.179C248.312 234.375 248.588 234.612 248.766 234.89C248.948 235.168 249.039 235.505 249.039 235.901C249.039 236.567 248.763 237.107 248.212 237.521C247.66 237.932 246.938 238.137 246.045 238.137C245.439 238.137 244.899 238.027 244.425 237.809C243.951 237.59 243.582 237.289 243.317 236.906C243.053 236.523 242.921 236.111 242.921 235.669H244.534C244.557 236.061 244.705 236.364 244.979 236.578C245.252 236.788 245.614 236.893 246.065 236.893C246.503 236.893 246.836 236.811 247.063 236.646C247.291 236.478 247.405 236.259 247.405 235.99Z" fill="black"/><path d="M257.851 232.121C257.632 232.085 257.406 232.066 257.174 232.066C256.413 232.066 255.9 232.358 255.636 232.941V238H253.975V230.604H255.561L255.602 231.431C256.003 230.788 256.559 230.467 257.27 230.467C257.507 230.467 257.702 230.499 257.857 230.562L257.851 232.121Z" fill="black"/><path d="M262.021 238.137C260.968 238.137 260.113 237.806 259.457 237.146C258.805 236.48 258.479 235.596 258.479 234.493V234.288C258.479 233.55 258.621 232.891 258.903 232.312C259.19 231.729 259.591 231.276 260.106 230.952C260.621 230.629 261.196 230.467 261.829 230.467C262.836 230.467 263.613 230.788 264.16 231.431C264.712 232.073 264.987 232.982 264.987 234.158V234.828H260.154C260.204 235.439 260.407 235.922 260.763 236.277C261.123 236.633 261.574 236.811 262.116 236.811C262.877 236.811 263.497 236.503 263.976 235.888L264.871 236.742C264.575 237.184 264.178 237.528 263.682 237.774C263.189 238.016 262.636 238.137 262.021 238.137ZM261.822 231.8C261.367 231.8 260.997 231.959 260.715 232.278C260.437 232.597 260.259 233.042 260.182 233.611H263.347V233.488C263.31 232.932 263.162 232.513 262.902 232.23C262.643 231.943 262.283 231.8 261.822 231.8Z" fill="black"/><path d="M270.702 238C270.629 237.859 270.565 237.629 270.511 237.31C269.982 237.861 269.335 238.137 268.569 238.137C267.826 238.137 267.22 237.925 266.751 237.501C266.282 237.077 266.047 236.553 266.047 235.929C266.047 235.14 266.339 234.536 266.922 234.117C267.51 233.693 268.348 233.481 269.438 233.481H270.456V232.996C270.456 232.613 270.349 232.308 270.135 232.08C269.921 231.848 269.595 231.731 269.157 231.731C268.779 231.731 268.469 231.827 268.228 232.019C267.986 232.205 267.865 232.445 267.865 232.736H266.204C266.204 232.331 266.339 231.952 266.607 231.602C266.876 231.246 267.241 230.968 267.701 230.768C268.166 230.567 268.683 230.467 269.253 230.467C270.119 230.467 270.809 230.686 271.324 231.123C271.839 231.556 272.104 232.167 272.117 232.955V236.291C272.117 236.956 272.211 237.487 272.397 237.884V238H270.702ZM268.877 236.804C269.205 236.804 269.513 236.724 269.8 236.564C270.091 236.405 270.31 236.191 270.456 235.922V234.527H269.561C268.945 234.527 268.483 234.634 268.173 234.849C267.863 235.063 267.708 235.366 267.708 235.758C267.708 236.077 267.813 236.332 268.022 236.523C268.237 236.71 268.521 236.804 268.877 236.804Z" fill="black"/><path d="M273.546 234.247C273.546 233.108 273.81 232.194 274.339 231.506C274.868 230.813 275.576 230.467 276.465 230.467C277.249 230.467 277.882 230.74 278.365 231.287V227.5H280.026V238H278.522L278.44 237.234C277.944 237.836 277.281 238.137 276.451 238.137C275.585 238.137 274.883 237.788 274.346 237.091C273.812 236.394 273.546 235.446 273.546 234.247ZM275.207 234.391C275.207 235.143 275.351 235.73 275.638 236.154C275.929 236.574 276.342 236.783 276.875 236.783C277.554 236.783 278.051 236.48 278.365 235.874V232.716C278.06 232.123 277.568 231.827 276.889 231.827C276.351 231.827 275.936 232.041 275.645 232.47C275.353 232.894 275.207 233.534 275.207 234.391Z" fill="black"/><path d="M284.347 235.621L285.851 230.604H287.621L284.682 239.121C284.23 240.365 283.465 240.987 282.385 240.987C282.143 240.987 281.877 240.946 281.585 240.864V239.579L281.899 239.6C282.319 239.6 282.633 239.522 282.843 239.367C283.057 239.217 283.226 238.962 283.349 238.602L283.588 237.966L280.99 230.604H282.781L284.347 235.621Z" fill="black"/><path d="M294.149 228.806V230.604H295.455V231.834H294.149V235.963C294.149 236.245 294.204 236.451 294.313 236.578C294.427 236.701 294.628 236.763 294.915 236.763C295.106 236.763 295.3 236.74 295.496 236.694V237.979C295.118 238.084 294.753 238.137 294.402 238.137C293.126 238.137 292.488 237.433 292.488 236.024V231.834H291.271V230.604H292.488V228.806H294.149Z" fill="black"/><path d="M296.214 234.233C296.214 233.509 296.357 232.857 296.645 232.278C296.932 231.695 297.335 231.248 297.854 230.938C298.374 230.624 298.971 230.467 299.646 230.467C300.644 230.467 301.452 230.788 302.072 231.431C302.697 232.073 303.034 232.925 303.084 233.987L303.091 234.377C303.091 235.106 302.95 235.758 302.667 236.332C302.389 236.906 301.988 237.351 301.464 237.665C300.944 237.979 300.343 238.137 299.659 238.137C298.616 238.137 297.779 237.79 297.15 237.098C296.526 236.4 296.214 235.473 296.214 234.315V234.233ZM297.875 234.377C297.875 235.138 298.032 235.735 298.347 236.168C298.661 236.596 299.099 236.811 299.659 236.811C300.22 236.811 300.655 236.592 300.965 236.154C301.279 235.717 301.437 235.076 301.437 234.233C301.437 233.486 301.275 232.894 300.951 232.456C300.632 232.019 300.197 231.8 299.646 231.8C299.103 231.8 298.673 232.016 298.354 232.449C298.035 232.878 297.875 233.52 297.875 234.377Z" fill="black"/><path d="M309.749 238H308.088V230.604H309.749V238ZM307.985 228.683C307.985 228.427 308.065 228.215 308.225 228.047C308.389 227.878 308.621 227.794 308.922 227.794C309.223 227.794 309.455 227.878 309.619 228.047C309.783 228.215 309.865 228.427 309.865 228.683C309.865 228.933 309.783 229.143 309.619 229.312C309.455 229.476 309.223 229.558 308.922 229.558C308.621 229.558 308.389 229.476 308.225 229.312C308.065 229.143 307.985 228.933 307.985 228.683Z" fill="black"/><path d="M313.105 230.604L313.153 231.458C313.7 230.797 314.418 230.467 315.307 230.467C316.847 230.467 317.631 231.349 317.658 233.112V238H315.997V233.208C315.997 232.739 315.895 232.392 315.689 232.169C315.489 231.941 315.159 231.827 314.698 231.827C314.028 231.827 313.529 232.13 313.201 232.736V238H311.54V230.604H313.105Z" fill="black"/><path d="M323.503 235.99C323.503 235.694 323.38 235.468 323.134 235.313C322.892 235.159 322.489 235.022 321.924 234.903C321.359 234.785 320.887 234.634 320.509 234.452C319.679 234.051 319.265 233.47 319.265 232.709C319.265 232.071 319.534 231.538 320.071 231.109C320.609 230.681 321.293 230.467 322.122 230.467C323.006 230.467 323.719 230.686 324.262 231.123C324.809 231.561 325.082 232.128 325.082 232.825H323.421C323.421 232.506 323.302 232.242 323.065 232.032C322.828 231.818 322.514 231.711 322.122 231.711C321.757 231.711 321.459 231.795 321.227 231.964C320.999 232.132 320.885 232.358 320.885 232.641C320.885 232.896 320.992 233.094 321.206 233.235C321.42 233.377 321.853 233.52 322.505 233.666C323.157 233.807 323.667 233.978 324.036 234.179C324.41 234.375 324.686 234.612 324.863 234.89C325.046 235.168 325.137 235.505 325.137 235.901C325.137 236.567 324.861 237.107 324.31 237.521C323.758 237.932 323.036 238.137 322.143 238.137C321.536 238.137 320.996 238.027 320.522 237.809C320.049 237.59 319.679 237.289 319.415 236.906C319.151 236.523 319.019 236.111 319.019 235.669H320.632C320.655 236.061 320.803 236.364 321.076 236.578C321.35 236.788 321.712 236.893 322.163 236.893C322.601 236.893 322.933 236.811 323.161 236.646C323.389 236.478 323.503 236.259 323.503 235.99Z" fill="black"/><path d="M328.671 228.806V230.604H329.977V231.834H328.671V235.963C328.671 236.245 328.726 236.451 328.835 236.578C328.949 236.701 329.149 236.763 329.437 236.763C329.628 236.763 329.822 236.74 330.018 236.694V237.979C329.639 238.084 329.275 238.137 328.924 238.137C327.648 238.137 327.01 237.433 327.01 236.024V231.834H325.793V230.604H327.01V228.806H328.671Z" fill="black"/><path d="M335.671 238C335.598 237.859 335.534 237.629 335.479 237.31C334.951 237.861 334.304 238.137 333.538 238.137C332.795 238.137 332.189 237.925 331.72 237.501C331.25 237.077 331.016 236.553 331.016 235.929C331.016 235.14 331.307 234.536 331.891 234.117C332.479 233.693 333.317 233.481 334.406 233.481H335.425V232.996C335.425 232.613 335.318 232.308 335.104 232.08C334.889 231.848 334.563 231.731 334.126 231.731C333.748 231.731 333.438 231.827 333.196 232.019C332.955 232.205 332.834 232.445 332.834 232.736H331.173C331.173 232.331 331.307 231.952 331.576 231.602C331.845 231.246 332.21 230.968 332.67 230.768C333.135 230.567 333.652 230.467 334.222 230.467C335.088 230.467 335.778 230.686 336.293 231.123C336.808 231.556 337.072 232.167 337.086 232.955V236.291C337.086 236.956 337.179 237.487 337.366 237.884V238H335.671ZM333.846 236.804C334.174 236.804 334.481 236.724 334.769 236.564C335.06 236.405 335.279 236.191 335.425 235.922V234.527H334.529C333.914 234.527 333.451 234.634 333.142 234.849C332.832 235.063 332.677 235.366 332.677 235.758C332.677 236.077 332.782 236.332 332.991 236.523C333.205 236.71 333.49 236.804 333.846 236.804Z" fill="black"/><path d="M340.593 238H338.932V227.5H340.593V238Z" fill="black"/><path d="M344.175 238H342.514V227.5H344.175V238Z" fill="black"/><path d="M157.458 250.761H154.488V259H153.275V250.761H150.311V249.758H157.458V250.761Z" fill="black"/><path d="M162.162 259C162.094 258.865 162.039 258.623 161.997 258.276C161.451 258.843 160.799 259.127 160.042 259.127C159.365 259.127 158.808 258.937 158.373 258.556C157.941 258.171 157.725 257.684 157.725 257.096C157.725 256.381 157.996 255.826 158.538 255.433C159.083 255.035 159.849 254.836 160.835 254.836H161.978V254.296C161.978 253.886 161.855 253.56 161.61 253.319C161.364 253.073 161.003 252.951 160.524 252.951C160.105 252.951 159.754 253.056 159.471 253.268C159.187 253.48 159.045 253.736 159.045 254.036H157.865C157.865 253.693 157.985 253.363 158.227 253.046C158.472 252.724 158.802 252.47 159.217 252.284C159.636 252.098 160.095 252.005 160.594 252.005C161.386 252.005 162.006 252.204 162.454 252.602C162.903 252.995 163.135 253.539 163.152 254.233V257.394C163.152 258.025 163.233 258.526 163.394 258.898V259H162.162ZM160.213 258.105C160.582 258.105 160.931 258.01 161.261 257.819C161.591 257.629 161.83 257.381 161.978 257.077V255.667H161.058C159.619 255.667 158.899 256.089 158.899 256.931C158.899 257.299 159.022 257.587 159.268 257.794C159.513 258.001 159.828 258.105 160.213 258.105Z" fill="black"/><path d="M166.104 252.132L166.142 252.995C166.667 252.335 167.352 252.005 168.199 252.005C169.65 252.005 170.382 252.824 170.395 254.461V259H169.221V254.455C169.216 253.96 169.102 253.594 168.878 253.357C168.658 253.12 168.313 253.001 167.843 253.001C167.462 253.001 167.128 253.103 166.84 253.306C166.553 253.509 166.328 253.776 166.167 254.106V259H164.993V252.132H166.104Z" fill="black"/><path d="M171.88 255.509C171.88 254.455 172.13 253.609 172.629 252.97C173.129 252.326 173.783 252.005 174.591 252.005C175.395 252.005 176.032 252.28 176.501 252.83V249.25H177.676V259H176.597L176.54 258.264C176.07 258.839 175.416 259.127 174.578 259.127C173.783 259.127 173.133 258.801 172.629 258.149C172.13 257.498 171.88 256.647 171.88 255.598V255.509ZM173.055 255.642C173.055 256.421 173.215 257.03 173.537 257.47C173.859 257.91 174.303 258.13 174.87 258.13C175.615 258.13 176.159 257.796 176.501 257.127V253.973C176.15 253.325 175.611 253.001 174.883 253.001C174.307 253.001 173.859 253.224 173.537 253.668C173.215 254.112 173.055 254.77 173.055 255.642Z" fill="black"/><path d="M182.354 259.127C181.423 259.127 180.666 258.822 180.082 258.213C179.498 257.599 179.206 256.78 179.206 255.756V255.541C179.206 254.859 179.335 254.252 179.593 253.719C179.855 253.181 180.219 252.762 180.685 252.462C181.154 252.157 181.662 252.005 182.208 252.005C183.101 252.005 183.795 252.299 184.29 252.887C184.785 253.475 185.033 254.318 185.033 255.414V255.902H180.38C180.397 256.579 180.594 257.127 180.97 257.546C181.351 257.961 181.833 258.168 182.417 258.168C182.832 258.168 183.183 258.084 183.471 257.915C183.759 257.745 184.011 257.521 184.227 257.242L184.944 257.8C184.368 258.685 183.505 259.127 182.354 259.127ZM182.208 252.97C181.734 252.97 181.336 253.143 181.015 253.49C180.693 253.833 180.494 254.315 180.418 254.938H183.858V254.849C183.825 254.252 183.664 253.791 183.376 253.465C183.088 253.135 182.699 252.97 182.208 252.97Z" fill="black"/><path d="M187.502 252.132L187.534 252.894C188.037 252.301 188.716 252.005 189.571 252.005C190.532 252.005 191.186 252.373 191.533 253.109C191.761 252.779 192.057 252.513 192.421 252.31C192.79 252.106 193.223 252.005 193.723 252.005C195.229 252.005 195.995 252.803 196.021 254.398V259H194.846V254.468C194.846 253.977 194.734 253.611 194.51 253.37C194.285 253.124 193.909 253.001 193.38 253.001C192.944 253.001 192.582 253.133 192.294 253.395C192.007 253.653 191.84 254.002 191.793 254.442V259H190.612V254.5C190.612 253.501 190.124 253.001 189.146 253.001C188.376 253.001 187.849 253.329 187.565 253.985V259H186.391V252.132H187.502Z" fill="black"/><path d="M203.289 257.407L204.99 252.132H206.189L203.727 259H202.832L200.343 252.132H201.543L203.289 257.407Z" fill="black"/><path d="M210.081 259.127C209.15 259.127 208.392 258.822 207.808 258.213C207.224 257.599 206.932 256.78 206.932 255.756V255.541C206.932 254.859 207.061 254.252 207.319 253.719C207.582 253.181 207.946 252.762 208.411 252.462C208.881 252.157 209.389 252.005 209.935 252.005C210.827 252.005 211.521 252.299 212.017 252.887C212.512 253.475 212.759 254.318 212.759 255.414V255.902H208.106C208.123 256.579 208.32 257.127 208.697 257.546C209.078 257.961 209.56 258.168 210.144 258.168C210.559 258.168 210.91 258.084 211.198 257.915C211.486 257.745 211.737 257.521 211.953 257.242L212.67 257.8C212.095 258.685 211.232 259.127 210.081 259.127ZM209.935 252.97C209.461 252.97 209.063 253.143 208.741 253.49C208.42 253.833 208.221 254.315 208.145 254.938H211.585V254.849C211.551 254.252 211.39 253.791 211.103 253.465C210.815 253.135 210.425 252.97 209.935 252.97Z" fill="black"/><path d="M217.444 253.186C217.266 253.156 217.074 253.141 216.866 253.141C216.096 253.141 215.573 253.469 215.298 254.125V259H214.124V252.132H215.267L215.286 252.925C215.671 252.312 216.217 252.005 216.923 252.005C217.152 252.005 217.325 252.035 217.444 252.094V253.186Z" fill="black"/><path d="M222.528 257.178C222.528 256.861 222.408 256.615 222.167 256.442C221.93 256.264 221.513 256.112 220.916 255.985C220.324 255.858 219.852 255.706 219.5 255.528C219.153 255.35 218.895 255.139 218.726 254.893C218.561 254.648 218.479 254.356 218.479 254.017C218.479 253.454 218.715 252.978 219.189 252.589C219.668 252.2 220.277 252.005 221.018 252.005C221.796 252.005 222.427 252.206 222.909 252.608C223.396 253.01 223.639 253.524 223.639 254.15H222.458C222.458 253.829 222.321 253.552 222.046 253.319C221.775 253.086 221.432 252.97 221.018 252.97C220.59 252.97 220.256 253.063 220.015 253.249C219.773 253.435 219.653 253.679 219.653 253.979C219.653 254.263 219.765 254.476 219.989 254.62C220.214 254.764 220.618 254.902 221.202 255.033C221.79 255.164 222.266 255.32 222.63 255.502C222.994 255.684 223.263 255.904 223.436 256.163C223.614 256.417 223.703 256.728 223.703 257.096C223.703 257.709 223.457 258.202 222.966 258.575C222.475 258.943 221.839 259.127 221.056 259.127C220.506 259.127 220.019 259.03 219.596 258.835C219.173 258.64 218.84 258.369 218.599 258.022C218.362 257.671 218.244 257.292 218.244 256.886H219.418C219.439 257.28 219.596 257.593 219.888 257.826C220.184 258.054 220.573 258.168 221.056 258.168C221.5 258.168 221.855 258.08 222.122 257.902C222.393 257.72 222.528 257.479 222.528 257.178Z" fill="black"/><path d="M226.508 259H225.334V252.132H226.508V259ZM225.239 250.31C225.239 250.12 225.296 249.959 225.41 249.828C225.529 249.696 225.702 249.631 225.931 249.631C226.159 249.631 226.333 249.696 226.451 249.828C226.57 249.959 226.629 250.12 226.629 250.31C226.629 250.5 226.57 250.659 226.451 250.786C226.333 250.913 226.159 250.977 225.931 250.977C225.702 250.977 225.529 250.913 225.41 250.786C225.296 250.659 225.239 250.5 225.239 250.31Z" fill="black"/><path d="M228.083 255.502C228.083 254.83 228.214 254.224 228.476 253.687C228.743 253.15 229.111 252.735 229.581 252.443C230.055 252.151 230.594 252.005 231.199 252.005C232.134 252.005 232.89 252.329 233.465 252.976C234.045 253.624 234.335 254.485 234.335 255.56V255.642C234.335 256.311 234.206 256.912 233.948 257.445C233.694 257.974 233.328 258.386 232.85 258.683C232.376 258.979 231.83 259.127 231.212 259.127C230.281 259.127 229.526 258.803 228.946 258.156C228.37 257.508 228.083 256.651 228.083 255.585V255.502ZM229.263 255.642C229.263 256.404 229.439 257.015 229.79 257.477C230.146 257.938 230.619 258.168 231.212 258.168C231.809 258.168 232.283 257.936 232.634 257.47C232.985 257 233.161 256.345 233.161 255.502C233.161 254.749 232.981 254.14 232.621 253.674C232.266 253.205 231.792 252.97 231.199 252.97C230.619 252.97 230.152 253.2 229.796 253.662C229.441 254.123 229.263 254.783 229.263 255.642Z" fill="black"/><path d="M236.918 252.132L236.957 252.995C237.481 252.335 238.167 252.005 239.013 252.005C240.465 252.005 241.197 252.824 241.209 254.461V259H240.035V254.455C240.031 253.96 239.917 253.594 239.692 253.357C239.472 253.12 239.127 253.001 238.658 253.001C238.277 253.001 237.943 253.103 237.655 253.306C237.367 253.509 237.143 253.776 236.982 254.106V259H235.808V252.132H236.918Z" fill="black"/><path d="M249.944 259H248.763V251.173L246.396 252.043V250.977L249.76 249.713H249.944V259Z" fill="black"/><path d="M253.53 258.384C253.53 258.181 253.59 258.012 253.708 257.876C253.831 257.741 254.013 257.673 254.254 257.673C254.495 257.673 254.677 257.741 254.8 257.876C254.927 258.012 254.99 258.181 254.99 258.384C254.99 258.579 254.927 258.742 254.8 258.873C254.677 259.004 254.495 259.07 254.254 259.07C254.013 259.07 253.831 259.004 253.708 258.873C253.59 258.742 253.53 258.579 253.53 258.384Z" fill="black"/><path d="M260.671 259H259.491V251.173L257.123 252.043V250.977L260.487 249.713H260.671V259Z" fill="black"/><path d="M264.258 258.384C264.258 258.181 264.317 258.012 264.436 257.876C264.558 257.741 264.74 257.673 264.981 257.673C265.223 257.673 265.405 257.741 265.527 257.876C265.654 258.012 265.718 258.181 265.718 258.384C265.718 258.579 265.654 258.742 265.527 258.873C265.405 259.004 265.223 259.07 264.981 259.07C264.74 259.07 264.558 259.004 264.436 258.873C264.317 258.742 264.258 258.579 264.258 258.384Z" fill="black"/><path d="M273.335 255.058C273.335 256.433 273.1 257.455 272.63 258.124C272.161 258.793 271.426 259.127 270.428 259.127C269.442 259.127 268.712 258.801 268.238 258.149C267.764 257.493 267.518 256.516 267.501 255.217V253.649C267.501 252.291 267.736 251.281 268.206 250.621C268.676 249.961 269.412 249.631 270.415 249.631C271.41 249.631 272.142 249.95 272.611 250.589C273.081 251.224 273.322 252.206 273.335 253.535V255.058ZM272.161 253.452C272.161 252.458 272.021 251.734 271.742 251.281C271.462 250.824 271.02 250.596 270.415 250.596C269.814 250.596 269.376 250.822 269.101 251.275C268.826 251.728 268.684 252.424 268.676 253.363V255.242C268.676 256.241 268.82 256.979 269.107 257.458C269.399 257.931 269.84 258.168 270.428 258.168C271.007 258.168 271.437 257.944 271.716 257.496C272 257.047 272.148 256.34 272.161 255.375V253.452Z" fill="black"/><path d="M279.359 252.963C279.879 252.324 280.556 252.005 281.39 252.005C282.842 252.005 283.574 252.824 283.586 254.461V259H282.412V254.455C282.408 253.96 282.294 253.594 282.069 253.357C281.849 253.12 281.504 253.001 281.035 253.001C280.654 253.001 280.319 253.103 280.032 253.306C279.744 253.509 279.52 253.776 279.359 254.106V259H278.185V249.25H279.359V252.963Z" fill="black"/><path d="M289.585 259C289.517 258.865 289.462 258.623 289.42 258.276C288.874 258.843 288.222 259.127 287.465 259.127C286.788 259.127 286.231 258.937 285.795 258.556C285.364 258.171 285.148 257.684 285.148 257.096C285.148 256.381 285.419 255.826 285.96 255.433C286.506 255.035 287.272 254.836 288.258 254.836H289.401V254.296C289.401 253.886 289.278 253.56 289.033 253.319C288.787 253.073 288.425 252.951 287.947 252.951C287.528 252.951 287.177 253.056 286.894 253.268C286.61 253.48 286.468 253.736 286.468 254.036H285.288C285.288 253.693 285.408 253.363 285.649 253.046C285.895 252.724 286.225 252.47 286.64 252.284C287.059 252.098 287.518 252.005 288.017 252.005C288.808 252.005 289.428 252.204 289.877 252.602C290.326 252.995 290.558 253.539 290.575 254.233V257.394C290.575 258.025 290.656 258.526 290.816 258.898V259H289.585ZM287.636 258.105C288.004 258.105 288.354 258.01 288.684 257.819C289.014 257.629 289.253 257.381 289.401 257.077V255.667H288.48C287.042 255.667 286.322 256.089 286.322 256.931C286.322 257.299 286.445 257.587 286.69 257.794C286.936 258.001 287.251 258.105 287.636 258.105Z" fill="black"/><path d="M296.415 257.178C296.415 256.861 296.294 256.615 296.053 256.442C295.816 256.264 295.399 256.112 294.803 255.985C294.21 255.858 293.738 255.706 293.387 255.528C293.04 255.35 292.782 255.139 292.613 254.893C292.448 254.648 292.365 254.356 292.365 254.017C292.365 253.454 292.602 252.978 293.076 252.589C293.554 252.2 294.164 252.005 294.904 252.005C295.683 252.005 296.313 252.206 296.796 252.608C297.283 253.01 297.526 253.524 297.526 254.15H296.345C296.345 253.829 296.208 253.552 295.933 253.319C295.662 253.086 295.319 252.97 294.904 252.97C294.477 252.97 294.143 253.063 293.901 253.249C293.66 253.435 293.54 253.679 293.54 253.979C293.54 254.263 293.652 254.476 293.876 254.62C294.1 254.764 294.504 254.902 295.088 255.033C295.677 255.164 296.153 255.32 296.517 255.502C296.881 255.684 297.149 255.904 297.323 256.163C297.5 256.417 297.589 256.728 297.589 257.096C297.589 257.709 297.344 258.202 296.853 258.575C296.362 258.943 295.725 259.127 294.942 259.127C294.392 259.127 293.906 259.03 293.482 258.835C293.059 258.64 292.727 258.369 292.486 258.022C292.249 257.671 292.13 257.292 292.13 256.886H293.305C293.326 257.28 293.482 257.593 293.774 257.826C294.071 258.054 294.46 258.168 294.942 258.168C295.387 258.168 295.742 258.08 296.009 257.902C296.28 257.72 296.415 257.479 296.415 257.178Z" fill="black"/><path d="M308.158 255.642C308.158 256.692 307.917 257.536 307.435 258.175C306.952 258.81 306.305 259.127 305.492 259.127C304.625 259.127 303.954 258.82 303.48 258.207L303.423 259H302.344V249.25H303.518V252.887C303.992 252.299 304.646 252.005 305.479 252.005C306.313 252.005 306.967 252.32 307.441 252.951C307.919 253.581 308.158 254.444 308.158 255.541V255.642ZM306.984 255.509C306.984 254.709 306.829 254.091 306.521 253.655C306.212 253.219 305.767 253.001 305.188 253.001C304.413 253.001 303.857 253.361 303.518 254.081V257.051C303.878 257.771 304.438 258.13 305.2 258.13C305.763 258.13 306.201 257.912 306.514 257.477C306.827 257.041 306.984 256.385 306.984 255.509Z" fill="black"/><path d="M312.494 259.127C311.563 259.127 310.805 258.822 310.221 258.213C309.637 257.599 309.345 256.78 309.345 255.756V255.541C309.345 254.859 309.474 254.252 309.732 253.719C309.995 253.181 310.359 252.762 310.824 252.462C311.294 252.157 311.802 252.005 312.348 252.005C313.241 252.005 313.935 252.299 314.43 252.887C314.925 253.475 315.172 254.318 315.172 255.414V255.902H310.52C310.536 256.579 310.733 257.127 311.11 257.546C311.491 257.961 311.973 258.168 312.557 258.168C312.972 258.168 313.323 258.084 313.611 257.915C313.899 257.745 314.15 257.521 314.366 257.242L315.083 257.8C314.508 258.685 313.645 259.127 312.494 259.127ZM312.348 252.97C311.874 252.97 311.476 253.143 311.154 253.49C310.833 253.833 310.634 254.315 310.558 254.938H313.998V254.849C313.964 254.252 313.803 253.791 313.516 253.465C313.228 253.135 312.839 252.97 312.348 252.97Z" fill="black"/><path d="M319.387 259.127C318.456 259.127 317.699 258.822 317.115 258.213C316.531 257.599 316.239 256.78 316.239 255.756V255.541C316.239 254.859 316.368 254.252 316.626 253.719C316.888 253.181 317.252 252.762 317.718 252.462C318.188 252.157 318.695 252.005 319.241 252.005C320.134 252.005 320.828 252.299 321.323 252.887C321.818 253.475 322.066 254.318 322.066 255.414V255.902H317.413C317.43 256.579 317.627 257.127 318.003 257.546C318.384 257.961 318.867 258.168 319.451 258.168C319.865 258.168 320.217 258.084 320.504 257.915C320.792 257.745 321.044 257.521 321.26 257.242L321.977 257.8C321.402 258.685 320.538 259.127 319.387 259.127ZM319.241 252.97C318.767 252.97 318.369 253.143 318.048 253.49C317.726 253.833 317.527 254.315 317.451 254.938H320.892V254.849C320.858 254.252 320.697 253.791 320.409 253.465C320.121 253.135 319.732 252.97 319.241 252.97Z" fill="black"/><path d="M324.542 252.132L324.58 252.995C325.104 252.335 325.79 252.005 326.636 252.005C328.088 252.005 328.82 252.824 328.833 254.461V259H327.658V254.455C327.654 253.96 327.54 253.594 327.315 253.357C327.095 253.12 326.75 253.001 326.281 253.001C325.9 253.001 325.566 253.103 325.278 253.306C324.99 253.509 324.766 253.776 324.605 254.106V259H323.431V252.132H324.542Z" fill="black"/><path d="M333.542 255.509C333.542 254.455 333.792 253.609 334.292 252.97C334.791 252.326 335.445 252.005 336.253 252.005C337.057 252.005 337.694 252.28 338.164 252.83V249.25H339.338V259H338.259L338.202 258.264C337.732 258.839 337.078 259.127 336.24 259.127C335.445 259.127 334.795 258.801 334.292 258.149C333.792 257.498 333.542 256.647 333.542 255.598V255.509ZM334.717 255.642C334.717 256.421 334.878 257.03 335.199 257.47C335.521 257.91 335.965 258.13 336.532 258.13C337.277 258.13 337.821 257.796 338.164 257.127V253.973C337.812 253.325 337.273 253.001 336.545 253.001C335.969 253.001 335.521 253.224 335.199 253.668C334.878 254.112 334.717 254.77 334.717 255.642Z" fill="black"/><path d="M340.855 255.502C340.855 254.83 340.986 254.224 341.249 253.687C341.515 253.15 341.883 252.735 342.353 252.443C342.827 252.151 343.367 252.005 343.972 252.005C344.907 252.005 345.662 252.329 346.238 252.976C346.818 253.624 347.107 254.485 347.107 255.56V255.642C347.107 256.311 346.978 256.912 346.72 257.445C346.466 257.974 346.1 258.386 345.622 258.683C345.148 258.979 344.602 259.127 343.984 259.127C343.053 259.127 342.298 258.803 341.718 258.156C341.143 257.508 340.855 256.651 340.855 255.585V255.502ZM342.036 255.642C342.036 256.404 342.211 257.015 342.562 257.477C342.918 257.938 343.392 258.168 343.984 258.168C344.581 258.168 345.055 257.936 345.406 257.47C345.757 257 345.933 256.345 345.933 255.502C345.933 254.749 345.753 254.14 345.394 253.674C345.038 253.205 344.564 252.97 343.972 252.97C343.392 252.97 342.924 253.2 342.569 253.662C342.213 254.123 342.036 254.783 342.036 255.642Z" fill="black"/><path d="M354.661 257.381L355.981 252.132H357.156L355.156 259H354.204L352.535 253.795L350.91 259H349.958L347.964 252.132H349.132L350.484 257.273L352.084 252.132H353.03L354.661 257.381Z" fill="black"/><path d="M359.466 252.132L359.504 252.995C360.029 252.335 360.715 252.005 361.561 252.005C363.013 252.005 363.745 252.824 363.757 254.461V259H362.583V254.455C362.579 253.96 362.465 253.594 362.24 253.357C362.02 253.12 361.675 253.001 361.206 253.001C360.825 253.001 360.49 253.103 360.203 253.306C359.915 253.509 359.691 253.776 359.53 254.106V259H358.355V252.132H359.466Z" fill="black"/><path d="M366.804 259H365.63V249.25H366.804V259Z" fill="black"/><path d="M368.378 255.502C368.378 254.83 368.51 254.224 368.772 253.687C369.039 253.15 369.407 252.735 369.876 252.443C370.35 252.151 370.89 252.005 371.495 252.005C372.43 252.005 373.186 252.329 373.761 252.976C374.341 253.624 374.631 254.485 374.631 255.56V255.642C374.631 256.311 374.502 256.912 374.244 257.445C373.99 257.974 373.624 258.386 373.146 258.683C372.672 258.979 372.126 259.127 371.508 259.127C370.577 259.127 369.821 258.803 369.242 258.156C368.666 257.508 368.378 256.651 368.378 255.585V255.502ZM369.559 255.642C369.559 256.404 369.735 257.015 370.086 257.477C370.441 257.938 370.915 258.168 371.508 258.168C372.104 258.168 372.578 257.936 372.93 257.47C373.281 257 373.457 256.345 373.457 255.502C373.457 254.749 373.277 254.14 372.917 253.674C372.562 253.205 372.088 252.97 371.495 252.97C370.915 252.97 370.448 253.2 370.092 253.662C369.737 254.123 369.559 254.783 369.559 255.642Z" fill="black"/><path d="M380.344 259C380.276 258.865 380.221 258.623 380.179 258.276C379.633 258.843 378.981 259.127 378.224 259.127C377.547 259.127 376.99 258.937 376.554 258.556C376.123 258.171 375.907 257.684 375.907 257.096C375.907 256.381 376.178 255.826 376.719 255.433C377.265 255.035 378.031 254.836 379.017 254.836H380.16V254.296C380.16 253.886 380.037 253.56 379.792 253.319C379.546 253.073 379.184 252.951 378.706 252.951C378.287 252.951 377.936 253.056 377.652 253.268C377.369 253.48 377.227 253.736 377.227 254.036H376.046C376.046 253.693 376.167 253.363 376.408 253.046C376.654 252.724 376.984 252.47 377.398 252.284C377.817 252.098 378.277 252.005 378.776 252.005C379.567 252.005 380.187 252.204 380.636 252.602C381.084 252.995 381.317 253.539 381.334 254.233V257.394C381.334 258.025 381.414 258.526 381.575 258.898V259H380.344ZM378.395 258.105C378.763 258.105 379.112 258.01 379.442 257.819C379.772 257.629 380.012 257.381 380.16 257.077V255.667H379.239C377.8 255.667 377.081 256.089 377.081 256.931C377.081 257.299 377.204 257.587 377.449 257.794C377.695 258.001 378.01 258.105 378.395 258.105Z" fill="black"/><path d="M382.889 255.509C382.889 254.455 383.139 253.609 383.638 252.97C384.138 252.326 384.791 252.005 385.6 252.005C386.404 252.005 387.041 252.28 387.51 252.83V249.25H388.685V259H387.605L387.548 258.264C387.079 258.839 386.425 259.127 385.587 259.127C384.791 259.127 384.142 258.801 383.638 258.149C383.139 257.498 382.889 256.647 382.889 255.598V255.509ZM384.063 255.642C384.063 256.421 384.224 257.03 384.546 257.47C384.868 257.91 385.312 258.13 385.879 258.13C386.624 258.13 387.167 257.796 387.51 257.127V253.973C387.159 253.325 386.619 253.001 385.892 253.001C385.316 253.001 384.868 253.224 384.546 253.668C384.224 254.112 384.063 254.77 384.063 255.642Z" fill="black"/><path d="M393.363 259.127C392.432 259.127 391.674 258.822 391.09 258.213C390.506 257.599 390.214 256.78 390.214 255.756V255.541C390.214 254.859 390.343 254.252 390.602 253.719C390.864 253.181 391.228 252.762 391.693 252.462C392.163 252.157 392.671 252.005 393.217 252.005C394.11 252.005 394.804 252.299 395.299 252.887C395.794 253.475 396.042 254.318 396.042 255.414V255.902H391.389C391.406 256.579 391.602 257.127 391.979 257.546C392.36 257.961 392.842 258.168 393.426 258.168C393.841 258.168 394.192 258.084 394.48 257.915C394.768 257.745 395.02 257.521 395.235 257.242L395.953 257.8C395.377 258.685 394.514 259.127 393.363 259.127ZM393.217 252.97C392.743 252.97 392.345 253.143 392.023 253.49C391.702 253.833 391.503 254.315 391.427 254.938H394.867V254.849C394.833 254.252 394.673 253.791 394.385 253.465C394.097 253.135 393.708 252.97 393.217 252.97Z" fill="black"/><path d="M397.121 255.509C397.121 254.455 397.37 253.609 397.87 252.97C398.369 252.326 399.023 252.005 399.831 252.005C400.635 252.005 401.272 252.28 401.742 252.83V249.25H402.916V259H401.837L401.78 258.264C401.31 258.839 400.656 259.127 399.818 259.127C399.023 259.127 398.373 258.801 397.87 258.149C397.37 257.498 397.121 256.647 397.121 255.598V255.509ZM398.295 255.642C398.295 256.421 398.456 257.03 398.777 257.47C399.099 257.91 399.543 258.13 400.11 258.13C400.855 258.13 401.399 257.796 401.742 257.127V253.973C401.39 253.325 400.851 253.001 400.123 253.001C399.548 253.001 399.099 253.224 398.777 253.668C398.456 254.112 398.295 254.77 398.295 255.642Z" fill="black"/><path d="M412.209 259C412.141 258.865 412.086 258.623 412.044 258.276C411.498 258.843 410.846 259.127 410.089 259.127C409.412 259.127 408.855 258.937 408.419 258.556C407.988 258.171 407.772 257.684 407.772 257.096C407.772 256.381 408.043 255.826 408.584 255.433C409.13 255.035 409.896 254.836 410.882 254.836H412.025V254.296C412.025 253.886 411.902 253.56 411.657 253.319C411.411 253.073 411.049 252.951 410.571 252.951C410.152 252.951 409.801 253.056 409.518 253.268C409.234 253.48 409.092 253.736 409.092 254.036H407.912C407.912 253.693 408.032 253.363 408.273 253.046C408.519 252.724 408.849 252.47 409.264 252.284C409.683 252.098 410.142 252.005 410.641 252.005C411.432 252.005 412.052 252.204 412.501 252.602C412.95 252.995 413.182 253.539 413.199 254.233V257.394C413.199 258.025 413.28 258.526 413.44 258.898V259H412.209ZM410.26 258.105C410.628 258.105 410.978 258.01 411.308 257.819C411.638 257.629 411.877 257.381 412.025 257.077V255.667H411.104C409.666 255.667 408.946 256.089 408.946 256.931C408.946 257.299 409.069 257.587 409.314 257.794C409.56 258.001 409.875 258.105 410.26 258.105Z" fill="black"/><path d="M416.151 252.132L416.189 252.995C416.714 252.335 417.399 252.005 418.246 252.005C419.697 252.005 420.429 252.824 420.442 254.461V259H419.268V254.455C419.263 253.96 419.149 253.594 418.925 253.357C418.705 253.12 418.36 253.001 417.89 253.001C417.509 253.001 417.175 253.103 416.887 253.306C416.599 253.509 416.375 253.776 416.214 254.106V259H415.04V252.132H416.151Z" fill="black"/><path d="M421.927 255.509C421.927 254.455 422.177 253.609 422.676 252.97C423.176 252.326 423.829 252.005 424.638 252.005C425.442 252.005 426.079 252.28 426.548 252.83V249.25H427.723V259H426.644L426.586 258.264C426.117 258.839 425.463 259.127 424.625 259.127C423.829 259.127 423.18 258.801 422.676 258.149C422.177 257.498 421.927 256.647 421.927 255.598V255.509ZM423.102 255.642C423.102 256.421 423.262 257.03 423.584 257.47C423.906 257.91 424.35 258.13 424.917 258.13C425.662 258.13 426.206 257.796 426.548 257.127V253.973C426.197 253.325 425.658 253.001 424.93 253.001C424.354 253.001 423.906 253.224 423.584 253.668C423.262 254.112 423.102 254.77 423.102 255.642Z" fill="black"/><path d="M438.856 257.381L440.177 252.132H441.351L439.352 259H438.399L436.73 253.795L435.105 259H434.153L432.16 252.132H433.328L434.68 257.273L436.279 252.132H437.225L438.856 257.381Z" fill="black"/><path d="M443.827 259H442.652V252.132H443.827V259ZM442.557 250.31C442.557 250.12 442.614 249.959 442.729 249.828C442.847 249.696 443.021 249.631 443.249 249.631C443.478 249.631 443.651 249.696 443.77 249.828C443.888 249.959 443.947 250.12 443.947 250.31C443.947 250.5 443.888 250.659 443.77 250.786C443.651 250.913 443.478 250.977 443.249 250.977C443.021 250.977 442.847 250.913 442.729 250.786C442.614 250.659 442.557 250.5 442.557 250.31Z" fill="black"/><path d="M446.988 259H445.813V249.25H446.988V259Z" fill="black"/><path d="M450.149 259H448.975V249.25H450.149V259Z" fill="black"/><path d="M156.703 271.642C156.703 272.692 156.462 273.536 155.979 274.175C155.497 274.81 154.85 275.127 154.037 275.127C153.17 275.127 152.499 274.82 152.025 274.207L151.968 275H150.889V265.25H152.063V268.887C152.537 268.299 153.191 268.005 154.024 268.005C154.858 268.005 155.512 268.32 155.986 268.951C156.464 269.581 156.703 270.444 156.703 271.541V271.642ZM155.529 271.509C155.529 270.709 155.374 270.091 155.065 269.655C154.757 269.219 154.312 269.001 153.732 269.001C152.958 269.001 152.402 269.361 152.063 270.081V273.051C152.423 273.771 152.983 274.13 153.745 274.13C154.308 274.13 154.746 273.912 155.059 273.477C155.372 273.041 155.529 272.385 155.529 271.509Z" fill="black"/><path d="M161.039 275.127C160.108 275.127 159.35 274.822 158.766 274.213C158.182 273.599 157.89 272.78 157.89 271.756V271.541C157.89 270.859 158.019 270.252 158.277 269.719C158.54 269.181 158.904 268.762 159.369 268.462C159.839 268.157 160.347 268.005 160.893 268.005C161.785 268.005 162.479 268.299 162.975 268.887C163.47 269.475 163.717 270.318 163.717 271.414V271.902H159.064C159.081 272.579 159.278 273.127 159.655 273.546C160.036 273.961 160.518 274.168 161.102 274.168C161.517 274.168 161.868 274.084 162.156 273.915C162.444 273.745 162.695 273.521 162.911 273.242L163.628 273.8C163.053 274.685 162.19 275.127 161.039 275.127ZM160.893 268.97C160.419 268.97 160.021 269.143 159.699 269.49C159.378 269.833 159.179 270.315 159.103 270.938H162.543V270.849C162.509 270.252 162.348 269.791 162.061 269.465C161.773 269.135 161.383 268.97 160.893 268.97Z" fill="black"/><path d="M172.547 275C172.479 274.865 172.424 274.623 172.382 274.276C171.836 274.843 171.184 275.127 170.427 275.127C169.75 275.127 169.193 274.937 168.757 274.556C168.326 274.171 168.11 273.684 168.11 273.096C168.11 272.381 168.381 271.826 168.922 271.433C169.468 271.035 170.234 270.836 171.22 270.836H172.363V270.296C172.363 269.886 172.24 269.56 171.995 269.319C171.749 269.073 171.387 268.951 170.909 268.951C170.49 268.951 170.139 269.056 169.855 269.268C169.572 269.48 169.43 269.736 169.43 270.036H168.25C168.25 269.693 168.37 269.363 168.611 269.046C168.857 268.724 169.187 268.47 169.602 268.284C170.021 268.098 170.48 268.005 170.979 268.005C171.77 268.005 172.39 268.204 172.839 268.602C173.287 268.995 173.52 269.539 173.537 270.233V273.394C173.537 274.025 173.618 274.526 173.778 274.898V275H172.547ZM170.598 274.105C170.966 274.105 171.315 274.01 171.646 273.819C171.976 273.629 172.215 273.381 172.363 273.077V271.667H171.442C170.004 271.667 169.284 272.089 169.284 272.931C169.284 273.299 169.407 273.587 169.652 273.794C169.898 274.001 170.213 274.105 170.598 274.105Z" fill="black"/><path d="M179.618 274.321C179.161 274.858 178.49 275.127 177.606 275.127C176.874 275.127 176.315 274.915 175.93 274.492C175.549 274.065 175.357 273.434 175.353 272.601V268.132H176.527V272.569C176.527 273.61 176.95 274.13 177.796 274.13C178.694 274.13 179.29 273.796 179.586 273.127V268.132H180.761V275H179.644L179.618 274.321Z" fill="black"/><path d="M184.144 266.469V268.132H185.426V269.04H184.144V273.299C184.144 273.574 184.201 273.781 184.315 273.921C184.43 274.056 184.624 274.124 184.899 274.124C185.035 274.124 185.221 274.099 185.458 274.048V275C185.149 275.085 184.849 275.127 184.557 275.127C184.032 275.127 183.636 274.968 183.37 274.651C183.103 274.333 182.97 273.883 182.97 273.299V269.04H181.719V268.132H182.97V266.469H184.144Z" fill="black"/><path d="M186.366 271.502C186.366 270.83 186.497 270.224 186.759 269.687C187.026 269.15 187.394 268.735 187.864 268.443C188.338 268.151 188.877 268.005 189.482 268.005C190.418 268.005 191.173 268.329 191.749 268.976C192.328 269.624 192.618 270.485 192.618 271.56V271.642C192.618 272.311 192.489 272.912 192.231 273.445C191.977 273.974 191.611 274.386 191.133 274.683C190.659 274.979 190.113 275.127 189.495 275.127C188.564 275.127 187.809 274.803 187.229 274.156C186.653 273.508 186.366 272.651 186.366 271.585V271.502ZM187.546 271.642C187.546 272.404 187.722 273.015 188.073 273.477C188.429 273.938 188.903 274.168 189.495 274.168C190.092 274.168 190.566 273.936 190.917 273.47C191.268 273 191.444 272.345 191.444 271.502C191.444 270.749 191.264 270.14 190.904 269.674C190.549 269.205 190.075 268.97 189.482 268.97C188.903 268.97 188.435 269.2 188.08 269.662C187.724 270.123 187.546 270.783 187.546 271.642Z" fill="black"/><path d="M195.195 268.132L195.227 268.894C195.731 268.301 196.41 268.005 197.265 268.005C198.225 268.005 198.879 268.373 199.226 269.109C199.455 268.779 199.751 268.513 200.115 268.31C200.483 268.106 200.917 268.005 201.416 268.005C202.923 268.005 203.688 268.803 203.714 270.398V275H202.54V270.468C202.54 269.977 202.427 269.611 202.203 269.37C201.979 269.124 201.602 269.001 201.073 269.001C200.637 269.001 200.276 269.133 199.988 269.395C199.7 269.653 199.533 270.002 199.486 270.442V275H198.306V270.5C198.306 269.501 197.817 269.001 196.839 269.001C196.069 269.001 195.542 269.329 195.259 269.985V275H194.084V268.132H195.195Z" fill="black"/><path d="M209.731 275C209.664 274.865 209.609 274.623 209.566 274.276C209.021 274.843 208.369 275.127 207.611 275.127C206.934 275.127 206.378 274.937 205.942 274.556C205.51 274.171 205.294 273.684 205.294 273.096C205.294 272.381 205.565 271.826 206.107 271.433C206.653 271.035 207.419 270.836 208.405 270.836H209.547V270.296C209.547 269.886 209.425 269.56 209.179 269.319C208.934 269.073 208.572 268.951 208.094 268.951C207.675 268.951 207.324 269.056 207.04 269.268C206.757 269.48 206.615 269.736 206.615 270.036H205.434C205.434 269.693 205.555 269.363 205.796 269.046C206.041 268.724 206.371 268.47 206.786 268.284C207.205 268.098 207.664 268.005 208.164 268.005C208.955 268.005 209.575 268.204 210.023 268.602C210.472 268.995 210.705 269.539 210.722 270.233V273.394C210.722 274.025 210.802 274.526 210.963 274.898V275H209.731ZM207.783 274.105C208.151 274.105 208.5 274.01 208.83 273.819C209.16 273.629 209.399 273.381 209.547 273.077V271.667H208.627C207.188 271.667 206.469 272.089 206.469 272.931C206.469 273.299 206.591 273.587 206.837 273.794C207.082 274.001 207.398 274.105 207.783 274.105Z" fill="black"/><path d="M214.156 266.469V268.132H215.438V269.04H214.156V273.299C214.156 273.574 214.213 273.781 214.327 273.921C214.441 274.056 214.636 274.124 214.911 274.124C215.047 274.124 215.233 274.099 215.47 274.048V275C215.161 275.085 214.86 275.127 214.568 275.127C214.044 275.127 213.648 274.968 213.381 274.651C213.115 274.333 212.981 273.883 212.981 273.299V269.04H211.731V268.132H212.981V266.469H214.156Z" fill="black"/><path d="M218.091 275H216.917V268.132H218.091V275ZM216.822 266.31C216.822 266.12 216.879 265.959 216.993 265.828C217.112 265.696 217.285 265.631 217.514 265.631C217.742 265.631 217.916 265.696 218.034 265.828C218.153 265.959 218.212 266.12 218.212 266.31C218.212 266.5 218.153 266.659 218.034 266.786C217.916 266.913 217.742 266.977 217.514 266.977C217.285 266.977 217.112 266.913 216.993 266.786C216.879 266.659 216.822 266.5 216.822 266.31Z" fill="black"/><path d="M222.731 274.168C223.15 274.168 223.516 274.042 223.83 273.788C224.143 273.534 224.316 273.216 224.35 272.835H225.461C225.44 273.229 225.304 273.604 225.055 273.959C224.805 274.314 224.471 274.598 224.052 274.81C223.637 275.021 223.197 275.127 222.731 275.127C221.796 275.127 221.051 274.816 220.497 274.194C219.947 273.568 219.672 272.713 219.672 271.629V271.433C219.672 270.764 219.795 270.169 220.04 269.649C220.285 269.128 220.637 268.724 221.094 268.437C221.555 268.149 222.099 268.005 222.725 268.005C223.495 268.005 224.134 268.236 224.642 268.697C225.154 269.158 225.427 269.757 225.461 270.493H224.35C224.316 270.049 224.147 269.685 223.842 269.401C223.542 269.114 223.169 268.97 222.725 268.97C222.128 268.97 221.665 269.186 221.335 269.617C221.009 270.045 220.846 270.665 220.846 271.477V271.699C220.846 272.491 221.009 273.1 221.335 273.527C221.661 273.955 222.126 274.168 222.731 274.168Z" fill="black"/><path d="M231.021 275C230.954 274.865 230.899 274.623 230.856 274.276C230.311 274.843 229.659 275.127 228.901 275.127C228.224 275.127 227.668 274.937 227.232 274.556C226.8 274.171 226.584 273.684 226.584 273.096C226.584 272.381 226.855 271.826 227.397 271.433C227.943 271.035 228.709 270.836 229.695 270.836H230.837V270.296C230.837 269.886 230.715 269.56 230.469 269.319C230.224 269.073 229.862 268.951 229.384 268.951C228.965 268.951 228.614 269.056 228.33 269.268C228.047 269.48 227.905 269.736 227.905 270.036H226.724C226.724 269.693 226.845 269.363 227.086 269.046C227.331 268.724 227.661 268.47 228.076 268.284C228.495 268.098 228.954 268.005 229.454 268.005C230.245 268.005 230.865 268.204 231.313 268.602C231.762 268.995 231.995 269.539 232.012 270.233V273.394C232.012 274.025 232.092 274.526 232.253 274.898V275H231.021ZM229.073 274.105C229.441 274.105 229.79 274.01 230.12 273.819C230.45 273.629 230.689 273.381 230.837 273.077V271.667H229.917C228.478 271.667 227.759 272.089 227.759 272.931C227.759 273.299 227.882 273.587 228.127 273.794C228.372 274.001 228.688 274.105 229.073 274.105Z" fill="black"/><path d="M235.128 275H233.954V265.25H235.128V275Z" fill="black"/><path d="M238.29 275H237.115V265.25H238.29V275Z" fill="black"/><path d="M242.422 273.28L244.021 268.132H245.278L242.517 276.06C242.09 277.203 241.41 277.774 240.479 277.774L240.257 277.755L239.819 277.672V276.72L240.137 276.746C240.535 276.746 240.843 276.665 241.063 276.504C241.288 276.344 241.472 276.049 241.616 275.622L241.876 274.924L239.426 268.132H240.708L242.422 273.28Z" fill="black"/><path d="M250.833 275H249.658V268.132H250.833V275ZM249.563 266.31C249.563 266.12 249.62 265.959 249.734 265.828C249.853 265.696 250.026 265.631 250.255 265.631C250.483 265.631 250.657 265.696 250.775 265.828C250.894 265.959 250.953 266.12 250.953 266.31C250.953 266.5 250.894 266.659 250.775 266.786C250.657 266.913 250.483 266.977 250.255 266.977C250.026 266.977 249.853 266.913 249.734 266.786C249.62 266.659 249.563 266.5 249.563 266.31Z" fill="black"/><path d="M253.829 268.132L253.867 268.995C254.391 268.335 255.077 268.005 255.923 268.005C257.375 268.005 258.107 268.824 258.12 270.461V275H256.945V270.455C256.941 269.96 256.827 269.594 256.603 269.357C256.382 269.12 256.038 269.001 255.568 269.001C255.187 269.001 254.853 269.103 254.565 269.306C254.277 269.509 254.053 269.776 253.892 270.106V275H252.718V268.132H253.829Z" fill="black"/><path d="M263.89 273.178C263.89 272.861 263.769 272.615 263.528 272.442C263.291 272.264 262.874 272.112 262.277 271.985C261.685 271.858 261.213 271.706 260.862 271.528C260.515 271.35 260.257 271.139 260.087 270.893C259.922 270.648 259.84 270.356 259.84 270.017C259.84 269.454 260.077 268.978 260.551 268.589C261.029 268.2 261.638 268.005 262.379 268.005C263.158 268.005 263.788 268.206 264.271 268.608C264.757 269.01 265 269.524 265 270.15H263.82C263.82 269.829 263.682 269.552 263.407 269.319C263.136 269.086 262.794 268.97 262.379 268.97C261.951 268.97 261.617 269.063 261.376 269.249C261.135 269.435 261.014 269.679 261.014 269.979C261.014 270.263 261.126 270.476 261.351 270.62C261.575 270.764 261.979 270.902 262.563 271.033C263.151 271.164 263.627 271.32 263.991 271.502C264.355 271.684 264.624 271.904 264.797 272.163C264.975 272.417 265.064 272.728 265.064 273.096C265.064 273.709 264.819 274.202 264.328 274.575C263.837 274.943 263.2 275.127 262.417 275.127C261.867 275.127 261.38 275.03 260.957 274.835C260.534 274.64 260.202 274.369 259.96 274.022C259.723 273.671 259.605 273.292 259.605 272.886H260.779C260.8 273.28 260.957 273.593 261.249 273.826C261.545 274.054 261.935 274.168 262.417 274.168C262.861 274.168 263.217 274.08 263.483 273.902C263.754 273.72 263.89 273.479 263.89 273.178Z" fill="black"/><path d="M268.187 266.469V268.132H269.469V269.04H268.187V273.299C268.187 273.574 268.244 273.781 268.358 273.921C268.473 274.056 268.667 274.124 268.942 274.124C269.078 274.124 269.264 274.099 269.501 274.048V275C269.192 275.085 268.892 275.127 268.6 275.127C268.075 275.127 267.679 274.968 267.413 274.651C267.146 274.333 267.013 273.883 267.013 273.299V269.04H265.762V268.132H267.013V266.469H268.187Z" fill="black"/><path d="M275.087 275C275.019 274.865 274.964 274.623 274.922 274.276C274.376 274.843 273.724 275.127 272.967 275.127C272.29 275.127 271.733 274.937 271.297 274.556C270.866 274.171 270.65 273.684 270.65 273.096C270.65 272.381 270.921 271.826 271.462 271.433C272.008 271.035 272.774 270.836 273.76 270.836H274.903V270.296C274.903 269.886 274.78 269.56 274.535 269.319C274.289 269.073 273.927 268.951 273.449 268.951C273.03 268.951 272.679 269.056 272.396 269.268C272.112 269.48 271.97 269.736 271.97 270.036H270.79C270.79 269.693 270.91 269.363 271.151 269.046C271.397 268.724 271.727 268.47 272.142 268.284C272.561 268.098 273.02 268.005 273.519 268.005C274.31 268.005 274.93 268.204 275.379 268.602C275.827 268.995 276.06 269.539 276.077 270.233V273.394C276.077 274.025 276.158 274.526 276.318 274.898V275H275.087ZM273.138 274.105C273.506 274.105 273.855 274.01 274.186 273.819C274.516 273.629 274.755 273.381 274.903 273.077V271.667H273.982C272.544 271.667 271.824 272.089 271.824 272.931C271.824 273.299 271.947 273.587 272.192 273.794C272.438 274.001 272.753 274.105 273.138 274.105Z" fill="black"/><path d="M279.194 275H278.02V265.25H279.194V275Z" fill="black"/><path d="M282.355 275H281.181V265.25H282.355V275Z" fill="black"/><path d="M287.09 275.127C286.159 275.127 285.402 274.822 284.818 274.213C284.234 273.599 283.942 272.78 283.942 271.756V271.541C283.942 270.859 284.071 270.252 284.329 269.719C284.591 269.181 284.955 268.762 285.421 268.462C285.891 268.157 286.398 268.005 286.944 268.005C287.837 268.005 288.531 268.299 289.026 268.887C289.521 269.475 289.769 270.318 289.769 271.414V271.902H285.116C285.133 272.579 285.33 273.127 285.707 273.546C286.087 273.961 286.57 274.168 287.154 274.168C287.569 274.168 287.92 274.084 288.208 273.915C288.495 273.745 288.747 273.521 288.963 273.242L289.68 273.8C289.105 274.685 288.241 275.127 287.09 275.127ZM286.944 268.97C286.47 268.97 286.073 269.143 285.751 269.49C285.429 269.833 285.23 270.315 285.154 270.938H288.595V270.849C288.561 270.252 288.4 269.791 288.112 269.465C287.825 269.135 287.435 268.97 286.944 268.97Z" fill="black"/><path d="M290.848 271.509C290.848 270.455 291.098 269.609 291.597 268.97C292.097 268.326 292.75 268.005 293.559 268.005C294.363 268.005 295 268.28 295.469 268.83V265.25H296.644V275H295.564L295.507 274.264C295.038 274.839 294.384 275.127 293.546 275.127C292.75 275.127 292.101 274.801 291.597 274.149C291.098 273.498 290.848 272.647 290.848 271.598V271.509ZM292.022 271.642C292.022 272.421 292.183 273.03 292.505 273.47C292.826 273.91 293.271 274.13 293.838 274.13C294.583 274.13 295.126 273.796 295.469 273.127V269.973C295.118 269.325 294.578 269.001 293.851 269.001C293.275 269.001 292.826 269.224 292.505 269.668C292.183 270.112 292.022 270.77 292.022 271.642Z" fill="black"/><path d="M301.385 271.502C301.385 270.83 301.516 270.224 301.779 269.687C302.045 269.15 302.414 268.735 302.883 268.443C303.357 268.151 303.897 268.005 304.502 268.005C305.437 268.005 306.193 268.329 306.768 268.976C307.348 269.624 307.638 270.485 307.638 271.56V271.642C307.638 272.311 307.509 272.912 307.25 273.445C306.997 273.974 306.631 274.386 306.152 274.683C305.678 274.979 305.132 275.127 304.515 275.127C303.584 275.127 302.828 274.803 302.249 274.156C301.673 273.508 301.385 272.651 301.385 271.585V271.502ZM302.566 271.642C302.566 272.404 302.742 273.015 303.093 273.477C303.448 273.938 303.922 274.168 304.515 274.168C305.111 274.168 305.585 273.936 305.937 273.47C306.288 273 306.463 272.345 306.463 271.502C306.463 270.749 306.284 270.14 305.924 269.674C305.568 269.205 305.094 268.97 304.502 268.97C303.922 268.97 303.455 269.2 303.099 269.662C302.744 270.123 302.566 270.783 302.566 271.642Z" fill="black"/><path d="M310.221 268.132L310.259 268.995C310.784 268.335 311.47 268.005 312.316 268.005C313.767 268.005 314.5 268.824 314.512 270.461V275H313.338V270.455C313.334 269.96 313.219 269.594 312.995 269.357C312.775 269.12 312.43 269.001 311.96 269.001C311.58 269.001 311.245 269.103 310.958 269.306C310.67 269.509 310.445 269.776 310.285 270.106V275H309.11V268.132H310.221Z" fill="black"/><path d="M322.358 275.127C321.427 275.127 320.669 274.822 320.085 274.213C319.501 273.599 319.209 272.78 319.209 271.756V271.541C319.209 270.859 319.339 270.252 319.597 269.719C319.859 269.181 320.223 268.762 320.688 268.462C321.158 268.157 321.666 268.005 322.212 268.005C323.105 268.005 323.799 268.299 324.294 268.887C324.789 269.475 325.037 270.318 325.037 271.414V271.902H320.384C320.401 272.579 320.597 273.127 320.974 273.546C321.355 273.961 321.837 274.168 322.421 274.168C322.836 274.168 323.187 274.084 323.475 273.915C323.763 273.745 324.015 273.521 324.23 273.242L324.948 273.8C324.372 274.685 323.509 275.127 322.358 275.127ZM322.212 268.97C321.738 268.97 321.34 269.143 321.019 269.49C320.697 269.833 320.498 270.315 320.422 270.938H323.862V270.849C323.828 270.252 323.668 269.791 323.38 269.465C323.092 269.135 322.703 268.97 322.212 268.97Z" fill="black"/><path d="M328.706 270.639L330.229 268.132H331.6L329.353 271.528L331.67 275H330.312L328.725 272.429L327.138 275H325.773L328.09 271.528L325.843 268.132H327.201L328.706 270.639Z" fill="black"/><path d="M334.126 275H332.952V268.132H334.126V275ZM332.857 266.31C332.857 266.12 332.914 265.959 333.028 265.828C333.147 265.696 333.32 265.631 333.549 265.631C333.777 265.631 333.951 265.696 334.069 265.828C334.188 265.959 334.247 266.12 334.247 266.31C334.247 266.5 334.188 266.659 334.069 266.786C333.951 266.913 333.777 266.977 333.549 266.977C333.32 266.977 333.147 266.913 333.028 266.786C332.914 266.659 332.857 266.5 332.857 266.31Z" fill="black"/><path d="M337.605 266.469V268.132H338.887V269.04H337.605V273.299C337.605 273.574 337.662 273.781 337.776 273.921C337.891 274.056 338.085 274.124 338.36 274.124C338.496 274.124 338.682 274.099 338.919 274.048V275C338.61 275.085 338.31 275.127 338.018 275.127C337.493 275.127 337.097 274.968 336.831 274.651C336.564 274.333 336.431 273.883 336.431 273.299V269.04H335.18V268.132H336.431V266.469H337.605Z" fill="black"/></g></g><defs><filter id="filter0_d" x="-34.111" y="111.663" width="402.878" height="285.122" filterUnits="userSpaceOnUse" color-interpolation-filters="sRGB"><feFlood flood-opacity="0" result="BackgroundImageFix"/><feColorMatrix in="SourceAlpha" type="matrix" values="0 0 0 0 0 0 0 0 0 0 0 0 0 0 0 0 0 0 127 0"/><feOffset dy="1.09751"/><feGaussianBlur stdDeviation="54.8757"/><feColorMatrix type="matrix" values="0 0 0 0 0.617046 0 0 0 0 0.65469 0 0 0 0 0.779203 0 0 0 0.3 0"/><feBlend mode="normal" in2="BackgroundImageFix" result="effect1_dropShadow"/><feBlend mode="normal" in="SourceGraphic" in2="effect1_dropShadow" result="shape"/></filter><filter id="filter1_d" x="-34.111" y="43.4882" width="402.878" height="285.122" filterUnits="userSpaceOnUse" color-interpolation-filters="sRGB"><feFlood flood-opacity="0" result="BackgroundImageFix"/><feColorMatrix in="SourceAlpha" type="matrix" values="0 0 0 0 0 0 0 0 0 0 0 0 0 0 0 0 0 0 127 0"/><feOffset dy="1.09751"/><feGaussianBlur stdDeviation="54.8757"/><feColorMatrix type="matrix" values="0 0 0 0 0.617046 0 0 0 0 0.65469 0 0 0 0 0.779203 0 0 0 0.3 0"/><feBlend mode="normal" in2="BackgroundImageFix" result="effect1_dropShadow"/><feBlend mode="normal" in="SourceGraphic" in2="effect1_dropShadow" result="shape"/></filter><filter id="filter2_d" x="-34.111" y="-24.6872" width="402.878" height="285.122" filterUnits="userSpaceOnUse" color-interpolation-filters="sRGB"><feFlood flood-opacity="0" result="BackgroundImageFix"/><feColorMatrix in="SourceAlpha" type="matrix" values="0 0 0 0 0 0 0 0 0 0 0 0 0 0 0 0 0 0 127 0"/><feOffset dy="1.09751"/><feGaussianBlur stdDeviation="54.8757"/><feColorMatrix type="matrix" values="0 0 0 0 0.617046 0 0 0 0 0.65469 0 0 0 0 0.779203 0 0 0 0.3 0"/><feBlend mode="normal" in2="BackgroundImageFix" result="effect1_dropShadow"/><feBlend mode="normal" in="SourceGraphic" in2="effect1_dropShadow" result="shape"/></filter><filter id="filter3_dd" x="77.1428" y="204.735" width="437.714" height="96.6627" filterUnits="userSpaceOnUse" color-interpolation-filters="sRGB"><feFlood flood-opacity="0" result="BackgroundImageFix"/><feColorMatrix in="SourceAlpha" type="matrix" values="0 0 0 0 0 0 0 0 0 0 0 0 0 0 0 0 0 0 127 0"/><feOffset dy="2"/><feGaussianBlur stdDeviation="5"/><feColorMatrix type="matrix" values="0 0 0 0 0 0 0 0 0 0 0 0 0 0 0 0 0 0 0.3 0"/><feBlend mode="normal" in2="BackgroundImageFix" result="effect1_dropShadow"/><feColorMatrix in="SourceAlpha" type="matrix" values="0 0 0 0 0 0 0 0 0 0 0 0 0 0 0 0 0 0 127 0"/><feOffset/><feGaussianBlur stdDeviation="0.5"/><feColorMatrix type="matrix" values="0 0 0 0 0 0 0 0 0 0 0 0 0 0 0 0 0 0 0.1 0"/><feBlend mode="normal" in2="effect1_dropShadow" result="effect2_dropShadow"/><feBlend mode="normal" in="SourceGraphic" in2="effect2_dropShadow" result="shape"/></filter><pattern id="pattern0" patternContentUnits="objectBoundingBox" width="1" height="1"><use xlink:href="#image0" transform="scale(0.000976562)"/></pattern><linearGradient id="paint0_linear" x1="13077.7" y1="4531.37" x2="13077.7" y2="1574.59" gradientUnits="userSpaceOnUse"><stop stop-color="#808080" stop-opacity="0.25"/><stop offset="0.54" stop-color="#808080" stop-opacity="0.12"/><stop offset="1" stop-color="#808080" stop-opacity="0.1"/></linearGradient><linearGradient id="paint1_linear" x1="13077.7" y1="10098.7" x2="13077.7" y2="7141.97" gradientUnits="userSpaceOnUse"><stop stop-color="#808080" stop-opacity="0.25"/><stop offset="0.54" stop-color="#808080" stop-opacity="0.12"/><stop offset="1" stop-color="#808080" stop-opacity="0.1"/></linearGradient><linearGradient id="paint2_linear" x1="13077.7" y1="15628.8" x2="13077.7" y2="12672" gradientUnits="userSpaceOnUse"><stop stop-color="#808080" stop-opacity="0.25"/><stop offset="0.54" stop-color="#808080" stop-opacity="0.12"/><stop offset="1" stop-color="#808080" stop-opacity="0.1"/></linearGradient><linearGradient id="paint3_linear" x1="88033.3" y1="6329.26" x2="88033.3" y2="6196.14" gradientUnits="userSpaceOnUse"><stop stop-color="#808080" stop-opacity="0.25"/><stop offset="0.54" stop-color="#808080" stop-opacity="0.12"/><stop offset="1" stop-color="#808080" stop-opacity="0.1"/></linearGradient><linearGradient id="paint4_linear" x1="181164" y1="106446" x2="181164" y2="60741.7" gradientUnits="userSpaceOnUse"><stop stop-color="#808080" stop-opacity="0.25"/><stop offset="0.54" stop-color="#808080" stop-opacity="0.12"/><stop offset="1" stop-color="#808080" stop-opacity="0.1"/></linearGradient><clipPath id="clip0"><rect width="592" height="507" fill="white"/></clipPath><clipPath id="clip1"><rect width="442" height="101" fill="white" transform="translate(75 203)"/></clipPath><image id="image0" width="1024" height="1024" href="https://www.todesktop.com/_app/immutable/assets/customer-logo-Tandem.tItHTdzC.png"/></defs></svg>